<svg width="23" height="24" viewBox="0 0 23 24" fill="none" xmlns="http://www.w3.org/2000/svg">
<path fill-rule="evenodd" clip-rule="evenodd" d="M22.6431 20.0952V21.1428C22.6431 22.3809 21.6217 23.4286 20.4146 23.4286H2.58599C1.37885 23.4286 0.357422 22.3809 0.357422 21.1428V20.0952C0.357422 17.3333 3.51456 15.619 6.48599 14.2857L6.76456 14.1428C6.99671 14.0476 7.22885 14.0476 7.46099 14.1905C8.66814 15 10.0146 15.4286 11.4539 15.4286C12.8931 15.4286 14.286 14.9524 15.4467 14.1905C15.6789 14.0476 15.911 14.0476 16.1431 14.1428L16.4217 14.2857C19.486 15.619 22.6431 17.2857 22.6431 20.0952ZM11.5003 0.571411C14.5646 0.571411 17.0253 3.38093 17.0253 6.85713C17.0253 10.3333 14.5646 13.1428 11.5003 13.1428C8.436 13.1428 5.97528 10.3333 5.97528 6.85713C5.97528 3.38093 8.436 0.571411 11.5003 0.571411Z" fill="white"/>
</svg>
