<svg width="31" height="31" viewBox="0 0 31 31" fill="none" xmlns="http://www.w3.org/2000/svg">
<path d="M27.9971 28.43H2.33309V2.95227H17.7548L20.0879 0.636108H2.33309C1.71432 0.636108 1.12089 0.880131 0.683347 1.3145C0.245807 1.74886 0 2.33798 0 2.95227V28.43C0 29.0443 0.245807 29.6334 0.683347 30.0678C1.12089 30.5021 1.71432 30.7462 2.33309 30.7462H27.9971C28.6159 30.7462 29.2093 30.5021 29.6469 30.0678C30.0844 29.6334 30.3302 29.0443 30.3302 28.43V11.0588L27.9971 13.375V28.43Z" fill="white"/>
<path d="M27.9971 28.43H2.33309V2.95227H17.7548L20.0879 0.636108H2.33309C1.71432 0.636108 1.12089 0.880131 0.683347 1.3145C0.245807 1.74886 0 2.33798 0 2.95227V28.43C0 29.0443 0.245807 29.6334 0.683347 30.0678C1.12089 30.5021 1.71432 30.7462 2.33309 30.7462H27.9971C28.6159 30.7462 29.2093 30.5021 29.6469 30.0678C30.0844 29.6334 30.3302 29.0443 30.3302 28.43V11.0588L27.9971 13.375V28.43Z" fill="#698996"/>
</svg>
