<svg width="210" height="48" viewBox="0 0 210 48" fill="none" xmlns="http://www.w3.org/2000/svg">
<g filter="url(#filter0_d)">
<g filter="url(#filter1_d)">
<rect x="4" width="201.201" height="39.3655" rx="9.71988" fill="#E6BEAE"/>
</g>
<path d="M30.9232 11.7588L33.8625 19.0196L36.6268 11.7588H39.6361L33.7575 25.2306L27.8789 11.7588H30.9232ZM41.8638 11.7588H44.4007V24.6357H41.8638V11.7588ZM47.7242 24.6357V11.7588H51.5733C52.868 11.7588 53.9702 11.9513 54.88 12.3362C55.7898 12.7211 56.5188 13.2343 57.067 13.8758C57.6268 14.5173 58.0351 15.2347 58.2917 16.0278C58.5483 16.821 58.6766 17.6199 58.6766 18.4247C58.6766 19.3812 58.5016 20.2443 58.1517 21.0141C57.8135 21.7723 57.3469 22.4254 56.752 22.9736C56.1572 23.5102 55.469 23.9242 54.6875 24.2158C53.9061 24.4958 53.0779 24.6357 52.2031 24.6357H47.7242ZM50.2611 22.1863H51.7657C53.0488 22.1863 54.081 21.8539 54.8625 21.1891C55.6556 20.5242 56.0522 19.5445 56.0522 18.2498C56.0522 17.41 55.9122 16.7276 55.6323 16.2028C55.364 15.6662 55.0258 15.2522 54.6176 14.9606C54.221 14.669 53.8128 14.4707 53.3929 14.3657C52.973 14.2491 52.6172 14.1908 52.3256 14.1908H50.2611V22.1863ZM61.2219 11.7588H70.0048V14.2083H63.7588V16.9551H69.2875V19.4045H63.7588V22.1863H70.2498V24.6357H61.2219V11.7588ZM72.0871 18.2148C72.0871 17.3283 72.2562 16.4885 72.5945 15.6954C72.9327 14.9023 73.3993 14.2024 73.9941 13.5959C74.6007 12.9777 75.3005 12.4937 76.0936 12.1438C76.8868 11.7938 77.7382 11.6189 78.648 11.6189C79.5461 11.6189 80.3918 11.7938 81.1849 12.1438C81.978 12.4937 82.6779 12.9777 83.2844 13.5959C83.9026 14.2024 84.3808 14.9023 84.7191 15.6954C85.069 16.4885 85.2439 17.3283 85.2439 18.2148C85.2439 19.1246 85.069 19.976 84.7191 20.7692C84.3808 21.5623 83.9026 22.2621 83.2844 22.8687C82.6779 23.4635 81.978 23.9301 81.1849 24.2683C80.3918 24.6066 79.5461 24.7757 78.648 24.7757C77.7382 24.7757 76.8868 24.6066 76.0936 24.2683C75.3005 23.9301 74.6007 23.4635 73.9941 22.8687C73.3993 22.2621 72.9327 21.5623 72.5945 20.7692C72.2562 19.976 72.0871 19.1246 72.0871 18.2148ZM74.7115 18.2148C74.7115 18.9729 74.8864 19.6669 75.2363 20.2968C75.5979 20.915 76.082 21.4107 76.6885 21.7839C77.295 22.1455 77.9773 22.3263 78.7355 22.3263C79.4703 22.3263 80.1293 22.1455 80.7125 21.7839C81.3074 21.4107 81.7739 20.915 82.1122 20.2968C82.4504 19.6669 82.6196 18.9729 82.6196 18.2148C82.6196 17.4333 82.4446 16.7335 82.0947 16.1153C81.7448 15.4854 81.2724 14.9897 80.6775 14.6282C80.0827 14.2549 79.412 14.0683 78.6655 14.0683C77.919 14.0683 77.2484 14.2549 76.6535 14.6282C76.0586 14.9897 75.5863 15.4854 75.2363 16.1153C74.8864 16.7335 74.7115 17.4333 74.7115 18.2148ZM93.4627 24.6357V11.7588H97.3118C98.6065 11.7588 99.7087 11.9513 100.618 12.3362C101.528 12.7211 102.257 13.2343 102.805 13.8758C103.365 14.5173 103.774 15.2347 104.03 16.0278C104.287 16.821 104.415 17.6199 104.415 18.4247C104.415 19.3812 104.24 20.2443 103.89 21.0141C103.552 21.7723 103.085 22.4254 102.491 22.9736C101.896 23.5102 101.208 23.9242 100.426 24.2158C99.6445 24.4958 98.8164 24.6357 97.9416 24.6357H93.4627ZM95.9996 22.1863H97.5042C98.7873 22.1863 99.8195 21.8539 100.601 21.1891C101.394 20.5242 101.791 19.5445 101.791 18.2498C101.791 17.41 101.651 16.7276 101.371 16.2028C101.103 15.6662 100.764 15.2522 100.356 14.9606C99.9595 14.669 99.5512 14.4707 99.1313 14.3657C98.7114 14.2491 98.3557 14.1908 98.0641 14.1908H95.9996V22.1863ZM104.637 24.6357L110.446 11.2515H110.585L116.394 24.6357H113.455L112.458 22.1163H108.189L107.139 24.6357H104.637ZM109.081 19.9819H111.618L110.376 16.8501L109.081 19.9819ZM116.354 11.7588H125.032V14.2083H121.9V24.6357H119.363V14.2083H116.354V11.7588ZM124.986 24.6357L130.795 11.2515H130.935L136.743 24.6357H133.804L132.807 22.1163H128.538L127.488 24.6357H124.986ZM129.43 19.9819H131.967L130.725 16.8501L129.43 19.9819ZM142.399 11.7588C143.741 11.7588 144.808 12.0329 145.601 12.5811C146.394 13.1177 146.791 13.9225 146.791 14.9956C146.791 15.6487 146.651 16.2144 146.371 16.6927C146.103 17.1709 145.729 17.5558 145.251 17.8474C145.916 18.1623 146.441 18.5764 146.826 19.0896C147.211 19.5911 147.403 20.1743 147.403 20.8392C147.403 21.539 147.275 22.1338 147.018 22.6237C146.773 23.1019 146.435 23.4927 146.003 23.7959C145.584 24.0875 145.105 24.3033 144.569 24.4433C144.032 24.5716 143.478 24.6357 142.907 24.6357H138.62V11.7588H142.399ZM142.697 17.0251C143.198 17.0251 143.566 16.8734 143.799 16.5702C144.044 16.2669 144.166 15.9228 144.166 15.5379C144.166 15.0947 144.015 14.7623 143.712 14.5407C143.42 14.3191 143.023 14.2083 142.522 14.2083H141.157V17.0251H142.697ZM142.784 22.2738C143.344 22.2738 143.817 22.163 144.201 21.9414C144.586 21.7081 144.779 21.3407 144.779 20.8392C144.779 20.4659 144.674 20.186 144.464 19.9994C144.254 19.8011 143.98 19.6669 143.642 19.597C143.315 19.5153 142.971 19.4745 142.609 19.4745H141.157V22.2738H142.784ZM148.052 24.6357L153.86 11.2515H154L159.809 24.6357H156.87L155.872 22.1163H151.603L150.554 24.6357H148.052ZM152.496 19.9819H155.033L153.79 16.8501L152.496 19.9819ZM168.562 14.8731C168.072 14.6048 167.57 14.3832 167.057 14.2083C166.556 14.0333 166.083 13.9458 165.64 13.9458C165.092 13.9458 164.66 14.0566 164.345 14.2782C164.03 14.4999 163.873 14.8323 163.873 15.2755C163.873 15.5788 163.99 15.8529 164.223 16.0978C164.468 16.3311 164.777 16.541 165.15 16.7276C165.535 16.9143 165.932 17.0834 166.34 17.235C166.841 17.4216 167.325 17.6608 167.792 17.9524C168.259 18.2323 168.643 18.623 168.947 19.1246C169.25 19.6145 169.402 20.2676 169.402 21.0841C169.402 21.7373 169.233 22.3438 168.894 22.9037C168.556 23.4635 168.06 23.9184 167.407 24.2683C166.754 24.6066 165.949 24.7757 164.993 24.7757C164.258 24.7757 163.506 24.6649 162.736 24.4433C161.978 24.2217 161.26 23.8718 160.584 23.3935L161.703 21.4165C162.147 21.7431 162.654 22.0114 163.226 22.2213C163.797 22.4313 164.31 22.5362 164.765 22.5362C165.069 22.5362 165.372 22.4954 165.675 22.4138C165.99 22.3205 166.247 22.1688 166.445 21.9589C166.655 21.7489 166.76 21.4573 166.76 21.0841C166.76 20.6992 166.573 20.3668 166.2 20.0868C165.838 19.7952 165.401 19.5503 164.888 19.352C164.491 19.2004 164.083 19.0254 163.663 18.8271C163.243 18.6289 162.847 18.3897 162.473 18.1098C162.112 17.8182 161.814 17.4625 161.581 17.0426C161.359 16.611 161.249 16.0861 161.249 15.468C161.249 14.7215 161.412 14.0741 161.738 13.5259C162.077 12.9777 162.549 12.5462 163.156 12.2312C163.762 11.9046 164.462 11.7239 165.255 11.6889C166.293 11.6889 167.133 11.8113 167.775 12.0563C168.428 12.3012 169.011 12.5928 169.524 12.9311L168.562 14.8731ZM171.886 11.7588H180.669V14.2083H174.423V16.9551H179.952V19.4045H174.423V22.1863H180.914V24.6357H171.886V11.7588Z" fill="white"/>
</g>
<defs>
<filter id="filter0_d" x="0" y="0" width="209.201" height="47.3655" filterUnits="userSpaceOnUse" color-interpolation-filters="sRGB">
<feFlood flood-opacity="0" result="BackgroundImageFix"/>
<feColorMatrix in="SourceAlpha" type="matrix" values="0 0 0 0 0 0 0 0 0 0 0 0 0 0 0 0 0 0 127 0" result="hardAlpha"/>
<feOffset dy="4"/>
<feGaussianBlur stdDeviation="2"/>
<feColorMatrix type="matrix" values="0 0 0 0 0 0 0 0 0 0 0 0 0 0 0 0 0 0 0.25 0"/>
<feBlend mode="normal" in2="BackgroundImageFix" result="effect1_dropShadow"/>
<feBlend mode="normal" in="SourceGraphic" in2="effect1_dropShadow" result="shape"/>
</filter>
<filter id="filter1_d" x="2.05602" y="0" width="205.089" height="43.2535" filterUnits="userSpaceOnUse" color-interpolation-filters="sRGB">
<feFlood flood-opacity="0" result="BackgroundImageFix"/>
<feColorMatrix in="SourceAlpha" type="matrix" values="0 0 0 0 0 0 0 0 0 0 0 0 0 0 0 0 0 0 127 0" result="hardAlpha"/>
<feOffset dy="1.94398"/>
<feGaussianBlur stdDeviation="0.971988"/>
<feColorMatrix type="matrix" values="0 0 0 0 0 0 0 0 0 0 0 0 0 0 0 0 0 0 0.25 0"/>
<feBlend mode="normal" in2="BackgroundImageFix" result="effect1_dropShadow"/>
<feBlend mode="normal" in="SourceGraphic" in2="effect1_dropShadow" result="shape"/>
</filter>
</defs>
</svg>
