<svg width="95" height="55" viewBox="0 0 95 55" fill="none" xmlns="http://www.w3.org/2000/svg">
<g filter="url(#filter0_d)">
<g filter="url(#filter1_d)">
<rect x="4.18457" y="0.917725" width="86.5258" height="45.8295" rx="4.82619" fill="#E6BEAE"/>
</g>
<path d="M21.4716 27.9486C20.6479 27.9589 19.9118 27.7633 19.2631 27.3617C18.6248 26.9602 18.1151 26.3733 17.7342 25.6012C17.3635 24.829 17.1782 23.8869 17.1782 22.7749C17.1782 21.56 17.3584 20.5716 17.7187 19.8097C18.0791 19.0478 18.5785 18.4919 19.2168 18.1418C19.8654 17.7814 20.617 17.6064 21.4716 17.6167C22.285 17.6064 23.016 17.802 23.6646 18.2036C24.3133 18.6051 24.8229 19.192 25.1935 19.9642C25.5642 20.7261 25.7495 21.663 25.7495 22.7749C25.7495 23.9178 25.5591 24.8753 25.1781 25.6475C24.8075 26.4197 24.2978 27.0014 23.6492 27.3926C23.0108 27.7736 22.285 27.9589 21.4716 27.9486ZM21.4561 26.2343C22.0224 26.2343 22.4806 26.0851 22.8306 25.7865C23.191 25.4879 23.4535 25.0761 23.6183 24.551C23.7933 24.0156 23.8808 23.4081 23.8808 22.7286C23.8808 22.0697 23.7933 21.488 23.6183 20.9835C23.4535 20.4687 23.191 20.0671 22.8306 19.7788C22.4703 19.4906 22.0121 19.3464 21.4561 19.3464C20.8899 19.3464 20.4317 19.4957 20.0816 19.7943C19.7316 20.0826 19.469 20.4841 19.294 20.9989C19.1293 21.5137 19.0469 22.1057 19.0469 22.7749C19.0469 23.4339 19.1293 24.0259 19.294 24.551C19.469 25.0761 19.7316 25.4879 20.0816 25.7865C20.4317 26.0851 20.8899 26.2343 21.4561 26.2343ZM31.2784 27.9486C30.4547 27.9589 29.7186 27.7633 29.0699 27.3617C28.4316 26.9602 27.922 26.3733 27.541 25.6012C27.1704 24.829 26.985 23.8869 26.985 22.7749C26.985 21.56 27.1652 20.5716 27.5256 19.8097C27.8859 19.0478 28.3853 18.4919 29.0236 18.1418C29.6723 17.7814 30.4239 17.6064 31.2784 17.6167C32.0918 17.6064 32.8228 17.802 33.4714 18.2036C34.1201 18.6051 34.6297 19.192 35.0004 19.9642C35.371 20.7261 35.5563 21.663 35.5563 22.7749C35.5563 23.9178 35.3659 24.8753 34.9849 25.6475C34.6143 26.4197 34.1046 27.0014 33.456 27.3926C32.8176 27.7736 32.0918 27.9589 31.2784 27.9486ZM31.263 26.2343C31.8292 26.2343 32.2874 26.0851 32.6375 25.7865C32.9978 25.4879 33.2604 25.0761 33.4251 24.551C33.6001 24.0156 33.6876 23.4081 33.6876 22.7286C33.6876 22.0697 33.6001 21.488 33.4251 20.9835C33.2604 20.4687 32.9978 20.0671 32.6375 19.7788C32.2771 19.4906 31.8189 19.3464 31.263 19.3464C30.6967 19.3464 30.2385 19.4957 29.8885 19.7943C29.5384 20.0826 29.2759 20.4841 29.1008 20.9989C28.9361 21.5137 28.8537 22.1057 28.8537 22.7749C28.8537 23.4339 28.9361 24.0259 29.1008 24.551C29.2759 25.0761 29.5384 25.4879 29.8885 25.7865C30.2385 26.0851 30.6967 26.2343 31.263 26.2343ZM36.6529 22.6977C36.6529 22.43 36.7507 22.2087 36.9463 22.0336C37.1419 21.8483 37.3581 21.7556 37.5949 21.7556C37.8111 21.7556 38.0171 21.8483 38.2127 22.0336C38.4083 22.2087 38.5061 22.43 38.5061 22.6977C38.5061 22.986 38.4083 23.2177 38.2127 23.3927C38.0171 23.5574 37.8111 23.6398 37.5949 23.6398C37.3581 23.6398 37.1419 23.5574 36.9463 23.3927C36.7507 23.2177 36.6529 22.986 36.6529 22.6977ZM36.6529 26.9757C36.6529 26.7183 36.7507 26.4969 36.9463 26.3116C37.1419 26.1262 37.3581 26.0336 37.5949 26.0336C37.8111 26.0336 38.0171 26.1262 38.2127 26.3116C38.4083 26.4969 38.5061 26.7183 38.5061 26.9757C38.5061 27.2639 38.4083 27.4956 38.2127 27.6706C38.0171 27.8354 37.8111 27.9177 37.5949 27.9177C37.3581 27.9177 37.1419 27.8354 36.9463 27.6706C36.7507 27.4956 36.6529 27.2639 36.6529 26.9757ZM43.9846 27.9486C43.1609 27.9589 42.4247 27.7633 41.7761 27.3617C41.1378 26.9602 40.6281 26.3733 40.2472 25.6012C39.8765 24.829 39.6912 23.8869 39.6912 22.7749C39.6912 21.56 39.8714 20.5716 40.2317 19.8097C40.5921 19.0478 41.0914 18.4919 41.7298 18.1418C42.3784 17.7814 43.13 17.6064 43.9846 17.6167C44.7979 17.6064 45.5289 17.802 46.1776 18.2036C46.8262 18.6051 47.3359 19.192 47.7065 19.9642C48.0772 20.7261 48.2625 21.663 48.2625 22.7749C48.2625 23.9178 48.072 24.8753 47.6911 25.6475C47.3204 26.4197 46.8108 27.0014 46.1621 27.3926C45.5238 27.7736 44.7979 27.9589 43.9846 27.9486ZM43.9691 26.2343C44.5354 26.2343 44.9936 26.0851 45.3436 25.7865C45.704 25.4879 45.9665 25.0761 46.1313 24.551C46.3063 24.0156 46.3938 23.4081 46.3938 22.7286C46.3938 22.0697 46.3063 21.488 46.1313 20.9835C45.9665 20.4687 45.704 20.0671 45.3436 19.7788C44.9833 19.4906 44.5251 19.3464 43.9691 19.3464C43.4028 19.3464 42.9447 19.4957 42.5946 19.7943C42.2446 20.0826 41.982 20.4841 41.807 20.9989C41.6423 21.5137 41.5599 22.1057 41.5599 22.7749C41.5599 23.4339 41.6423 24.0259 41.807 24.551C41.982 25.0761 42.2446 25.4879 42.5946 25.7865C42.9447 26.0851 43.4028 26.2343 43.9691 26.2343ZM53.7914 27.9486C52.9677 27.9589 52.2316 27.7633 51.5829 27.3617C50.9446 26.9602 50.4349 26.3733 50.054 25.6012C49.6833 24.829 49.498 23.8869 49.498 22.7749C49.498 21.56 49.6782 20.5716 50.0385 19.8097C50.3989 19.0478 50.8982 18.4919 51.5366 18.1418C52.1852 17.7814 52.9368 17.6064 53.7914 17.6167C54.6048 17.6064 55.3358 17.802 55.9844 18.2036C56.633 18.6051 57.1427 19.192 57.5133 19.9642C57.884 20.7261 58.0693 21.663 58.0693 22.7749C58.0693 23.9178 57.8788 24.8753 57.4979 25.6475C57.1272 26.4197 56.6176 27.0014 55.969 27.3926C55.3306 27.7736 54.6048 27.9589 53.7914 27.9486ZM53.7759 26.2343C54.3422 26.2343 54.8004 26.0851 55.1504 25.7865C55.5108 25.4879 55.7733 25.0761 55.9381 24.551C56.1131 24.0156 56.2006 23.4081 56.2006 22.7286C56.2006 22.0697 56.1131 21.488 55.9381 20.9835C55.7733 20.4687 55.5108 20.0671 55.1504 19.7788C54.7901 19.4906 54.3319 19.3464 53.7759 19.3464C53.2097 19.3464 52.7515 19.4957 52.4014 19.7943C52.0514 20.0826 51.7888 20.4841 51.6138 20.9989C51.4491 21.5137 51.3667 22.1057 51.3667 22.7749C51.3667 23.4339 51.4491 24.0259 51.6138 24.551C51.7888 25.0761 52.0514 25.4879 52.4014 25.7865C52.7515 26.0851 53.2097 26.2343 53.7759 26.2343ZM59.1658 22.6977C59.1658 22.43 59.2636 22.2087 59.4593 22.0336C59.6549 21.8483 59.8711 21.7556 60.1079 21.7556C60.3241 21.7556 60.53 21.8483 60.7256 22.0336C60.9213 22.2087 61.0191 22.43 61.0191 22.6977C61.0191 22.986 60.9213 23.2177 60.7256 23.3927C60.53 23.5574 60.3241 23.6398 60.1079 23.6398C59.8711 23.6398 59.6549 23.5574 59.4593 23.3927C59.2636 23.2177 59.1658 22.986 59.1658 22.6977ZM59.1658 26.9757C59.1658 26.7183 59.2636 26.4969 59.4593 26.3116C59.6549 26.1262 59.8711 26.0336 60.1079 26.0336C60.3241 26.0336 60.53 26.1262 60.7256 26.3116C60.9213 26.4969 61.0191 26.7183 61.0191 26.9757C61.0191 27.2639 60.9213 27.4956 60.7256 27.6706C60.53 27.8354 60.3241 27.9177 60.1079 27.9177C59.8711 27.9177 59.6549 27.8354 59.4593 27.6706C59.2636 27.4956 59.1658 27.2639 59.1658 26.9757ZM65.4319 28.0413C64.8553 28.0413 64.2994 27.9383 63.764 27.7324C63.2389 27.5162 62.8219 27.2536 62.513 26.9448L63.4551 25.5239C63.6507 25.7607 63.9184 25.9512 64.2582 26.0954C64.6082 26.2395 64.948 26.3116 65.2775 26.3116C65.7614 26.3116 66.1681 26.1571 66.4975 25.8483C66.827 25.5394 66.9917 25.1224 66.9917 24.5973C66.9917 24.031 66.8321 23.5677 66.513 23.2074C66.1938 22.847 65.7408 22.6668 65.1539 22.6668C64.8142 22.6668 64.4898 22.7132 64.181 22.8058C63.8824 22.8985 63.5581 23.0478 63.208 23.2537H63.1926V17.7248H68.15V19.4545H64.7369V21.246C65.0149 21.1842 65.2981 21.1533 65.5863 21.1533C66.2865 21.1533 66.8785 21.3129 67.3624 21.6321C67.8463 21.941 68.2118 22.3528 68.4589 22.8676C68.7163 23.3721 68.845 23.9281 68.845 24.5355C68.845 25.1945 68.6957 25.7916 68.3971 26.327C68.0985 26.8521 67.6918 27.2691 67.1771 27.578C66.6623 27.8868 66.0805 28.0413 65.4319 28.0413ZM70.0416 25.5548V25.5394L76.389 17.6013H76.4045V24.1803H77.6863V25.5548H76.4045V27.9177H74.5976V25.5548H70.0416ZM74.5976 24.1803V21.7402L72.7134 24.1803H74.5976Z" fill="white"/>
</g>
<defs>
<filter id="filter0_d" x="0.18457" y="0.917725" width="94.5258" height="53.8295" filterUnits="userSpaceOnUse" color-interpolation-filters="sRGB">
<feFlood flood-opacity="0" result="BackgroundImageFix"/>
<feColorMatrix in="SourceAlpha" type="matrix" values="0 0 0 0 0 0 0 0 0 0 0 0 0 0 0 0 0 0 127 0" result="hardAlpha"/>
<feOffset dy="4"/>
<feGaussianBlur stdDeviation="2"/>
<feColorMatrix type="matrix" values="0 0 0 0 0 0 0 0 0 0 0 0 0 0 0 0 0 0 0.25 0"/>
<feBlend mode="normal" in2="BackgroundImageFix" result="effect1_dropShadow"/>
<feBlend mode="normal" in="SourceGraphic" in2="effect1_dropShadow" result="shape"/>
</filter>
<filter id="filter1_d" x="2.25409" y="0.917725" width="90.3868" height="49.6904" filterUnits="userSpaceOnUse" color-interpolation-filters="sRGB">
<feFlood flood-opacity="0" result="BackgroundImageFix"/>
<feColorMatrix in="SourceAlpha" type="matrix" values="0 0 0 0 0 0 0 0 0 0 0 0 0 0 0 0 0 0 127 0" result="hardAlpha"/>
<feOffset dy="1.93048"/>
<feGaussianBlur stdDeviation="0.965238"/>
<feColorMatrix type="matrix" values="0 0 0 0 0 0 0 0 0 0 0 0 0 0 0 0 0 0 0.25 0"/>
<feBlend mode="normal" in2="BackgroundImageFix" result="effect1_dropShadow"/>
<feBlend mode="normal" in="SourceGraphic" in2="effect1_dropShadow" result="shape"/>
</filter>
</defs>
</svg>
