<svg width="94" height="47" viewBox="0 0 94 47" fill="none" xmlns="http://www.w3.org/2000/svg">
<g filter="url(#filter0_d)">
<g filter="url(#filter1_d)">
<rect x="4.96387" y="0.588989" width="84.9585" height="37.5984" rx="4.82619" fill="#E6BEAE"/>
</g>
<path d="M21.4673 23.6199C20.6436 23.6302 19.9074 23.4346 19.2588 23.033C18.6204 22.6315 18.1108 22.0446 17.7299 21.2724C17.3592 20.5002 17.1739 19.5582 17.1739 18.4462C17.1739 17.2313 17.3541 16.2429 17.7144 15.481C18.0748 14.7191 18.5741 14.1631 19.2125 13.8131C19.8611 13.4527 20.6127 13.2777 21.4673 13.288C22.2806 13.2777 23.0116 13.4733 23.6603 13.8748C24.3089 14.2764 24.8186 14.8632 25.1892 15.6354C25.5599 16.3973 25.7452 17.3342 25.7452 18.4462C25.7452 19.589 25.5547 20.5466 25.1738 21.3187C24.8031 22.0909 24.2935 22.6727 23.6448 23.0639C23.0065 23.4448 22.2806 23.6302 21.4673 23.6199ZM21.4518 21.9056C22.0181 21.9056 22.4763 21.7563 22.8263 21.4577C23.1867 21.1592 23.4492 20.7473 23.6139 20.2222C23.789 19.6869 23.8765 19.0794 23.8765 18.3999C23.8765 17.7409 23.789 17.1592 23.6139 16.6547C23.4492 16.1399 23.1867 15.7384 22.8263 15.4501C22.466 15.1618 22.0078 15.0177 21.4518 15.0177C20.8855 15.0177 20.4274 15.167 20.0773 15.4655C19.7273 15.7538 19.4647 16.1554 19.2897 16.6702C19.1249 17.185 19.0426 17.777 19.0426 18.4462C19.0426 19.1051 19.1249 19.6971 19.2897 20.2222C19.4647 20.7473 19.7273 21.1592 20.0773 21.4577C20.4274 21.7563 20.8855 21.9056 21.4518 21.9056ZM31.2741 23.6199C30.4504 23.6302 29.7142 23.4346 29.0656 23.033C28.4273 22.6315 27.9176 22.0446 27.5367 21.2724C27.166 20.5002 26.9807 19.5582 26.9807 18.4462C26.9807 17.2313 27.1609 16.2429 27.5212 15.481C27.8816 14.7191 28.3809 14.1631 29.0193 13.8131C29.6679 13.4527 30.4195 13.2777 31.2741 13.288C32.0874 13.2777 32.8185 13.4733 33.4671 13.8748C34.1157 14.2764 34.6254 14.8632 34.996 15.6354C35.3667 16.3973 35.552 17.3342 35.552 18.4462C35.552 19.589 35.3615 20.5466 34.9806 21.3187C34.6099 22.0909 34.1003 22.6727 33.4517 23.0639C32.8133 23.4448 32.0874 23.6302 31.2741 23.6199ZM31.2586 21.9056C31.8249 21.9056 32.2831 21.7563 32.6331 21.4577C32.9935 21.1592 33.256 20.7473 33.4208 20.2222C33.5958 19.6869 33.6833 19.0794 33.6833 18.3999C33.6833 17.7409 33.5958 17.1592 33.4208 16.6547C33.256 16.1399 32.9935 15.7384 32.6331 15.4501C32.2728 15.1618 31.8146 15.0177 31.2586 15.0177C30.6924 15.0177 30.2342 15.167 29.8841 15.4655C29.5341 15.7538 29.2715 16.1554 29.0965 16.6702C28.9318 17.185 28.8494 17.777 28.8494 18.4462C28.8494 19.1051 28.9318 19.6971 29.0965 20.2222C29.2715 20.7473 29.5341 21.1592 29.8841 21.4577C30.2342 21.7563 30.6924 21.9056 31.2586 21.9056ZM36.6485 18.369C36.6485 18.1013 36.7463 17.8799 36.942 17.7049C37.1376 17.5196 37.3538 17.4269 37.5906 17.4269C37.8068 17.4269 38.0127 17.5196 38.2083 17.7049C38.404 17.8799 38.5018 18.1013 38.5018 18.369C38.5018 18.6573 38.404 18.8889 38.2083 19.064C38.0127 19.2287 37.8068 19.3111 37.5906 19.3111C37.3538 19.3111 37.1376 19.2287 36.942 19.064C36.7463 18.8889 36.6485 18.6573 36.6485 18.369ZM36.6485 22.6469C36.6485 22.3895 36.7463 22.1682 36.942 21.9828C37.1376 21.7975 37.3538 21.7048 37.5906 21.7048C37.8068 21.7048 38.0127 21.7975 38.2083 21.9828C38.404 22.1682 38.5018 22.3895 38.5018 22.6469C38.5018 22.9352 38.404 23.1669 38.2083 23.3419C38.0127 23.5066 37.8068 23.589 37.5906 23.589C37.3538 23.589 37.1376 23.5066 36.942 23.3419C36.7463 23.1669 36.6485 22.9352 36.6485 22.6469ZM43.9802 23.6199C43.1566 23.6302 42.4204 23.4346 41.7718 23.033C41.1334 22.6315 40.6238 22.0446 40.2428 21.2724C39.8722 20.5002 39.6868 19.5582 39.6868 18.4462C39.6868 17.2313 39.867 16.2429 40.2274 15.481C40.5877 14.7191 41.0871 14.1631 41.7254 13.8131C42.3741 13.4527 43.1257 13.2777 43.9802 13.288C44.7936 13.2777 45.5246 13.4733 46.1732 13.8748C46.8219 14.2764 47.3315 14.8632 47.7022 15.6354C48.0728 16.3973 48.2582 17.3342 48.2582 18.4462C48.2582 19.589 48.0677 20.5466 47.6867 21.3187C47.3161 22.0909 46.8064 22.6727 46.1578 23.0639C45.5195 23.4448 44.7936 23.6302 43.9802 23.6199ZM43.9648 21.9056C44.5311 21.9056 44.9892 21.7563 45.3393 21.4577C45.6996 21.1592 45.9622 20.7473 46.1269 20.2222C46.3019 19.6869 46.3895 19.0794 46.3895 18.3999C46.3895 17.7409 46.3019 17.1592 46.1269 16.6547C45.9622 16.1399 45.6996 15.7384 45.3393 15.4501C44.9789 15.1618 44.5208 15.0177 43.9648 15.0177C43.3985 15.0177 42.9403 15.167 42.5903 15.4655C42.2402 15.7538 41.9777 16.1554 41.8027 16.6702C41.6379 17.185 41.5556 17.777 41.5556 18.4462C41.5556 19.1051 41.6379 19.6971 41.8027 20.2222C41.9777 20.7473 42.2402 21.1592 42.5903 21.4577C42.9403 21.7563 43.3985 21.9056 43.9648 21.9056ZM53.787 23.6199C52.9634 23.6302 52.2272 23.4346 51.5786 23.033C50.9402 22.6315 50.4306 22.0446 50.0496 21.2724C49.679 20.5002 49.4937 19.5582 49.4937 18.4462C49.4937 17.2313 49.6738 16.2429 50.0342 15.481C50.3946 14.7191 50.8939 14.1631 51.5322 13.8131C52.1809 13.4527 52.9325 13.2777 53.787 13.288C54.6004 13.2777 55.3314 13.4733 55.9801 13.8748C56.6287 14.2764 57.1384 14.8632 57.509 15.6354C57.8797 16.3973 58.065 17.3342 58.065 18.4462C58.065 19.589 57.8745 20.5466 57.4936 21.3187C57.1229 22.0909 56.6133 22.6727 55.9646 23.0639C55.3263 23.4448 54.6004 23.6302 53.787 23.6199ZM53.7716 21.9056C54.3379 21.9056 54.796 21.7563 55.1461 21.4577C55.5065 21.1592 55.769 20.7473 55.9337 20.2222C56.1088 19.6869 56.1963 19.0794 56.1963 18.3999C56.1963 17.7409 56.1088 17.1592 55.9337 16.6547C55.769 16.1399 55.5065 15.7384 55.1461 15.4501C54.7857 15.1618 54.3276 15.0177 53.7716 15.0177C53.2053 15.0177 52.7472 15.167 52.3971 15.4655C52.047 15.7538 51.7845 16.1554 51.6095 16.6702C51.4447 17.185 51.3624 17.777 51.3624 18.4462C51.3624 19.1051 51.4447 19.6971 51.6095 20.2222C51.7845 20.7473 52.047 21.1592 52.3971 21.4577C52.7472 21.7563 53.2053 21.9056 53.7716 21.9056ZM59.1615 18.369C59.1615 18.1013 59.2593 17.8799 59.4549 17.7049C59.6505 17.5196 59.8668 17.4269 60.1036 17.4269C60.3198 17.4269 60.5257 17.5196 60.7213 17.7049C60.9169 17.8799 61.0147 18.1013 61.0147 18.369C61.0147 18.6573 60.9169 18.8889 60.7213 19.064C60.5257 19.2287 60.3198 19.3111 60.1036 19.3111C59.8668 19.3111 59.6505 19.2287 59.4549 19.064C59.2593 18.8889 59.1615 18.6573 59.1615 18.369ZM59.1615 22.6469C59.1615 22.3895 59.2593 22.1682 59.4549 21.9828C59.6505 21.7975 59.8668 21.7048 60.1036 21.7048C60.3198 21.7048 60.5257 21.7975 60.7213 21.9828C60.9169 22.1682 61.0147 22.3895 61.0147 22.6469C61.0147 22.9352 60.9169 23.1669 60.7213 23.3419C60.5257 23.5066 60.3198 23.589 60.1036 23.589C59.8668 23.589 59.6505 23.5066 59.4549 23.3419C59.2593 23.1669 59.1615 22.9352 59.1615 22.6469ZM65.4276 23.7125C64.851 23.7125 64.295 23.6096 63.7596 23.4037C63.2346 23.1875 62.8176 22.9249 62.5087 22.616L63.4508 21.1952C63.6464 21.432 63.9141 21.6225 64.2538 21.7666C64.6039 21.9108 64.9437 21.9828 65.2731 21.9828C65.757 21.9828 66.1637 21.8284 66.4932 21.5195C66.8227 21.2106 66.9874 20.7937 66.9874 20.2686C66.9874 19.7023 66.8278 19.239 66.5086 18.8786C66.1895 18.5183 65.7364 18.3381 65.1496 18.3381C64.8098 18.3381 64.4855 18.3844 64.1766 18.4771C63.878 18.5698 63.5537 18.719 63.2037 18.925H63.1882V13.3961H68.1457V15.1258H64.7326V16.9173C65.0106 16.8555 65.2937 16.8246 65.582 16.8246C66.2821 16.8246 66.8741 16.9842 67.358 17.3034C67.842 17.6122 68.2075 18.0241 68.4546 18.5389C68.712 19.0434 68.8407 19.5993 68.8407 20.2068C68.8407 20.8657 68.6914 21.4629 68.3928 21.9983C68.0942 22.5234 67.6875 22.9403 67.1727 23.2492C66.6579 23.5581 66.0762 23.7125 65.4276 23.7125ZM70.0373 21.2261V21.2106L76.3847 13.2725H76.4002V19.8516H77.682V21.2261H76.4002V23.589H74.5932V21.2261H70.0373ZM74.5932 19.8516V17.4115L72.7091 19.8516H74.5932Z" fill="white"/>
</g>
<defs>
<filter id="filter0_d" x="0.963867" y="0.588989" width="92.9585" height="45.5984" filterUnits="userSpaceOnUse" color-interpolation-filters="sRGB">
<feFlood flood-opacity="0" result="BackgroundImageFix"/>
<feColorMatrix in="SourceAlpha" type="matrix" values="0 0 0 0 0 0 0 0 0 0 0 0 0 0 0 0 0 0 127 0" result="hardAlpha"/>
<feOffset dy="4"/>
<feGaussianBlur stdDeviation="2"/>
<feColorMatrix type="matrix" values="0 0 0 0 0 0 0 0 0 0 0 0 0 0 0 0 0 0 0.25 0"/>
<feBlend mode="normal" in2="BackgroundImageFix" result="effect1_dropShadow"/>
<feBlend mode="normal" in="SourceGraphic" in2="effect1_dropShadow" result="shape"/>
</filter>
<filter id="filter1_d" x="3.03339" y="0.588989" width="88.8195" height="41.4594" filterUnits="userSpaceOnUse" color-interpolation-filters="sRGB">
<feFlood flood-opacity="0" result="BackgroundImageFix"/>
<feColorMatrix in="SourceAlpha" type="matrix" values="0 0 0 0 0 0 0 0 0 0 0 0 0 0 0 0 0 0 127 0" result="hardAlpha"/>
<feOffset dy="1.93048"/>
<feGaussianBlur stdDeviation="0.965238"/>
<feColorMatrix type="matrix" values="0 0 0 0 0 0 0 0 0 0 0 0 0 0 0 0 0 0 0.25 0"/>
<feBlend mode="normal" in2="BackgroundImageFix" result="effect1_dropShadow"/>
<feBlend mode="normal" in="SourceGraphic" in2="effect1_dropShadow" result="shape"/>
</filter>
</defs>
</svg>
