<svg width="94" height="47" viewBox="0 0 94 47" fill="none" xmlns="http://www.w3.org/2000/svg">
<g filter="url(#filter0_d)">
<g filter="url(#filter1_d)">
<rect x="4.96387" y="0.5625" width="84.9585" height="37.5984" rx="4.82619" fill="#E6BEAE"/>
</g>
<path d="M22.9604 23.5934C22.1367 23.6037 21.4005 23.4081 20.7519 23.0065C20.1136 22.605 19.6039 22.0181 19.223 21.2459C18.8523 20.4737 18.667 19.5317 18.667 18.4197C18.667 17.2048 18.8472 16.2164 19.2075 15.4545C19.5679 14.6926 20.0672 14.1366 20.7056 13.7866C21.3542 13.4262 22.1058 13.2512 22.9604 13.2615C23.7737 13.2512 24.5047 13.4468 25.1534 13.8483C25.802 14.2499 26.3117 14.8367 26.6823 15.6089C27.053 16.3708 27.2383 17.3078 27.2383 18.4197C27.2383 19.5626 27.0478 20.5201 26.6669 21.2923C26.2962 22.0645 25.7866 22.6462 25.1379 23.0374C24.4996 23.4184 23.7737 23.6037 22.9604 23.5934ZM22.9449 21.8791C23.5112 21.8791 23.9694 21.7298 24.3194 21.4313C24.6798 21.1327 24.9423 20.7208 25.1071 20.1958C25.2821 19.6604 25.3696 19.0529 25.3696 18.3734C25.3696 17.7144 25.2821 17.1327 25.1071 16.6282C24.9423 16.1134 24.6798 15.7119 24.3194 15.4236C23.9591 15.1353 23.5009 14.9912 22.9449 14.9912C22.3786 14.9912 21.9205 15.1405 21.5704 15.4391C21.2204 15.7273 20.9578 16.1289 20.7828 16.6437C20.6181 17.1585 20.5357 17.7505 20.5357 18.4197C20.5357 19.0786 20.6181 19.6707 20.7828 20.1958C20.9578 20.7208 21.2204 21.1327 21.5704 21.4313C21.9205 21.7298 22.3786 21.8791 22.9449 21.8791ZM32.7672 23.5934C31.9435 23.6037 31.2074 23.4081 30.5587 23.0065C29.9204 22.605 29.4107 22.0181 29.0298 21.2459C28.6591 20.4737 28.4738 19.5317 28.4738 18.4197C28.4738 17.2048 28.654 16.2164 29.0143 15.4545C29.3747 14.6926 29.874 14.1366 30.5124 13.7866C31.161 13.4262 31.9126 13.2512 32.7672 13.2615C33.5806 13.2512 34.3116 13.4468 34.9602 13.8483C35.6088 14.2499 36.1185 14.8367 36.4891 15.6089C36.8598 16.3708 37.0451 17.3078 37.0451 18.4197C37.0451 19.5626 36.8546 20.5201 36.4737 21.2923C36.103 22.0645 35.5934 22.6462 34.9448 23.0374C34.3064 23.4184 33.5806 23.6037 32.7672 23.5934ZM32.7517 21.8791C33.318 21.8791 33.7762 21.7298 34.1262 21.4313C34.4866 21.1327 34.7491 20.7208 34.9139 20.1958C35.0889 19.6604 35.1764 19.0529 35.1764 18.3734C35.1764 17.7144 35.0889 17.1327 34.9139 16.6282C34.7491 16.1134 34.4866 15.7119 34.1262 15.4236C33.7659 15.1353 33.3077 14.9912 32.7517 14.9912C32.1855 14.9912 31.7273 15.1405 31.3772 15.4391C31.0272 15.7273 30.7646 16.1289 30.5896 16.6437C30.4249 17.1585 30.3425 17.7505 30.3425 18.4197C30.3425 19.0786 30.4249 19.6707 30.5896 20.1958C30.7646 20.7208 31.0272 21.1327 31.3772 21.4313C31.7273 21.7298 32.1855 21.8791 32.7517 21.8791ZM38.1416 18.3425C38.1416 18.0748 38.2394 17.8534 38.4351 17.6784C38.6307 17.4931 38.8469 17.4004 39.0837 17.4004C39.2999 17.4004 39.5058 17.4931 39.7014 17.6784C39.8971 17.8534 39.9949 18.0748 39.9949 18.3425C39.9949 18.6308 39.8971 18.8624 39.7014 19.0375C39.5058 19.2022 39.2999 19.2846 39.0837 19.2846C38.8469 19.2846 38.6307 19.2022 38.4351 19.0375C38.2394 18.8624 38.1416 18.6308 38.1416 18.3425ZM38.1416 22.6204C38.1416 22.363 38.2394 22.1417 38.4351 21.9563C38.6307 21.771 38.8469 21.6784 39.0837 21.6784C39.2999 21.6784 39.5058 21.771 39.7014 21.9563C39.8971 22.1417 39.9949 22.363 39.9949 22.6204C39.9949 22.9087 39.8971 23.1404 39.7014 23.3154C39.5058 23.4801 39.2999 23.5625 39.0837 23.5625C38.8469 23.5625 38.6307 23.4801 38.4351 23.3154C38.2394 23.1404 38.1416 22.9087 38.1416 22.6204ZM40.8093 21.1996V21.1842L47.1567 13.246H47.1721V19.8251H48.454V21.1996H47.1721V23.5625H45.3652V21.1996H40.8093ZM45.3652 19.8251V17.385L43.4811 19.8251H45.3652ZM53.4882 23.6861C52.7778 23.6861 52.1343 23.5213 51.5577 23.1918C50.9914 22.8521 50.5384 22.3682 50.1987 21.7401C49.8692 21.1018 49.7044 20.3399 49.7044 19.4544C49.7044 18.8058 49.828 18.1881 50.0751 17.6012C50.3325 17.0143 50.6723 16.4583 51.0944 15.9333C51.5268 15.3979 52.0159 14.9037 52.5616 14.4507C53.1175 13.9976 53.6941 13.5807 54.2913 13.1997L55.4959 14.5124C54.5795 14.9243 53.8331 15.4185 53.2565 15.995C52.6903 16.5716 52.2784 17.143 52.021 17.7093C52.2784 17.4622 52.5718 17.2769 52.9013 17.1533C53.2411 17.0195 53.6375 16.9526 54.0905 16.9526C54.6053 16.9526 55.0943 17.0967 55.5577 17.385C56.021 17.663 56.3968 18.0491 56.685 18.5433C56.9836 19.0272 57.1329 19.5883 57.1329 20.2266C57.1329 20.9473 56.9579 21.5651 56.6078 22.0799C56.2578 22.5947 55.8048 22.9911 55.2488 23.2691C54.7031 23.5471 54.1162 23.6861 53.4882 23.6861ZM53.411 22.0799C53.9361 22.0799 54.3736 21.9152 54.7237 21.5857C55.084 21.2562 55.2642 20.8032 55.2642 20.2266C55.2642 19.681 55.084 19.2537 54.7237 18.9448C54.3633 18.6256 53.9258 18.466 53.411 18.466C52.8962 18.466 52.4586 18.6205 52.0982 18.9294C51.7379 19.2279 51.5577 19.5883 51.5577 20.0104V20.3193C51.5577 20.6282 51.6401 20.9165 51.8048 21.1842C51.9695 21.4518 52.1909 21.6681 52.4689 21.8328C52.7469 21.9975 53.0609 22.0799 53.411 22.0799ZM58.2415 18.3425C58.2415 18.0748 58.3393 17.8534 58.5349 17.6784C58.7306 17.4931 58.9468 17.4004 59.1836 17.4004C59.3998 17.4004 59.6057 17.4931 59.8013 17.6784C59.9969 17.8534 60.0948 18.0748 60.0948 18.3425C60.0948 18.6308 59.9969 18.8624 59.8013 19.0375C59.6057 19.2022 59.3998 19.2846 59.1836 19.2846C58.9468 19.2846 58.7306 19.2022 58.5349 19.0375C58.3393 18.8624 58.2415 18.6308 58.2415 18.3425ZM58.2415 22.6204C58.2415 22.363 58.3393 22.1417 58.5349 21.9563C58.7306 21.771 58.9468 21.6784 59.1836 21.6784C59.3998 21.6784 59.6057 21.771 59.8013 21.9563C59.9969 22.1417 60.0948 22.363 60.0948 22.6204C60.0948 22.9087 59.9969 23.1404 59.8013 23.3154C59.6057 23.4801 59.3998 23.5625 59.1836 23.5625C58.9468 23.5625 58.7306 23.4801 58.5349 23.3154C58.3393 23.1404 58.2415 22.9087 58.2415 22.6204ZM67.6118 13.3696L65.4342 17.107C65.8666 17.1585 66.2682 17.2923 66.6388 17.5085C67.0095 17.7247 67.3081 18.0491 67.5346 18.4815C67.7714 18.9139 67.8898 19.475 67.8898 20.1649C67.8898 20.8959 67.7199 21.5239 67.3801 22.049C67.0507 22.5741 66.6079 22.9808 66.052 23.2691C65.5063 23.5471 64.9091 23.6861 64.2605 23.6861C63.756 23.6861 63.2463 23.5831 62.7315 23.3772C62.2167 23.1713 61.7998 22.8984 61.4806 22.5587L62.3918 21.076C62.5668 21.2923 62.8191 21.493 63.1485 21.6784C63.4883 21.8637 63.8435 21.9563 64.2141 21.9563C64.6878 21.9563 65.1099 21.7916 65.4805 21.4621C65.8512 21.1224 66.0365 20.6539 66.0365 20.0568C66.0365 19.5317 65.8769 19.1147 65.5578 18.8058C65.2489 18.4866 64.8267 18.327 64.2914 18.327C63.9928 18.327 63.7508 18.3476 63.5655 18.3888C63.3802 18.4197 63.2051 18.4609 63.0404 18.5124L62.9941 18.466L65.0172 15.0993H62.1756V13.3696H67.6118ZM75.5183 13.3696L73.3407 17.107C73.7731 17.1585 74.1747 17.2923 74.5453 17.5085C74.916 17.7247 75.2146 18.0491 75.4411 18.4815C75.6779 18.9139 75.7963 19.475 75.7963 20.1649C75.7963 20.8959 75.6264 21.5239 75.2866 22.049C74.9572 22.5741 74.5144 22.9808 73.9585 23.2691C73.4128 23.5471 72.8156 23.6861 72.167 23.6861C71.6625 23.6861 71.1528 23.5831 70.638 23.3772C70.1233 23.1713 69.7063 22.8984 69.3871 22.5587L70.2983 21.076C70.4733 21.2923 70.7256 21.493 71.055 21.6784C71.3948 21.8637 71.75 21.9563 72.1207 21.9563C72.5943 21.9563 73.0164 21.7916 73.387 21.4621C73.7577 21.1224 73.943 20.6539 73.943 20.0568C73.943 19.5317 73.7834 19.1147 73.4643 18.8058C73.1554 18.4866 72.7333 18.327 72.1979 18.327C71.8993 18.327 71.6573 18.3476 71.472 18.3888C71.2867 18.4197 71.1117 18.4609 70.9469 18.5124L70.9006 18.466L72.9237 15.0993H70.0821V13.3696H75.5183Z" fill="white"/>
</g>
<defs>
<filter id="filter0_d" x="0.963867" y="0.5625" width="92.9585" height="45.5984" filterUnits="userSpaceOnUse" color-interpolation-filters="sRGB">
<feFlood flood-opacity="0" result="BackgroundImageFix"/>
<feColorMatrix in="SourceAlpha" type="matrix" values="0 0 0 0 0 0 0 0 0 0 0 0 0 0 0 0 0 0 127 0" result="hardAlpha"/>
<feOffset dy="4"/>
<feGaussianBlur stdDeviation="2"/>
<feColorMatrix type="matrix" values="0 0 0 0 0 0 0 0 0 0 0 0 0 0 0 0 0 0 0.25 0"/>
<feBlend mode="normal" in2="BackgroundImageFix" result="effect1_dropShadow"/>
<feBlend mode="normal" in="SourceGraphic" in2="effect1_dropShadow" result="shape"/>
</filter>
<filter id="filter1_d" x="3.03339" y="0.5625" width="88.8195" height="41.4594" filterUnits="userSpaceOnUse" color-interpolation-filters="sRGB">
<feFlood flood-opacity="0" result="BackgroundImageFix"/>
<feColorMatrix in="SourceAlpha" type="matrix" values="0 0 0 0 0 0 0 0 0 0 0 0 0 0 0 0 0 0 127 0" result="hardAlpha"/>
<feOffset dy="1.93048"/>
<feGaussianBlur stdDeviation="0.965238"/>
<feColorMatrix type="matrix" values="0 0 0 0 0 0 0 0 0 0 0 0 0 0 0 0 0 0 0.25 0"/>
<feBlend mode="normal" in2="BackgroundImageFix" result="effect1_dropShadow"/>
<feBlend mode="normal" in="SourceGraphic" in2="effect1_dropShadow" result="shape"/>
</filter>
</defs>
</svg>
