<svg width="95" height="54" viewBox="0 0 95 54" fill="none" xmlns="http://www.w3.org/2000/svg">
<g filter="url(#filter0_d)">
<path d="M34.9677 27.1102C34.1441 27.1205 33.4079 26.9249 32.7593 26.5234C32.1209 26.1218 31.6113 25.535 31.2303 24.7628C30.8597 23.9906 30.6744 23.0485 30.6744 21.9366C30.6744 20.7216 30.8545 19.7332 31.2149 18.9713C31.5752 18.2095 32.0746 17.6535 32.7129 17.3034C33.3616 16.9431 34.1132 16.768 34.9677 16.7783C35.7811 16.768 36.5121 16.9637 37.1607 17.3652C37.8094 17.7667 38.319 18.3536 38.6897 19.1258C39.0603 19.8877 39.2457 20.8246 39.2457 21.9366C39.2457 23.0794 39.0552 24.0369 38.6742 24.8091C38.3036 25.5813 37.7939 26.163 37.1453 26.5543C36.507 26.9352 35.7811 27.1205 34.9677 27.1102ZM34.9523 25.396C35.5186 25.396 35.9767 25.2467 36.3268 24.9481C36.6871 24.6495 36.9497 24.2377 37.1144 23.7126C37.2894 23.1772 37.377 22.5698 37.377 21.8902C37.377 21.2313 37.2894 20.6496 37.1144 20.1451C36.9497 19.6303 36.6871 19.2287 36.3268 18.9405C35.9664 18.6522 35.5083 18.508 34.9523 18.508C34.386 18.508 33.9278 18.6573 33.5778 18.9559C33.2277 19.2442 32.9652 19.6457 32.7902 20.1605C32.6254 20.6753 32.5431 21.2673 32.5431 21.9366C32.5431 22.5955 32.6254 23.1875 32.7902 23.7126C32.9652 24.2377 33.2277 24.6495 33.5778 24.9481C33.9278 25.2467 34.386 25.396 34.9523 25.396ZM40.7437 16.8864H43.5699V27.0793H41.763V18.6161H40.7437V16.8864ZM45.6697 21.8593C45.6697 21.5916 45.7675 21.3703 45.9631 21.1953C46.1587 21.0099 46.3749 20.9173 46.6118 20.9173C46.828 20.9173 47.0339 21.0099 47.2295 21.1953C47.4251 21.3703 47.5229 21.5916 47.5229 21.8593C47.5229 22.1476 47.4251 22.3793 47.2295 22.5543C47.0339 22.719 46.828 22.8014 46.6118 22.8014C46.3749 22.8014 46.1587 22.719 45.9631 22.5543C45.7675 22.3793 45.6697 22.1476 45.6697 21.8593ZM45.6697 26.1373C45.6697 25.8799 45.7675 25.6585 45.9631 25.4732C46.1587 25.2879 46.3749 25.1952 46.6118 25.1952C46.828 25.1952 47.0339 25.2879 47.2295 25.4732C47.4251 25.6585 47.5229 25.8799 47.5229 26.1373C47.5229 26.4256 47.4251 26.6572 47.2295 26.8322C47.0339 26.997 46.828 27.0793 46.6118 27.0793C46.3749 27.0793 46.1587 26.997 45.9631 26.8322C45.7675 26.6572 45.6697 26.4256 45.6697 26.1373ZM51.9358 27.2029C51.3592 27.2029 50.8032 27.0999 50.2678 26.894C49.7427 26.6778 49.3258 26.4153 49.0169 26.1064L49.959 24.6856C50.1546 24.9224 50.4223 25.1128 50.762 25.257C51.1121 25.4011 51.4519 25.4732 51.7813 25.4732C52.2652 25.4732 52.6719 25.3188 53.0014 25.0099C53.3309 24.701 53.4956 24.284 53.4956 23.7589C53.4956 23.1927 53.336 22.7293 53.0168 22.369C52.6977 22.0086 52.2446 21.8285 51.6578 21.8285C51.318 21.8285 50.9937 21.8748 50.6848 21.9674C50.3862 22.0601 50.0619 22.2094 49.7119 22.4153H49.6964V16.8864H54.6539V18.6161H51.2408V20.4076C51.5188 20.3458 51.8019 20.315 52.0902 20.315C52.7903 20.315 53.3823 20.4745 53.8662 20.7937C54.3502 21.1026 54.7157 21.5144 54.9628 22.0292C55.2202 22.5337 55.3489 23.0897 55.3489 23.6972C55.3489 24.3561 55.1996 24.9532 54.901 25.4886C54.6024 26.0137 54.1957 26.4307 53.6809 26.7396C53.1661 27.0485 52.5844 27.2029 51.9358 27.2029ZM56.5455 24.7164V24.701L62.8929 16.7629H62.9083V23.3419H64.1902V24.7164H62.9083V27.0793H61.1014V24.7164H56.5455ZM61.1014 23.3419V20.9018L59.2173 23.3419H61.1014Z" fill="white"/>
<g filter="url(#filter1_d)">
<rect x="4.18457" y="0.0793457" width="86.5258" height="45.8295" rx="4.82619" fill="#E6BEAE"/>
</g>
<path d="M24.5257 27.1102C23.702 27.1205 22.9658 26.9249 22.3172 26.5234C21.6789 26.1218 21.1692 25.535 20.7883 24.7628C20.4176 23.9906 20.2323 23.0485 20.2323 21.9366C20.2323 20.7216 20.4125 19.7332 20.7728 18.9713C21.1332 18.2095 21.6325 17.6535 22.2709 17.3034C22.9195 16.9431 23.6711 16.768 24.5257 16.7783C25.339 16.768 26.07 16.9637 26.7187 17.3652C27.3673 17.7667 27.877 18.3536 28.2476 19.1258C28.6183 19.8877 28.8036 20.8246 28.8036 21.9366C28.8036 23.0794 28.6131 24.0369 28.2322 24.8091C27.8615 25.5813 27.3519 26.163 26.7032 26.5543C26.0649 26.9352 25.339 27.1205 24.5257 27.1102ZM24.5102 25.396C25.0765 25.396 25.5347 25.2467 25.8847 24.9481C26.2451 24.6495 26.5076 24.2377 26.6724 23.7126C26.8474 23.1772 26.9349 22.5698 26.9349 21.8902C26.9349 21.2313 26.8474 20.6496 26.6724 20.1451C26.5076 19.6303 26.2451 19.2287 25.8847 18.9405C25.5244 18.6522 25.0662 18.508 24.5102 18.508C23.9439 18.508 23.4858 18.6573 23.1357 18.9559C22.7857 19.2442 22.5231 19.6457 22.3481 20.1605C22.1834 20.6753 22.101 21.2673 22.101 21.9366C22.101 22.5955 22.1834 23.1875 22.3481 23.7126C22.5231 24.2377 22.7857 24.6495 23.1357 24.9481C23.4858 25.2467 23.9439 25.396 24.5102 25.396ZM30.3016 16.8864H33.1279V27.0793H31.3209V18.6161H30.3016V16.8864ZM35.2276 21.8593C35.2276 21.5916 35.3254 21.3703 35.5211 21.1953C35.7167 21.0099 35.9329 20.9173 36.1697 20.9173C36.3859 20.9173 36.5918 21.0099 36.7874 21.1953C36.9831 21.3703 37.0809 21.5916 37.0809 21.8593C37.0809 22.1476 36.9831 22.3793 36.7874 22.5543C36.5918 22.719 36.3859 22.8014 36.1697 22.8014C35.9329 22.8014 35.7167 22.719 35.5211 22.5543C35.3254 22.3793 35.2276 22.1476 35.2276 21.8593ZM35.2276 26.1373C35.2276 25.8799 35.3254 25.6585 35.5211 25.4732C35.7167 25.2879 35.9329 25.1952 36.1697 25.1952C36.3859 25.1952 36.5918 25.2879 36.7874 25.4732C36.9831 25.6585 37.0809 25.8799 37.0809 26.1373C37.0809 26.4256 36.9831 26.6572 36.7874 26.8322C36.5918 26.997 36.3859 27.0793 36.1697 27.0793C35.9329 27.0793 35.7167 26.997 35.5211 26.8322C35.3254 26.6572 35.2276 26.4256 35.2276 26.1373ZM42.5593 27.1102C41.7357 27.1205 40.9995 26.9249 40.3509 26.5234C39.7125 26.1218 39.2029 25.535 38.8219 24.7628C38.4513 23.9906 38.2659 23.0485 38.2659 21.9366C38.2659 20.7216 38.4461 19.7332 38.8065 18.9713C39.1668 18.2095 39.6662 17.6535 40.3045 17.3034C40.9532 16.9431 41.7048 16.768 42.5593 16.7783C43.3727 16.768 44.1037 16.9637 44.7523 17.3652C45.401 17.7667 45.9106 18.3536 46.2813 19.1258C46.6519 19.8877 46.8373 20.8246 46.8373 21.9366C46.8373 23.0794 46.6468 24.0369 46.2658 24.8091C45.8952 25.5813 45.3855 26.163 44.7369 26.5543C44.0986 26.9352 43.3727 27.1205 42.5593 27.1102ZM42.5439 25.396C43.1102 25.396 43.5683 25.2467 43.9184 24.9481C44.2787 24.6495 44.5413 24.2377 44.706 23.7126C44.881 23.1772 44.9686 22.5698 44.9686 21.8902C44.9686 21.2313 44.881 20.6496 44.706 20.1451C44.5413 19.6303 44.2787 19.2287 43.9184 18.9405C43.558 18.6522 43.0999 18.508 42.5439 18.508C41.9776 18.508 41.5194 18.6573 41.1694 18.9559C40.8193 19.2442 40.5568 19.6457 40.3817 20.1605C40.217 20.6753 40.1346 21.2673 40.1346 21.9366C40.1346 22.5955 40.217 23.1875 40.3817 23.7126C40.5568 24.2377 40.8193 24.6495 41.1694 24.9481C41.5194 25.2467 41.9776 25.396 42.5439 25.396ZM51.3005 27.2029C50.724 27.2029 50.168 27.0999 49.6326 26.894C49.1075 26.6778 48.6905 26.4153 48.3816 26.1064L49.3237 24.6856C49.5193 24.9224 49.787 25.1128 50.1268 25.257C50.4768 25.4011 50.8166 25.4732 51.1461 25.4732C51.63 25.4732 52.0367 25.3188 52.3661 25.0099C52.6956 24.701 52.8603 24.284 52.8603 23.7589C52.8603 23.1927 52.7008 22.7293 52.3816 22.369C52.0624 22.0086 51.6094 21.8285 51.0225 21.8285C50.6828 21.8285 50.3584 21.8748 50.0496 21.9674C49.751 22.0601 49.4267 22.2094 49.0766 22.4153H49.0612V16.8864H54.0186V18.6161H50.6055V20.4076C50.8835 20.3458 51.1667 20.315 51.455 20.315C52.1551 20.315 52.7471 20.4745 53.231 20.7937C53.7149 21.1026 54.0804 21.5144 54.3275 22.0292C54.5849 22.5337 54.7136 23.0897 54.7136 23.6972C54.7136 24.3561 54.5643 24.9532 54.2657 25.4886C53.9671 26.0137 53.5605 26.4307 53.0457 26.7396C52.5309 27.0485 51.9492 27.2029 51.3005 27.2029ZM56.1419 21.8593C56.1419 21.5916 56.2397 21.3703 56.4353 21.1953C56.631 21.0099 56.8472 20.9173 57.084 20.9173C57.3002 20.9173 57.5061 21.0099 57.7017 21.1953C57.8974 21.3703 57.9952 21.5916 57.9952 21.8593C57.9952 22.1476 57.8974 22.3793 57.7017 22.5543C57.5061 22.719 57.3002 22.8014 57.084 22.8014C56.8472 22.8014 56.631 22.719 56.4353 22.5543C56.2397 22.3793 56.1419 22.1476 56.1419 21.8593ZM56.1419 26.1373C56.1419 25.8799 56.2397 25.6585 56.4353 25.4732C56.631 25.2879 56.8472 25.1952 57.084 25.1952C57.3002 25.1952 57.5061 25.2879 57.7017 25.4732C57.8974 25.6585 57.9952 25.8799 57.9952 26.1373C57.9952 26.4256 57.8974 26.6572 57.7017 26.8322C57.5061 26.997 57.3002 27.0793 57.084 27.0793C56.8472 27.0793 56.631 26.997 56.4353 26.8322C56.2397 26.6572 56.1419 26.4256 56.1419 26.1373ZM62.408 27.2029C61.8314 27.2029 61.2754 27.0999 60.7401 26.894C60.215 26.6778 59.798 26.4153 59.4891 26.1064L60.4312 24.6856C60.6268 24.9224 60.8945 25.1128 61.2343 25.257C61.5843 25.4011 61.9241 25.4732 62.2536 25.4732C62.7375 25.4732 63.1441 25.3188 63.4736 25.0099C63.8031 24.701 63.9678 24.284 63.9678 23.7589C63.9678 23.1927 63.8082 22.7293 63.4891 22.369C63.1699 22.0086 62.7169 21.8285 62.13 21.8285C61.7902 21.8285 61.4659 21.8748 61.157 21.9674C60.8585 22.0601 60.5341 22.2094 60.1841 22.4153H60.1686V16.8864H65.1261V18.6161H61.713V20.4076C61.991 20.3458 62.2741 20.315 62.5624 20.315C63.2626 20.315 63.8546 20.4745 64.3385 20.7937C64.8224 21.1026 65.1879 21.5144 65.435 22.0292C65.6924 22.5337 65.8211 23.0897 65.8211 23.6972C65.8211 24.3561 65.6718 24.9532 65.3732 25.4886C65.0746 26.0137 64.6679 26.4307 64.1531 26.7396C63.6384 27.0485 63.0566 27.2029 62.408 27.2029ZM70.4154 23.8053C69.9109 23.8053 69.4218 23.6663 68.9482 23.3883C68.4849 23.1103 68.1039 22.7242 67.8054 22.23C67.5171 21.7358 67.3729 21.1747 67.3729 20.5466C67.3729 19.7744 67.548 19.1155 67.898 18.5698C68.2481 18.0241 68.7011 17.6071 69.2571 17.3189C69.8131 17.0203 70.4051 16.871 71.0331 16.871C71.7332 16.871 72.3664 17.0306 72.9327 17.3497C73.5093 17.6586 73.9623 18.091 74.2918 18.647C74.6315 19.203 74.8014 19.8362 74.8014 20.5466C74.8014 21.3703 74.6521 22.1167 74.3535 22.786C74.055 23.4449 73.6586 24.0421 73.1644 24.5774C72.6702 25.1128 72.1245 25.607 71.5273 26.0601C70.9302 26.5028 70.333 26.9198 69.7358 27.311L68.5312 25.9983C69.3652 25.607 70.091 25.1798 70.7088 24.7164C71.3368 24.2531 71.8259 23.7898 72.176 23.3265C71.9495 23.4809 71.6921 23.5993 71.4038 23.6817C71.1155 23.7641 70.786 23.8053 70.4154 23.8053ZM71.0949 22.2918C71.6303 22.2918 72.073 22.1322 72.4231 21.813C72.7731 21.4835 72.9482 21.082 72.9482 20.6084V20.2995C72.9482 19.97 72.8606 19.6715 72.6856 19.4038C72.5209 19.1258 72.2995 18.9044 72.0215 18.7397C71.7538 18.5647 71.445 18.4771 71.0949 18.4771C70.5801 18.4771 70.1425 18.6522 69.7822 19.0022C69.4218 19.342 69.2416 19.8105 69.2416 20.4076C69.2416 20.9945 69.4218 21.4578 69.7822 21.7976C70.1425 22.127 70.5801 22.2918 71.0949 22.2918Z" fill="white"/>
</g>
<defs>
<filter id="filter0_d" x="0.18457" y="0.0793457" width="94.5258" height="53.8295" filterUnits="userSpaceOnUse" color-interpolation-filters="sRGB">
<feFlood flood-opacity="0" result="BackgroundImageFix"/>
<feColorMatrix in="SourceAlpha" type="matrix" values="0 0 0 0 0 0 0 0 0 0 0 0 0 0 0 0 0 0 127 0" result="hardAlpha"/>
<feOffset dy="4"/>
<feGaussianBlur stdDeviation="2"/>
<feColorMatrix type="matrix" values="0 0 0 0 0 0 0 0 0 0 0 0 0 0 0 0 0 0 0.25 0"/>
<feBlend mode="normal" in2="BackgroundImageFix" result="effect1_dropShadow"/>
<feBlend mode="normal" in="SourceGraphic" in2="effect1_dropShadow" result="shape"/>
</filter>
<filter id="filter1_d" x="2.25409" y="0.0793457" width="90.3868" height="49.6904" filterUnits="userSpaceOnUse" color-interpolation-filters="sRGB">
<feFlood flood-opacity="0" result="BackgroundImageFix"/>
<feColorMatrix in="SourceAlpha" type="matrix" values="0 0 0 0 0 0 0 0 0 0 0 0 0 0 0 0 0 0 127 0" result="hardAlpha"/>
<feOffset dy="1.93048"/>
<feGaussianBlur stdDeviation="0.965238"/>
<feColorMatrix type="matrix" values="0 0 0 0 0 0 0 0 0 0 0 0 0 0 0 0 0 0 0.25 0"/>
<feBlend mode="normal" in2="BackgroundImageFix" result="effect1_dropShadow"/>
<feBlend mode="normal" in="SourceGraphic" in2="effect1_dropShadow" result="shape"/>
</filter>
</defs>
</svg>
