<svg width="94" height="46" viewBox="0 0 94 46" fill="none" xmlns="http://www.w3.org/2000/svg">
<g filter="url(#filter0_d)">
<g filter="url(#filter1_d)">
<rect x="4.96387" y="0.0493164" width="84.9585" height="37.5984" rx="4.82619" fill="#E6BEAE"/>
</g>
<path d="M24.3479 23.0802C23.5242 23.0905 22.7881 22.8949 22.1394 22.4933C21.5011 22.0918 20.9914 21.5049 20.6105 20.7327C20.2398 19.9606 20.0545 19.0185 20.0545 17.9065C20.0545 16.6916 20.2347 15.7032 20.595 14.9413C20.9554 14.1794 21.4548 13.6234 22.0931 13.2734C22.7417 12.913 23.4933 12.738 24.3479 12.7483C25.1613 12.738 25.8923 12.9336 26.5409 13.3352C27.1896 13.7367 27.6992 14.3236 28.0698 15.0958C28.4405 15.8577 28.6258 16.7946 28.6258 17.9065C28.6258 19.0494 28.4354 20.0069 28.0544 20.7791C27.6838 21.5513 27.1741 22.133 26.5255 22.5242C25.8871 22.9052 25.1613 23.0905 24.3479 23.0802ZM24.3324 21.3659C24.8987 21.3659 25.3569 21.2167 25.7069 20.9181C26.0673 20.6195 26.3298 20.2077 26.4946 19.6826C26.6696 19.1472 26.7571 18.5397 26.7571 17.8602C26.7571 17.2013 26.6696 16.6195 26.4946 16.115C26.3298 15.6003 26.0673 15.1987 25.7069 14.9104C25.3466 14.6221 24.8884 14.478 24.3324 14.478C23.7662 14.478 23.308 14.6273 22.9579 14.9259C22.6079 15.2142 22.3453 15.6157 22.1703 16.1305C22.0056 16.6453 21.9232 17.2373 21.9232 17.9065C21.9232 18.5655 22.0056 19.1575 22.1703 19.6826C22.3453 20.2077 22.6079 20.6195 22.9579 20.9181C23.308 21.2167 23.7662 21.3659 24.3324 21.3659ZM34.1547 23.0802C33.331 23.0905 32.5949 22.8949 31.9462 22.4933C31.3079 22.0918 30.7983 21.5049 30.4173 20.7327C30.0467 19.9606 29.8613 19.0185 29.8613 17.9065C29.8613 16.6916 30.0415 15.7032 30.4019 14.9413C30.7622 14.1794 31.2616 13.6234 31.8999 13.2734C32.5486 12.913 33.3002 12.738 34.1547 12.7483C34.9681 12.738 35.6991 12.9336 36.3477 13.3352C36.9964 13.7367 37.506 14.3236 37.8767 15.0958C38.2473 15.8577 38.4326 16.7946 38.4326 17.9065C38.4326 19.0494 38.2422 20.0069 37.8612 20.7791C37.4906 21.5513 36.9809 22.133 36.3323 22.5242C35.6939 22.9052 34.9681 23.0905 34.1547 23.0802ZM34.1393 21.3659C34.7055 21.3659 35.1637 21.2167 35.5138 20.9181C35.8741 20.6195 36.1367 20.2077 36.3014 19.6826C36.4764 19.1472 36.5639 18.5397 36.5639 17.8602C36.5639 17.2013 36.4764 16.6195 36.3014 16.115C36.1367 15.6003 35.8741 15.1987 35.5138 14.9104C35.1534 14.6221 34.6952 14.478 34.1393 14.478C33.573 14.478 33.1148 14.6273 32.7648 14.9259C32.4147 15.2142 32.1522 15.6157 31.9771 16.1305C31.8124 16.6453 31.73 17.2373 31.73 17.9065C31.73 18.5655 31.8124 19.1575 31.9771 19.6826C32.1522 20.2077 32.4147 20.6195 32.7648 20.9181C33.1148 21.2167 33.573 21.3659 34.1393 21.3659ZM39.5292 17.8293C39.5292 17.5616 39.627 17.3403 39.8226 17.1652C40.0182 16.9799 40.2344 16.8872 40.4712 16.8872C40.6874 16.8872 40.8934 16.9799 41.089 17.1652C41.2846 17.3403 41.3824 17.5616 41.3824 17.8293C41.3824 18.1176 41.2846 18.3493 41.089 18.5243C40.8934 18.689 40.6874 18.7714 40.4712 18.7714C40.2344 18.7714 40.0182 18.689 39.8226 18.5243C39.627 18.3493 39.5292 18.1176 39.5292 17.8293ZM39.5292 22.1072C39.5292 21.8498 39.627 21.6285 39.8226 21.4432C40.0182 21.2578 40.2344 21.1652 40.4712 21.1652C40.6874 21.1652 40.8934 21.2578 41.089 21.4432C41.2846 21.6285 41.3824 21.8498 41.3824 22.1072C41.3824 22.3955 41.2846 22.6272 41.089 22.8022C40.8934 22.9669 40.6874 23.0493 40.4712 23.0493C40.2344 23.0493 40.0182 22.9669 39.8226 22.8022C39.627 22.6272 39.5292 22.3955 39.5292 22.1072ZM45.7952 23.1729C45.2187 23.1729 44.6627 23.0699 44.1273 22.864C43.6022 22.6478 43.1852 22.3852 42.8764 22.0764L43.8184 20.6555C44.0141 20.8923 44.2817 21.0828 44.6215 21.2269C44.9716 21.3711 45.3113 21.4432 45.6408 21.4432C46.1247 21.4432 46.5314 21.2887 46.8609 20.9798C47.1903 20.671 47.3551 20.254 47.3551 19.7289C47.3551 19.1626 47.1955 18.6993 46.8763 18.339C46.5571 17.9786 46.1041 17.7984 45.5172 17.7984C45.1775 17.7984 44.8532 17.8448 44.5443 17.9374C44.2457 18.0301 43.9214 18.1794 43.5713 18.3853H43.5559V12.8564H48.5133V14.5861H45.1003V16.3776C45.3783 16.3158 45.6614 16.2849 45.9497 16.2849C46.6498 16.2849 47.2418 16.4445 47.7257 16.7637C48.2096 17.0726 48.5751 17.4844 48.8222 17.9992C49.0796 18.5037 49.2083 19.0597 49.2083 19.6671C49.2083 20.3261 49.059 20.9232 48.7604 21.4586C48.4619 21.9837 48.0552 22.4007 47.5404 22.7096C47.0256 23.0184 46.4439 23.1729 45.7952 23.1729ZM57.1076 12.8564L54.93 16.5938C55.3624 16.6453 55.764 16.7791 56.1346 16.9953C56.5053 17.2116 56.8039 17.5359 57.0304 17.9683C57.2672 18.4007 57.3856 18.9619 57.3856 19.6517C57.3856 20.3827 57.2157 21.0107 56.8759 21.5358C56.5465 22.0609 56.1037 22.4676 55.5478 22.7559C55.0021 23.0339 54.4049 23.1729 53.7563 23.1729C53.2518 23.1729 52.7421 23.0699 52.2273 22.864C51.7125 22.6581 51.2956 22.3852 50.9764 22.0455L51.8876 20.5629C52.0626 20.7791 52.3149 20.9798 52.6443 21.1652C52.9841 21.3505 53.3393 21.4432 53.7099 21.4432C54.1836 21.4432 54.6057 21.2784 54.9763 20.949C55.347 20.6092 55.5323 20.1407 55.5323 19.5436C55.5323 19.0185 55.3727 18.6015 55.0536 18.2926C54.7447 17.9735 54.3225 17.8139 53.7872 17.8139C53.4886 17.8139 53.2466 17.8345 53.0613 17.8756C52.876 17.9065 52.7009 17.9477 52.5362 17.9992L52.4899 17.9529L54.513 14.5861H51.6714V12.8564H57.1076ZM58.9051 17.8293C58.9051 17.5616 59.0029 17.3403 59.1985 17.1652C59.3941 16.9799 59.6104 16.8872 59.8472 16.8872C60.0634 16.8872 60.2693 16.9799 60.4649 17.1652C60.6605 17.3403 60.7584 17.5616 60.7584 17.8293C60.7584 18.1176 60.6605 18.3493 60.4649 18.5243C60.2693 18.689 60.0634 18.7714 59.8472 18.7714C59.6104 18.7714 59.3941 18.689 59.1985 18.5243C59.0029 18.3493 58.9051 18.1176 58.9051 17.8293ZM58.9051 22.1072C58.9051 21.8498 59.0029 21.6285 59.1985 21.4432C59.3941 21.2578 59.6104 21.1652 59.8472 21.1652C60.0634 21.1652 60.2693 21.2578 60.4649 21.4432C60.6605 21.6285 60.7584 21.8498 60.7584 22.1072C60.7584 22.3955 60.6605 22.6272 60.4649 22.8022C60.2693 22.9669 60.0634 23.0493 59.8472 23.0493C59.6104 23.0493 59.3941 22.9669 59.1985 22.8022C59.0029 22.6272 58.9051 22.3955 58.9051 22.1072ZM62.2369 23.0493C62.8752 22.4007 63.493 21.7726 64.0901 21.1652C64.6873 20.5577 65.2227 19.9709 65.6963 19.4046C66.1699 18.8383 66.5405 18.2875 66.8082 17.7521C67.0862 17.2167 67.2252 16.6968 67.2252 16.1923C67.2252 15.6054 67.0502 15.173 66.7001 14.895C66.3501 14.6067 65.9331 14.4626 65.4492 14.4626C65.0579 14.4626 64.7336 14.5398 64.4762 14.6942C64.2291 14.8487 64.0438 15.0443 63.9202 15.2811C63.7967 15.5076 63.7349 15.7341 63.7349 15.9606C63.7349 16.3004 63.7864 16.6041 63.8893 16.8718C64.0026 17.1292 64.1519 17.3557 64.3372 17.5513L63.2407 18.5552C62.973 18.411 62.7465 18.1845 62.5612 17.8756C62.3759 17.5668 62.2317 17.2424 62.1288 16.9027C62.0361 16.5629 61.9898 16.2643 61.9898 16.0069C61.9898 15.451 62.1339 14.9259 62.4222 14.4317C62.7208 13.9272 63.148 13.5205 63.704 13.2116C64.26 12.8924 64.9447 12.7329 65.758 12.7329C66.4273 12.7329 67.009 12.8873 67.5032 13.1962C68.0077 13.505 68.3989 13.9117 68.6769 14.4162C68.9549 14.9104 69.0939 15.451 69.0939 16.0378C69.0939 16.6659 68.9498 17.2785 68.6615 17.8756C68.3732 18.4625 68.0025 19.0391 67.5495 19.6053C67.0965 20.1716 66.628 20.743 66.1441 21.3196H69.341V23.0493H62.2369ZM71.0023 12.8564H73.8285V23.0493H72.0216V14.5861H71.0023V12.8564Z" fill="white"/>
</g>
<defs>
<filter id="filter0_d" x="0.963867" y="0.0493164" width="92.9585" height="45.5984" filterUnits="userSpaceOnUse" color-interpolation-filters="sRGB">
<feFlood flood-opacity="0" result="BackgroundImageFix"/>
<feColorMatrix in="SourceAlpha" type="matrix" values="0 0 0 0 0 0 0 0 0 0 0 0 0 0 0 0 0 0 127 0" result="hardAlpha"/>
<feOffset dy="4"/>
<feGaussianBlur stdDeviation="2"/>
<feColorMatrix type="matrix" values="0 0 0 0 0 0 0 0 0 0 0 0 0 0 0 0 0 0 0.25 0"/>
<feBlend mode="normal" in2="BackgroundImageFix" result="effect1_dropShadow"/>
<feBlend mode="normal" in="SourceGraphic" in2="effect1_dropShadow" result="shape"/>
</filter>
<filter id="filter1_d" x="3.03339" y="0.0493164" width="88.8195" height="41.4594" filterUnits="userSpaceOnUse" color-interpolation-filters="sRGB">
<feFlood flood-opacity="0" result="BackgroundImageFix"/>
<feColorMatrix in="SourceAlpha" type="matrix" values="0 0 0 0 0 0 0 0 0 0 0 0 0 0 0 0 0 0 127 0" result="hardAlpha"/>
<feOffset dy="1.93048"/>
<feGaussianBlur stdDeviation="0.965238"/>
<feColorMatrix type="matrix" values="0 0 0 0 0 0 0 0 0 0 0 0 0 0 0 0 0 0 0.25 0"/>
<feBlend mode="normal" in2="BackgroundImageFix" result="effect1_dropShadow"/>
<feBlend mode="normal" in="SourceGraphic" in2="effect1_dropShadow" result="shape"/>
</filter>
</defs>
</svg>
