<svg width="95" height="55" viewBox="0 0 95 55" fill="none" xmlns="http://www.w3.org/2000/svg">
<g filter="url(#filter0_d)">
<g filter="url(#filter1_d)">
<rect x="4.18457" y="0.789795" width="86.5258" height="45.8295" rx="4.82619" fill="#E6BEAE"/>
</g>
<path d="M24.3522 27.8207C23.5286 27.831 22.7924 27.6354 22.1438 27.2338C21.5054 26.8323 20.9958 26.2454 20.6148 25.4732C20.2442 24.701 20.0588 23.759 20.0588 22.647C20.0588 21.4321 20.239 20.4437 20.5994 19.6818C20.9597 18.9199 21.4591 18.3639 22.0974 18.0139C22.7461 17.6535 23.4977 17.4785 24.3522 17.4888C25.1656 17.4785 25.8966 17.6741 26.5452 18.0756C27.1939 18.4772 27.7035 19.064 28.0742 19.8362C28.4448 20.5981 28.6302 21.5351 28.6302 22.647C28.6302 23.7898 28.4397 24.7474 28.0587 25.5196C27.6881 26.2917 27.1784 26.8735 26.5298 27.2647C25.8915 27.6457 25.1656 27.831 24.3522 27.8207ZM24.3368 26.1064C24.9031 26.1064 25.3612 25.9571 25.7113 25.6585C26.0716 25.36 26.3342 24.9481 26.4989 24.423C26.6739 23.8877 26.7615 23.2802 26.7615 22.6007C26.7615 21.9417 26.6739 21.36 26.4989 20.8555C26.3342 20.3407 26.0716 19.9392 25.7113 19.6509C25.3509 19.3626 24.8928 19.2185 24.3368 19.2185C23.7705 19.2185 23.3123 19.3678 22.9623 19.6664C22.6122 19.9546 22.3497 20.3562 22.1746 20.871C22.0099 21.3858 21.9275 21.9778 21.9275 22.647C21.9275 23.3059 22.0099 23.898 22.1746 24.423C22.3497 24.9481 22.6122 25.36 22.9623 25.6585C23.3123 25.9571 23.7705 26.1064 24.3368 26.1064ZM34.159 27.8207C33.3354 27.831 32.5992 27.6354 31.9506 27.2338C31.3122 26.8323 30.8026 26.2454 30.4216 25.4732C30.051 24.701 29.8657 23.759 29.8657 22.647C29.8657 21.4321 30.0458 20.4437 30.4062 19.6818C30.7666 18.9199 31.2659 18.3639 31.9042 18.0139C32.5529 17.6535 33.3045 17.4785 34.159 17.4888C34.9724 17.4785 35.7034 17.6741 36.3521 18.0756C37.0007 18.4772 37.5103 19.064 37.881 19.8362C38.2517 20.5981 38.437 21.5351 38.437 22.647C38.437 23.7898 38.2465 24.7474 37.8656 25.5196C37.4949 26.2917 36.9853 26.8735 36.3366 27.2647C35.6983 27.6457 34.9724 27.831 34.159 27.8207ZM34.1436 26.1064C34.7099 26.1064 35.168 25.9571 35.5181 25.6585C35.8785 25.36 36.141 24.9481 36.3057 24.423C36.4808 23.8877 36.5683 23.2802 36.5683 22.6007C36.5683 21.9417 36.4808 21.36 36.3057 20.8555C36.141 20.3407 35.8785 19.9392 35.5181 19.6509C35.1577 19.3626 34.6996 19.2185 34.1436 19.2185C33.5773 19.2185 33.1192 19.3678 32.7691 19.6664C32.419 19.9546 32.1565 20.3562 31.9815 20.871C31.8167 21.3858 31.7344 21.9778 31.7344 22.647C31.7344 23.3059 31.8167 23.898 31.9815 24.423C32.1565 24.9481 32.419 25.36 32.7691 25.6585C33.1192 25.9571 33.5773 26.1064 34.1436 26.1064ZM39.5335 22.5698C39.5335 22.3021 39.6313 22.0807 39.8269 21.9057C40.0225 21.7204 40.2388 21.6277 40.4756 21.6277C40.6918 21.6277 40.8977 21.7204 41.0933 21.9057C41.2889 22.0807 41.3867 22.3021 41.3867 22.5698C41.3867 22.8581 41.2889 23.0897 41.0933 23.2648C40.8977 23.4295 40.6918 23.5119 40.4756 23.5119C40.2388 23.5119 40.0225 23.4295 39.8269 23.2648C39.6313 23.0897 39.5335 22.8581 39.5335 22.5698ZM39.5335 26.8477C39.5335 26.5903 39.6313 26.369 39.8269 26.1836C40.0225 25.9983 40.2388 25.9057 40.4756 25.9057C40.6918 25.9057 40.8977 25.9983 41.0933 26.1836C41.2889 26.369 41.3867 26.5903 41.3867 26.8477C41.3867 27.136 41.2889 27.3677 41.0933 27.5427C40.8977 27.7074 40.6918 27.7898 40.4756 27.7898C40.2388 27.7898 40.0225 27.7074 39.8269 27.5427C39.6313 27.3677 39.5335 27.136 39.5335 26.8477ZM45.7996 27.9133C45.223 27.9133 44.667 27.8104 44.1316 27.6045C43.6065 27.3883 43.1896 27.1257 42.8807 26.8168L43.8228 25.396C44.0184 25.6328 44.2861 25.8233 44.6258 25.9674C44.9759 26.1116 45.3157 26.1836 45.6451 26.1836C46.129 26.1836 46.5357 26.0292 46.8652 25.7203C47.1947 25.4114 47.3594 24.9945 47.3594 24.4694C47.3594 23.9031 47.1998 23.4398 46.8806 23.0794C46.5615 22.7191 46.1084 22.5389 45.5216 22.5389C45.1818 22.5389 44.8575 22.5852 44.5486 22.6779C44.25 22.7706 43.9257 22.9198 43.5757 23.1258H43.5602V17.5969H48.5177V19.3266H45.1046V21.1181C45.3826 21.0563 45.6657 21.0254 45.954 21.0254C46.6541 21.0254 47.2461 21.185 47.73 21.5042C48.214 21.813 48.5795 22.2249 48.8266 22.7397C49.084 23.2442 49.2127 23.8001 49.2127 24.4076C49.2127 25.0665 49.0634 25.6637 48.7648 26.1991C48.4662 26.7242 48.0595 27.1412 47.5447 27.45C47.0299 27.7589 46.4482 27.9133 45.7996 27.9133ZM57.1119 17.5969L54.9343 21.3343C55.3668 21.3858 55.7683 21.5196 56.139 21.7358C56.5096 21.952 56.8082 22.2764 57.0347 22.7088C57.2715 23.1412 57.3899 23.7023 57.3899 24.3922C57.3899 25.1232 57.22 25.7512 56.8803 26.2763C56.5508 26.8014 56.1081 27.2081 55.5521 27.4964C55.0064 27.7744 54.4092 27.9133 53.7606 27.9133C53.2561 27.9133 52.7465 27.8104 52.2317 27.6045C51.7169 27.3986 51.2999 27.1257 50.9807 26.7859L51.8919 25.3033C52.0669 25.5196 52.3192 25.7203 52.6487 25.9057C52.9884 26.091 53.3436 26.1836 53.7143 26.1836C54.1879 26.1836 54.61 26.0189 54.9807 25.6894C55.3513 25.3497 55.5366 24.8812 55.5366 24.2841C55.5366 23.759 55.3771 23.342 55.0579 23.0331C54.749 22.7139 54.3269 22.5543 53.7915 22.5543C53.4929 22.5543 53.251 22.5749 53.0656 22.6161C52.8803 22.647 52.7053 22.6882 52.5405 22.7397L52.4942 22.6933L54.5174 19.3266H51.6757V17.5969H57.1119ZM58.9094 22.5698C58.9094 22.3021 59.0072 22.0807 59.2029 21.9057C59.3985 21.7204 59.6147 21.6277 59.8515 21.6277C60.0677 21.6277 60.2736 21.7204 60.4693 21.9057C60.6649 22.0807 60.7627 22.3021 60.7627 22.5698C60.7627 22.8581 60.6649 23.0897 60.4693 23.2648C60.2736 23.4295 60.0677 23.5119 59.8515 23.5119C59.6147 23.5119 59.3985 23.4295 59.2029 23.2648C59.0072 23.0897 58.9094 22.8581 58.9094 22.5698ZM58.9094 26.8477C58.9094 26.5903 59.0072 26.369 59.2029 26.1836C59.3985 25.9983 59.6147 25.9057 59.8515 25.9057C60.0677 25.9057 60.2736 25.9983 60.4693 26.1836C60.6649 26.369 60.7627 26.5903 60.7627 26.8477C60.7627 27.136 60.6649 27.3677 60.4693 27.5427C60.2736 27.7074 60.0677 27.7898 59.8515 27.7898C59.6147 27.7898 59.3985 27.7074 59.2029 27.5427C59.0072 27.3677 58.9094 27.136 58.9094 26.8477ZM62.2412 27.7898C62.8795 27.1412 63.4973 26.5131 64.0944 25.9057C64.6916 25.2982 65.227 24.7113 65.7006 24.1451C66.1742 23.5788 66.5449 23.028 66.8126 22.4926C67.0905 21.9572 67.2295 21.4372 67.2295 20.9327C67.2295 20.3459 67.0545 19.9135 66.7045 19.6355C66.3544 19.3472 65.9374 19.203 65.4535 19.203C65.0623 19.203 64.7379 19.2803 64.4805 19.4347C64.2334 19.5891 64.0481 19.7848 63.9246 20.0216C63.801 20.2481 63.7392 20.4746 63.7392 20.7011C63.7392 21.0409 63.7907 21.3446 63.8937 21.6123C64.0069 21.8697 64.1562 22.0962 64.3416 22.2918L63.245 23.2956C62.9773 23.1515 62.7508 22.925 62.5655 22.6161C62.3802 22.3072 62.236 21.9829 62.1331 21.6432C62.0404 21.3034 61.9941 21.0048 61.9941 20.7474C61.9941 20.1914 62.1382 19.6664 62.4265 19.1722C62.7251 18.6677 63.1524 18.261 63.7084 17.9521C64.2643 17.6329 64.949 17.4733 65.7624 17.4733C66.4316 17.4733 67.0133 17.6278 67.5075 17.9366C68.012 18.2455 68.4033 18.6522 68.6813 19.1567C68.9592 19.6509 69.0982 20.1914 69.0982 20.7783C69.0982 21.4064 68.9541 22.019 68.6658 22.6161C68.3775 23.203 68.0069 23.7796 67.5539 24.3458C67.1008 24.9121 66.6324 25.4835 66.1485 26.0601H69.3453V27.7898H62.2412ZM71.0066 17.5969H73.8329V27.7898H72.0259V19.3266H71.0066V17.5969Z" fill="white"/>
</g>
<defs>
<filter id="filter0_d" x="0.18457" y="0.789795" width="94.5258" height="53.8295" filterUnits="userSpaceOnUse" color-interpolation-filters="sRGB">
<feFlood flood-opacity="0" result="BackgroundImageFix"/>
<feColorMatrix in="SourceAlpha" type="matrix" values="0 0 0 0 0 0 0 0 0 0 0 0 0 0 0 0 0 0 127 0" result="hardAlpha"/>
<feOffset dy="4"/>
<feGaussianBlur stdDeviation="2"/>
<feColorMatrix type="matrix" values="0 0 0 0 0 0 0 0 0 0 0 0 0 0 0 0 0 0 0.25 0"/>
<feBlend mode="normal" in2="BackgroundImageFix" result="effect1_dropShadow"/>
<feBlend mode="normal" in="SourceGraphic" in2="effect1_dropShadow" result="shape"/>
</filter>
<filter id="filter1_d" x="2.25409" y="0.789795" width="90.3868" height="49.6904" filterUnits="userSpaceOnUse" color-interpolation-filters="sRGB">
<feFlood flood-opacity="0" result="BackgroundImageFix"/>
<feColorMatrix in="SourceAlpha" type="matrix" values="0 0 0 0 0 0 0 0 0 0 0 0 0 0 0 0 0 0 127 0" result="hardAlpha"/>
<feOffset dy="1.93048"/>
<feGaussianBlur stdDeviation="0.965238"/>
<feColorMatrix type="matrix" values="0 0 0 0 0 0 0 0 0 0 0 0 0 0 0 0 0 0 0.25 0"/>
<feBlend mode="normal" in2="BackgroundImageFix" result="effect1_dropShadow"/>
<feBlend mode="normal" in="SourceGraphic" in2="effect1_dropShadow" result="shape"/>
</filter>
</defs>
</svg>
