<svg width="94" height="46" viewBox="0 0 94 46" fill="none" xmlns="http://www.w3.org/2000/svg">
<g filter="url(#filter0_d)">
<g filter="url(#filter1_d)">
<rect x="4.96387" y="0.0760498" width="84.9585" height="37.5984" rx="4.82619" fill="#E6BEAE"/>
</g>
<path d="M22.031 23.1069C21.2073 23.1172 20.4712 22.9216 19.8226 22.5201C19.1842 22.1185 18.6746 21.5317 18.2936 20.7595C17.923 19.9873 17.7376 19.0452 17.7376 17.9333C17.7376 16.7183 17.9178 15.7299 18.2782 14.9681C18.6385 14.2062 19.1379 13.6502 19.7762 13.3001C20.4249 12.9398 21.1765 12.7647 22.031 12.775C22.8444 12.7647 23.5754 12.9604 24.224 13.3619C24.8727 13.7634 25.3823 14.3503 25.753 15.1225C26.1236 15.8844 26.309 16.8213 26.309 17.9333C26.309 19.0761 26.1185 20.0336 25.7375 20.8058C25.3669 21.578 24.8572 22.1597 24.2086 22.551C23.5703 22.9319 22.8444 23.1172 22.031 23.1069ZM22.0156 21.3927C22.5818 21.3927 23.04 21.2434 23.3901 20.9448C23.7504 20.6462 24.013 20.2344 24.1777 19.7093C24.3527 19.1739 24.4403 18.5665 24.4403 17.8869C24.4403 17.228 24.3527 16.6463 24.1777 16.1418C24.013 15.627 23.7504 15.2254 23.3901 14.9372C23.0297 14.6489 22.5716 14.5047 22.0156 14.5047C21.4493 14.5047 20.9911 14.654 20.6411 14.9526C20.291 15.2409 20.0285 15.6424 19.8534 16.1572C19.6887 16.672 19.6063 17.264 19.6063 17.9333C19.6063 18.5922 19.6887 19.1842 19.8534 19.7093C20.0285 20.2344 20.291 20.6462 20.6411 20.9448C20.9911 21.2434 21.4493 21.3927 22.0156 21.3927ZM31.8378 23.1069C31.0142 23.1172 30.278 22.9216 29.6294 22.5201C28.991 22.1185 28.4814 21.5317 28.1004 20.7595C27.7298 19.9873 27.5445 19.0452 27.5445 17.9333C27.5445 16.7183 27.7246 15.7299 28.085 14.9681C28.4453 14.2062 28.9447 13.6502 29.583 13.3001C30.2317 12.9398 30.9833 12.7647 31.8378 12.775C32.6512 12.7647 33.3822 12.9604 34.0309 13.3619C34.6795 13.7634 35.1891 14.3503 35.5598 15.1225C35.9304 15.8844 36.1158 16.8213 36.1158 17.9333C36.1158 19.0761 35.9253 20.0336 35.5444 20.8058C35.1737 21.578 34.6641 22.1597 34.0154 22.551C33.3771 22.9319 32.6512 23.1172 31.8378 23.1069ZM31.8224 21.3927C32.3887 21.3927 32.8468 21.2434 33.1969 20.9448C33.5572 20.6462 33.8198 20.2344 33.9845 19.7093C34.1596 19.1739 34.2471 18.5665 34.2471 17.8869C34.2471 17.228 34.1596 16.6463 33.9845 16.1418C33.8198 15.627 33.5572 15.2254 33.1969 14.9372C32.8365 14.6489 32.3784 14.5047 31.8224 14.5047C31.2561 14.5047 30.798 14.654 30.4479 14.9526C30.0978 15.2409 29.8353 15.6424 29.6603 16.1572C29.4955 16.672 29.4132 17.264 29.4132 17.9333C29.4132 18.5922 29.4955 19.1842 29.6603 19.7093C29.8353 20.2344 30.0978 20.6462 30.4479 20.9448C30.798 21.2434 31.2561 21.3927 31.8224 21.3927ZM37.2123 17.856C37.2123 17.5884 37.3101 17.367 37.5057 17.192C37.7013 17.0066 37.9175 16.914 38.1544 16.914C38.3706 16.914 38.5765 17.0066 38.7721 17.192C38.9677 17.367 39.0655 17.5884 39.0655 17.856C39.0655 18.1443 38.9677 18.376 38.7721 18.551C38.5765 18.7157 38.3706 18.7981 38.1544 18.7981C37.9175 18.7981 37.7013 18.7157 37.5057 18.551C37.3101 18.376 37.2123 18.1443 37.2123 17.856ZM37.2123 22.134C37.2123 21.8766 37.3101 21.6552 37.5057 21.4699C37.7013 21.2846 37.9175 21.1919 38.1544 21.1919C38.3706 21.1919 38.5765 21.2846 38.7721 21.4699C38.9677 21.6552 39.0655 21.8766 39.0655 22.134C39.0655 22.4223 38.9677 22.6539 38.7721 22.8289C38.5765 22.9937 38.3706 23.076 38.1544 23.076C37.9175 23.076 37.7013 22.9937 37.5057 22.8289C37.3101 22.6539 37.2123 22.4223 37.2123 22.134ZM40.5132 12.8831H43.3394V23.076H41.5324V14.6128H40.5132V12.8831ZM49.8715 23.1069C49.0478 23.1172 48.3117 22.9216 47.663 22.5201C47.0247 22.1185 46.515 21.5317 46.1341 20.7595C45.7634 19.9873 45.5781 19.0452 45.5781 17.9333C45.5781 16.7183 45.7583 15.7299 46.1186 14.9681C46.479 14.2062 46.9784 13.6502 47.6167 13.3001C48.2653 12.9398 49.0169 12.7647 49.8715 12.775C50.6849 12.7647 51.4159 12.9604 52.0645 13.3619C52.7132 13.7634 53.2228 14.3503 53.5935 15.1225C53.9641 15.8844 54.1494 16.8213 54.1494 17.9333C54.1494 19.0761 53.959 20.0336 53.578 20.8058C53.2074 21.578 52.6977 22.1597 52.0491 22.551C51.4107 22.9319 50.6849 23.1172 49.8715 23.1069ZM49.8561 21.3927C50.4223 21.3927 50.8805 21.2434 51.2305 20.9448C51.5909 20.6462 51.8534 20.2344 52.0182 19.7093C52.1932 19.1739 52.2807 18.5665 52.2807 17.8869C52.2807 17.228 52.1932 16.6463 52.0182 16.1418C51.8534 15.627 51.5909 15.2254 51.2305 14.9372C50.8702 14.6489 50.412 14.5047 49.8561 14.5047C49.2898 14.5047 48.8316 14.654 48.4816 14.9526C48.1315 15.2409 47.8689 15.6424 47.6939 16.1572C47.5292 16.672 47.4468 17.264 47.4468 17.9333C47.4468 18.5922 47.5292 19.1842 47.6939 19.7093C47.8689 20.2344 48.1315 20.6462 48.4816 20.9448C48.8316 21.2434 49.2898 21.3927 49.8561 21.3927ZM55.2459 17.856C55.2459 17.5884 55.3437 17.367 55.5394 17.192C55.735 17.0066 55.9512 16.914 56.188 16.914C56.4042 16.914 56.6101 17.0066 56.8058 17.192C57.0014 17.367 57.0992 17.5884 57.0992 17.856C57.0992 18.1443 57.0014 18.376 56.8058 18.551C56.6101 18.7157 56.4042 18.7981 56.188 18.7981C55.9512 18.7981 55.735 18.7157 55.5394 18.551C55.3437 18.376 55.2459 18.1443 55.2459 17.856ZM55.2459 22.134C55.2459 21.8766 55.3437 21.6552 55.5394 21.4699C55.735 21.2846 55.9512 21.1919 56.188 21.1919C56.4042 21.1919 56.6101 21.2846 56.8058 21.4699C57.0014 21.6552 57.0992 21.8766 57.0992 22.134C57.0992 22.4223 57.0014 22.6539 56.8058 22.8289C56.6101 22.9937 56.4042 23.076 56.188 23.076C55.9512 23.076 55.735 22.9937 55.5394 22.8289C55.3437 22.6539 55.2459 22.4223 55.2459 22.134ZM57.9136 20.7131V20.6977L64.261 12.7596H64.2765V19.3386H65.5583V20.7131H64.2765V23.076H62.4695V20.7131H57.9136ZM62.4695 19.3386V16.8985L60.5854 19.3386H62.4695ZM70.5925 23.1996C69.8821 23.1996 69.2386 23.0349 68.662 22.7054C68.0957 22.3656 67.6427 21.8817 67.303 21.2537C66.9735 20.6153 66.8088 19.8534 66.8088 18.968C66.8088 18.3194 66.9323 17.7016 67.1794 17.1147C67.4368 16.5279 67.7766 15.9719 68.1987 15.4468C68.6311 14.9114 69.1202 14.4172 69.6659 13.9642C70.2218 13.5112 70.7984 13.0942 71.3956 12.7133L72.6002 14.026C71.6839 14.4378 70.9374 14.932 70.3608 15.5086C69.7946 16.0852 69.3827 16.6566 69.1253 17.2228C69.3827 16.9757 69.6762 16.7904 70.0056 16.6669C70.3454 16.533 70.7418 16.4661 71.1948 16.4661C71.7096 16.4661 72.1987 16.6102 72.662 16.8985C73.1253 17.1765 73.5011 17.5626 73.7894 18.0568C74.0879 18.5407 74.2372 19.1018 74.2372 19.7402C74.2372 20.4609 74.0622 21.0787 73.7121 21.5934C73.3621 22.1082 72.9091 22.5046 72.3531 22.7826C71.8074 23.0606 71.2205 23.1996 70.5925 23.1996ZM70.5153 21.5934C71.0404 21.5934 71.4779 21.4287 71.828 21.0992C72.1884 20.7698 72.3685 20.3168 72.3685 19.7402C72.3685 19.1945 72.1884 18.7672 71.828 18.4584C71.4676 18.1392 71.0301 17.9796 70.5153 17.9796C70.0005 17.9796 69.5629 18.134 69.2026 18.4429C68.8422 18.7415 68.662 19.1018 68.662 19.524V19.8329C68.662 20.1417 68.7444 20.43 68.9091 20.6977C69.0739 20.9654 69.2952 21.1816 69.5732 21.3463C69.8512 21.5111 70.1652 21.5934 70.5153 21.5934ZM75.3458 17.856C75.3458 17.5884 75.4436 17.367 75.6392 17.192C75.8349 17.0066 76.0511 16.914 76.2879 16.914C76.5041 16.914 76.71 17.0066 76.9056 17.192C77.1013 17.367 77.1991 17.5884 77.1991 17.856C77.1991 18.1443 77.1013 18.376 76.9056 18.551C76.71 18.7157 76.5041 18.7981 76.2879 18.7981C76.0511 18.7981 75.8349 18.7157 75.6392 18.551C75.4436 18.376 75.3458 18.1443 75.3458 17.856ZM75.3458 22.134C75.3458 21.8766 75.4436 21.6552 75.6392 21.4699C75.8349 21.2846 76.0511 21.1919 76.2879 21.1919C76.5041 21.1919 76.71 21.2846 76.9056 21.4699C77.1013 21.6552 77.1991 21.8766 77.1991 22.134C77.1991 22.4223 77.1013 22.6539 76.9056 22.8289C76.71 22.9937 76.5041 23.076 76.2879 23.076C76.0511 23.076 75.8349 22.9937 75.6392 22.8289C75.4436 22.6539 75.3458 22.4223 75.3458 22.134Z" fill="white"/>
</g>
<defs>
<filter id="filter0_d" x="0.963867" y="0.0760498" width="92.9585" height="45.5984" filterUnits="userSpaceOnUse" color-interpolation-filters="sRGB">
<feFlood flood-opacity="0" result="BackgroundImageFix"/>
<feColorMatrix in="SourceAlpha" type="matrix" values="0 0 0 0 0 0 0 0 0 0 0 0 0 0 0 0 0 0 127 0" result="hardAlpha"/>
<feOffset dy="4"/>
<feGaussianBlur stdDeviation="2"/>
<feColorMatrix type="matrix" values="0 0 0 0 0 0 0 0 0 0 0 0 0 0 0 0 0 0 0.25 0"/>
<feBlend mode="normal" in2="BackgroundImageFix" result="effect1_dropShadow"/>
<feBlend mode="normal" in="SourceGraphic" in2="effect1_dropShadow" result="shape"/>
</filter>
<filter id="filter1_d" x="3.03339" y="0.0760498" width="88.8195" height="41.4594" filterUnits="userSpaceOnUse" color-interpolation-filters="sRGB">
<feFlood flood-opacity="0" result="BackgroundImageFix"/>
<feColorMatrix in="SourceAlpha" type="matrix" values="0 0 0 0 0 0 0 0 0 0 0 0 0 0 0 0 0 0 127 0" result="hardAlpha"/>
<feOffset dy="1.93048"/>
<feGaussianBlur stdDeviation="0.965238"/>
<feColorMatrix type="matrix" values="0 0 0 0 0 0 0 0 0 0 0 0 0 0 0 0 0 0 0.25 0"/>
<feBlend mode="normal" in2="BackgroundImageFix" result="effect1_dropShadow"/>
<feBlend mode="normal" in="SourceGraphic" in2="effect1_dropShadow" result="shape"/>
</filter>
</defs>
</svg>
