<svg width="95" height="55" viewBox="0 0 95 55" fill="none" xmlns="http://www.w3.org/2000/svg">
<g filter="url(#filter0_d)">
<g filter="url(#filter1_d)">
<rect x="4.18457" y="0.208984" width="86.5258" height="45.8295" rx="4.82619" fill="#E6BEAE"/>
</g>
<path d="M22.0354 27.2399C21.2117 27.2502 20.4755 27.0545 19.8269 26.653C19.1885 26.2515 18.6789 25.6646 18.298 24.8924C17.9273 24.1202 17.742 23.1782 17.742 22.0662C17.742 20.8513 17.9222 19.8629 18.2825 19.101C18.6429 18.3391 19.1422 17.7831 19.7806 17.4331C20.4292 17.0727 21.1808 16.8977 22.0354 16.908C22.8487 16.8977 23.5797 17.0933 24.2284 17.4948C24.877 17.8964 25.3867 18.4832 25.7573 19.2554C26.128 20.0173 26.3133 20.9542 26.3133 22.0662C26.3133 23.209 26.1228 24.1666 25.7419 24.9387C25.3712 25.7109 24.8616 26.2927 24.2129 26.6839C23.5746 27.0648 22.8487 27.2502 22.0354 27.2399ZM22.0199 25.5256C22.5862 25.5256 23.0443 25.3763 23.3944 25.0777C23.7548 24.7792 24.0173 24.3673 24.182 23.8422C24.3571 23.3068 24.4446 22.6994 24.4446 22.0199C24.4446 21.3609 24.3571 20.7792 24.182 20.2747C24.0173 19.7599 23.7548 19.3584 23.3944 19.0701C23.0341 18.7818 22.5759 18.6377 22.0199 18.6377C21.4536 18.6377 20.9955 18.787 20.6454 19.0855C20.2954 19.3738 20.0328 19.7754 19.8578 20.2902C19.693 20.805 19.6107 21.397 19.6107 22.0662C19.6107 22.7251 19.693 23.3171 19.8578 23.8422C20.0328 24.3673 20.2954 24.7792 20.6454 25.0777C20.9955 25.3763 21.4536 25.5256 22.0199 25.5256ZM31.8422 27.2399C31.0185 27.2502 30.2823 27.0545 29.6337 26.653C28.9954 26.2515 28.4857 25.6646 28.1048 24.8924C27.7341 24.1202 27.5488 23.1782 27.5488 22.0662C27.5488 20.8513 27.729 19.8629 28.0893 19.101C28.4497 18.3391 28.949 17.7831 29.5874 17.4331C30.236 17.0727 30.9876 16.8977 31.8422 16.908C32.6555 16.8977 33.3866 17.0933 34.0352 17.4948C34.6838 17.8964 35.1935 18.4832 35.5641 19.2554C35.9348 20.0173 36.1201 20.9542 36.1201 22.0662C36.1201 23.209 35.9296 24.1666 35.5487 24.9387C35.178 25.7109 34.6684 26.2927 34.0197 26.6839C33.3814 27.0648 32.6555 27.2502 31.8422 27.2399ZM31.8267 25.5256C32.393 25.5256 32.8512 25.3763 33.2012 25.0777C33.5616 24.7792 33.8241 24.3673 33.9889 23.8422C34.1639 23.3068 34.2514 22.6994 34.2514 22.0199C34.2514 21.3609 34.1639 20.7792 33.9889 20.2747C33.8241 19.7599 33.5616 19.3584 33.2012 19.0701C32.8409 18.7818 32.3827 18.6377 31.8267 18.6377C31.2605 18.6377 30.8023 18.787 30.4522 19.0855C30.1022 19.3738 29.8396 19.7754 29.6646 20.2902C29.4999 20.805 29.4175 21.397 29.4175 22.0662C29.4175 22.7251 29.4999 23.3171 29.6646 23.8422C29.8396 24.3673 30.1022 24.7792 30.4522 25.0777C30.8023 25.3763 31.2605 25.5256 31.8267 25.5256ZM37.2166 21.989C37.2166 21.7213 37.3144 21.4999 37.51 21.3249C37.7057 21.1396 37.9219 21.0469 38.1587 21.0469C38.3749 21.0469 38.5808 21.1396 38.7764 21.3249C38.9721 21.4999 39.0699 21.7213 39.0699 21.989C39.0699 22.2773 38.9721 22.5089 38.7764 22.6839C38.5808 22.8487 38.3749 22.931 38.1587 22.931C37.9219 22.931 37.7057 22.8487 37.51 22.6839C37.3144 22.5089 37.2166 22.2773 37.2166 21.989ZM37.2166 26.2669C37.2166 26.0095 37.3144 25.7882 37.51 25.6028C37.7057 25.4175 37.9219 25.3248 38.1587 25.3248C38.3749 25.3248 38.5808 25.4175 38.7764 25.6028C38.9721 25.7882 39.0699 26.0095 39.0699 26.2669C39.0699 26.5552 38.9721 26.7869 38.7764 26.9619C38.5808 27.1266 38.3749 27.209 38.1587 27.209C37.9219 27.209 37.7057 27.1266 37.51 26.9619C37.3144 26.7869 37.2166 26.5552 37.2166 26.2669ZM40.5175 17.0161H43.3437V27.209H41.5368V18.7458H40.5175V17.0161ZM49.8758 27.2399C49.0522 27.2502 48.316 27.0545 47.6674 26.653C47.029 26.2515 46.5194 25.6646 46.1384 24.8924C45.7678 24.1202 45.5824 23.1782 45.5824 22.0662C45.5824 20.8513 45.7626 19.8629 46.123 19.101C46.4833 18.3391 46.9827 17.7831 47.621 17.4331C48.2697 17.0727 49.0213 16.8977 49.8758 16.908C50.6892 16.8977 51.4202 17.0933 52.0688 17.4948C52.7175 17.8964 53.2271 18.4832 53.5978 19.2554C53.9684 20.0173 54.1538 20.9542 54.1538 22.0662C54.1538 23.209 53.9633 24.1666 53.5823 24.9387C53.2117 25.7109 52.702 26.2927 52.0534 26.6839C51.4151 27.0648 50.6892 27.2502 49.8758 27.2399ZM49.8604 25.5256C50.4267 25.5256 50.8848 25.3763 51.2349 25.0777C51.5952 24.7792 51.8578 24.3673 52.0225 23.8422C52.1975 23.3068 52.2851 22.6994 52.2851 22.0199C52.2851 21.3609 52.1975 20.7792 52.0225 20.2747C51.8578 19.7599 51.5952 19.3584 51.2349 19.0701C50.8745 18.7818 50.4164 18.6377 49.8604 18.6377C49.2941 18.6377 48.8359 18.787 48.4859 19.0855C48.1358 19.3738 47.8733 19.7754 47.6983 20.2902C47.5335 20.805 47.4511 21.397 47.4511 22.0662C47.4511 22.7251 47.5335 23.3171 47.6983 23.8422C47.8733 24.3673 48.1358 24.7792 48.4859 25.0777C48.8359 25.3763 49.2941 25.5256 49.8604 25.5256ZM55.2503 21.989C55.2503 21.7213 55.3481 21.4999 55.5437 21.3249C55.7393 21.1396 55.9555 21.0469 56.1923 21.0469C56.4086 21.0469 56.6145 21.1396 56.8101 21.3249C57.0057 21.4999 57.1035 21.7213 57.1035 21.989C57.1035 22.2773 57.0057 22.5089 56.8101 22.6839C56.6145 22.8487 56.4086 22.931 56.1923 22.931C55.9555 22.931 55.7393 22.8487 55.5437 22.6839C55.3481 22.5089 55.2503 22.2773 55.2503 21.989ZM55.2503 26.2669C55.2503 26.0095 55.3481 25.7882 55.5437 25.6028C55.7393 25.4175 55.9555 25.3248 56.1923 25.3248C56.4086 25.3248 56.6145 25.4175 56.8101 25.6028C57.0057 25.7882 57.1035 26.0095 57.1035 26.2669C57.1035 26.5552 57.0057 26.7869 56.8101 26.9619C56.6145 27.1266 56.4086 27.209 56.1923 27.209C55.9555 27.209 55.7393 27.1266 55.5437 26.9619C55.3481 26.7869 55.2503 26.5552 55.2503 26.2669ZM57.918 24.8461V24.8306L64.2654 16.8925H64.2808V23.4716H65.5626V24.8461H64.2808V27.209H62.4739V24.8461H57.918ZM62.4739 23.4716V21.0315L60.5897 23.4716H62.4739ZM70.5968 27.3325C69.8864 27.3325 69.2429 27.1678 68.6664 26.8383C68.1001 26.4986 67.6471 26.0147 67.3073 25.3866C66.9778 24.7483 66.8131 23.9864 66.8131 23.1009C66.8131 22.4523 66.9366 21.8345 67.1838 21.2477C67.4411 20.6608 67.7809 20.1048 68.203 19.5797C68.6355 19.0444 69.1245 18.5502 69.6702 18.0971C70.2262 17.6441 70.8027 17.2271 71.3999 16.8462L72.6045 18.1589C71.6882 18.5707 70.9417 19.065 70.3652 19.6415C69.7989 20.2181 69.3871 20.7895 69.1297 21.3558C69.3871 21.1087 69.6805 20.9234 70.01 20.7998C70.3497 20.666 70.7461 20.599 71.1991 20.599C71.7139 20.599 72.203 20.7432 72.6663 21.0315C73.1296 21.3094 73.5054 21.6955 73.7937 22.1897C74.0923 22.6737 74.2416 23.2348 74.2416 23.8731C74.2416 24.5938 74.0665 25.2116 73.7165 25.7264C73.3664 26.2412 72.9134 26.6376 72.3574 26.9156C71.8117 27.1935 71.2249 27.3325 70.5968 27.3325ZM70.5196 25.7264C71.0447 25.7264 71.4823 25.5616 71.8323 25.2322C72.1927 24.9027 72.3729 24.4497 72.3729 23.8731C72.3729 23.3274 72.1927 22.9002 71.8323 22.5913C71.472 22.2721 71.0344 22.1125 70.5196 22.1125C70.0048 22.1125 69.5672 22.267 69.2069 22.5758C68.8465 22.8744 68.6664 23.2348 68.6664 23.6569V23.9658C68.6664 24.2747 68.7487 24.5629 68.9135 24.8306C69.0782 25.0983 69.2996 25.3145 69.5775 25.4793C69.8555 25.644 70.1696 25.7264 70.5196 25.7264ZM75.3501 21.989C75.3501 21.7213 75.448 21.4999 75.6436 21.3249C75.8392 21.1396 76.0554 21.0469 76.2922 21.0469C76.5084 21.0469 76.7144 21.1396 76.91 21.3249C77.1056 21.4999 77.2034 21.7213 77.2034 21.989C77.2034 22.2773 77.1056 22.5089 76.91 22.6839C76.7144 22.8487 76.5084 22.931 76.2922 22.931C76.0554 22.931 75.8392 22.8487 75.6436 22.6839C75.448 22.5089 75.3501 22.2773 75.3501 21.989ZM75.3501 26.2669C75.3501 26.0095 75.448 25.7882 75.6436 25.6028C75.8392 25.4175 76.0554 25.3248 76.2922 25.3248C76.5084 25.3248 76.7144 25.4175 76.91 25.6028C77.1056 25.7882 77.2034 26.0095 77.2034 26.2669C77.2034 26.5552 77.1056 26.7869 76.91 26.9619C76.7144 27.1266 76.5084 27.209 76.2922 27.209C76.0554 27.209 75.8392 27.1266 75.6436 26.9619C75.448 26.7869 75.3501 26.5552 75.3501 26.2669Z" fill="white"/>
</g>
<defs>
<filter id="filter0_d" x="0.18457" y="0.208984" width="94.5258" height="53.8295" filterUnits="userSpaceOnUse" color-interpolation-filters="sRGB">
<feFlood flood-opacity="0" result="BackgroundImageFix"/>
<feColorMatrix in="SourceAlpha" type="matrix" values="0 0 0 0 0 0 0 0 0 0 0 0 0 0 0 0 0 0 127 0" result="hardAlpha"/>
<feOffset dy="4"/>
<feGaussianBlur stdDeviation="2"/>
<feColorMatrix type="matrix" values="0 0 0 0 0 0 0 0 0 0 0 0 0 0 0 0 0 0 0.25 0"/>
<feBlend mode="normal" in2="BackgroundImageFix" result="effect1_dropShadow"/>
<feBlend mode="normal" in="SourceGraphic" in2="effect1_dropShadow" result="shape"/>
</filter>
<filter id="filter1_d" x="2.25409" y="0.208984" width="90.3868" height="49.6904" filterUnits="userSpaceOnUse" color-interpolation-filters="sRGB">
<feFlood flood-opacity="0" result="BackgroundImageFix"/>
<feColorMatrix in="SourceAlpha" type="matrix" values="0 0 0 0 0 0 0 0 0 0 0 0 0 0 0 0 0 0 127 0" result="hardAlpha"/>
<feOffset dy="1.93048"/>
<feGaussianBlur stdDeviation="0.965238"/>
<feColorMatrix type="matrix" values="0 0 0 0 0 0 0 0 0 0 0 0 0 0 0 0 0 0 0.25 0"/>
<feBlend mode="normal" in2="BackgroundImageFix" result="effect1_dropShadow"/>
<feBlend mode="normal" in="SourceGraphic" in2="effect1_dropShadow" result="shape"/>
</filter>
</defs>
</svg>
