<svg width="95" height="55" viewBox="0 0 95 55" fill="none" xmlns="http://www.w3.org/2000/svg">
<g filter="url(#filter0_d)">
<g filter="url(#filter1_d)">
<rect x="4.18457" y="0.499268" width="86.5258" height="45.8295" rx="4.82619" fill="#E6BEAE"/>
</g>
<path d="M22.9647 27.5302C22.141 27.5405 21.4049 27.3448 20.7562 26.9433C20.1179 26.5418 19.6082 25.9549 19.2273 25.1827C18.8566 24.4105 18.6713 23.4684 18.6713 22.3565C18.6713 21.1416 18.8515 20.1532 19.2118 19.3913C19.5722 18.6294 20.0716 18.0734 20.7099 17.7233C21.3585 17.363 22.1101 17.188 22.9647 17.1982C23.7781 17.188 24.5091 17.3836 25.1577 17.7851C25.8064 18.1867 26.316 18.7735 26.6867 19.5457C27.0573 20.3076 27.2426 21.2445 27.2426 22.3565C27.2426 23.4993 27.0522 24.4568 26.6712 25.229C26.3006 26.0012 25.7909 26.5829 25.1423 26.9742C24.5039 27.3551 23.7781 27.5405 22.9647 27.5302ZM22.9493 25.8159C23.5155 25.8159 23.9737 25.6666 24.3237 25.368C24.6841 25.0694 24.9467 24.6576 25.1114 24.1325C25.2864 23.5971 25.3739 22.9897 25.3739 22.3101C25.3739 21.6512 25.2864 21.0695 25.1114 20.565C24.9467 20.0502 24.6841 19.6487 24.3237 19.3604C23.9634 19.0721 23.5052 18.928 22.9493 18.928C22.383 18.928 21.9248 19.0772 21.5748 19.3758C21.2247 19.6641 20.9621 20.0656 20.7871 20.5804C20.6224 21.0952 20.54 21.6872 20.54 22.3565C20.54 23.0154 20.6224 23.6074 20.7871 24.1325C20.9621 24.6576 21.2247 25.0694 21.5748 25.368C21.9248 25.6666 22.383 25.8159 22.9493 25.8159ZM32.7715 27.5302C31.9478 27.5405 31.2117 27.3448 30.563 26.9433C29.9247 26.5418 29.4151 25.9549 29.0341 25.1827C28.6635 24.4105 28.4781 23.4684 28.4781 22.3565C28.4781 21.1416 28.6583 20.1532 29.0187 19.3913C29.379 18.6294 29.8784 18.0734 30.5167 17.7233C31.1654 17.363 31.917 17.188 32.7715 17.1982C33.5849 17.188 34.3159 17.3836 34.9645 17.7851C35.6132 18.1867 36.1228 18.7735 36.4935 19.5457C36.8641 20.3076 37.0494 21.2445 37.0494 22.3565C37.0494 23.4993 36.859 24.4568 36.478 25.229C36.1074 26.0012 35.5977 26.5829 34.9491 26.9742C34.3107 27.3551 33.5849 27.5405 32.7715 27.5302ZM32.7561 25.8159C33.3223 25.8159 33.7805 25.6666 34.1306 25.368C34.4909 25.0694 34.7535 24.6576 34.9182 24.1325C35.0932 23.5971 35.1807 22.9897 35.1807 22.3101C35.1807 21.6512 35.0932 21.0695 34.9182 20.565C34.7535 20.0502 34.4909 19.6487 34.1306 19.3604C33.7702 19.0721 33.312 18.928 32.7561 18.928C32.1898 18.928 31.7316 19.0772 31.3816 19.3758C31.0315 19.6641 30.769 20.0656 30.5939 20.5804C30.4292 21.0952 30.3468 21.6872 30.3468 22.3565C30.3468 23.0154 30.4292 23.6074 30.5939 24.1325C30.769 24.6576 31.0315 25.0694 31.3816 25.368C31.7316 25.6666 32.1898 25.8159 32.7561 25.8159ZM38.146 22.2793C38.146 22.0116 38.2438 21.7902 38.4394 21.6152C38.635 21.4299 38.8512 21.3372 39.088 21.3372C39.3042 21.3372 39.5102 21.4299 39.7058 21.6152C39.9014 21.7902 39.9992 22.0116 39.9992 22.2793C39.9992 22.5675 39.9014 22.7992 39.7058 22.9742C39.5102 23.139 39.3042 23.2213 39.088 23.2213C38.8512 23.2213 38.635 23.139 38.4394 22.9742C38.2438 22.7992 38.146 22.5675 38.146 22.2793ZM38.146 26.5572C38.146 26.2998 38.2438 26.0784 38.4394 25.8931C38.635 25.7078 38.8512 25.6151 39.088 25.6151C39.3042 25.6151 39.5102 25.7078 39.7058 25.8931C39.9014 26.0784 39.9992 26.2998 39.9992 26.5572C39.9992 26.8455 39.9014 27.0771 39.7058 27.2522C39.5102 27.4169 39.3042 27.4993 39.088 27.4993C38.8512 27.4993 38.635 27.4169 38.4394 27.2522C38.2438 27.0771 38.146 26.8455 38.146 26.5572ZM40.8136 25.1364V25.1209L47.161 17.1828H47.1765V23.7619H48.4583V25.1364H47.1765V27.4993H45.3696V25.1364H40.8136ZM45.3696 23.7619V21.3217L43.4854 23.7619H45.3696ZM53.4925 27.6228C52.7821 27.6228 52.1386 27.4581 51.562 27.1286C50.9958 26.7889 50.5427 26.3049 50.203 25.6769C49.8735 25.0386 49.7088 24.2767 49.7088 23.3912C49.7088 22.7426 49.8323 22.1248 50.0794 21.538C50.3368 20.9511 50.6766 20.3951 51.0987 19.87C51.5312 19.3346 52.0202 18.8404 52.5659 18.3874C53.1219 17.9344 53.6984 17.5174 54.2956 17.1365L55.5002 18.4492C54.5839 18.861 53.8374 19.3552 53.2609 19.9318C52.6946 20.5084 52.2828 21.0798 52.0254 21.6461C52.2828 21.399 52.5762 21.2136 52.9057 21.0901C53.2454 20.9562 53.6418 20.8893 54.0948 20.8893C54.6096 20.8893 55.0987 21.0335 55.562 21.3217C56.0253 21.5997 56.4011 21.9858 56.6894 22.48C56.988 22.9639 57.1373 23.5251 57.1373 24.1634C57.1373 24.8841 56.9622 25.5019 56.6122 26.0167C56.2621 26.5315 55.8091 26.9278 55.2531 27.2058C54.7074 27.4838 54.1206 27.6228 53.4925 27.6228ZM53.4153 26.0167C53.9404 26.0167 54.378 25.8519 54.728 25.5225C55.0884 25.193 55.2686 24.74 55.2686 24.1634C55.2686 23.6177 55.0884 23.1904 54.728 22.8816C54.3677 22.5624 53.9301 22.4028 53.4153 22.4028C52.9005 22.4028 52.4629 22.5572 52.1026 22.8661C51.7422 23.1647 51.562 23.5251 51.562 23.9472V24.2561C51.562 24.5649 51.6444 24.8532 51.8091 25.1209C51.9739 25.3886 52.1952 25.6048 52.4732 25.7696C52.7512 25.9343 53.0652 26.0167 53.4153 26.0167ZM58.2458 22.2793C58.2458 22.0116 58.3436 21.7902 58.5393 21.6152C58.7349 21.4299 58.9511 21.3372 59.1879 21.3372C59.4041 21.3372 59.61 21.4299 59.8057 21.6152C60.0013 21.7902 60.0991 22.0116 60.0991 22.2793C60.0991 22.5675 60.0013 22.7992 59.8057 22.9742C59.61 23.139 59.4041 23.2213 59.1879 23.2213C58.9511 23.2213 58.7349 23.139 58.5393 22.9742C58.3436 22.7992 58.2458 22.5675 58.2458 22.2793ZM58.2458 26.5572C58.2458 26.2998 58.3436 26.0784 58.5393 25.8931C58.7349 25.7078 58.9511 25.6151 59.1879 25.6151C59.4041 25.6151 59.61 25.7078 59.8057 25.8931C60.0013 26.0784 60.0991 26.2998 60.0991 26.5572C60.0991 26.8455 60.0013 27.0771 59.8057 27.2522C59.61 27.4169 59.4041 27.4993 59.1879 27.4993C58.9511 27.4993 58.7349 27.4169 58.5393 27.2522C58.3436 27.0771 58.2458 26.8455 58.2458 26.5572ZM67.6161 17.3064L65.4385 21.0438C65.871 21.0952 66.2725 21.2291 66.6432 21.4453C67.0138 21.6615 67.3124 21.9858 67.5389 22.4183C67.7757 22.8507 67.8941 23.4118 67.8941 24.1016C67.8941 24.8326 67.7242 25.4607 67.3845 25.9858C67.055 26.5109 66.6123 26.9176 66.0563 27.2058C65.5106 27.4838 64.9134 27.6228 64.2648 27.6228C63.7603 27.6228 63.2507 27.5199 62.7359 27.3139C62.2211 27.108 61.8041 26.8352 61.4849 26.4954L62.3961 25.0128C62.5711 25.229 62.8234 25.4298 63.1529 25.6151C63.4926 25.8004 63.8478 25.8931 64.2185 25.8931C64.6921 25.8931 65.1142 25.7284 65.4849 25.3989C65.8555 25.0591 66.0408 24.5907 66.0408 23.9935C66.0408 23.4684 65.8813 23.0515 65.5621 22.7426C65.2532 22.4234 64.8311 22.2638 64.2957 22.2638C63.9971 22.2638 63.7552 22.2844 63.5698 22.3256C63.3845 22.3565 63.2095 22.3977 63.0447 22.4491L62.9984 22.4028L65.0216 19.0361H62.1799V17.3064H67.6161ZM75.5226 17.3064L73.345 21.0438C73.7775 21.0952 74.179 21.2291 74.5497 21.4453C74.9203 21.6615 75.2189 21.9858 75.4454 22.4183C75.6822 22.8507 75.8006 23.4118 75.8006 24.1016C75.8006 24.8326 75.6307 25.4607 75.291 25.9858C74.9615 26.5109 74.5188 26.9176 73.9628 27.2058C73.4171 27.4838 72.82 27.6228 72.1713 27.6228C71.6668 27.6228 71.1572 27.5199 70.6424 27.3139C70.1276 27.108 69.7106 26.8352 69.3914 26.4954L70.3026 25.0128C70.4776 25.229 70.7299 25.4298 71.0594 25.6151C71.3991 25.8004 71.7543 25.8931 72.125 25.8931C72.5986 25.8931 73.0207 25.7284 73.3914 25.3989C73.762 25.0591 73.9474 24.5907 73.9474 23.9935C73.9474 23.4684 73.7878 23.0515 73.4686 22.7426C73.1597 22.4234 72.7376 22.2638 72.2022 22.2638C71.9036 22.2638 71.6617 22.2844 71.4763 22.3256C71.291 22.3565 71.116 22.3977 70.9513 22.4491L70.9049 22.4028L72.9281 19.0361H70.0864V17.3064H75.5226Z" fill="white"/>
</g>
<defs>
<filter id="filter0_d" x="0.18457" y="0.499268" width="94.5258" height="53.8295" filterUnits="userSpaceOnUse" color-interpolation-filters="sRGB">
<feFlood flood-opacity="0" result="BackgroundImageFix"/>
<feColorMatrix in="SourceAlpha" type="matrix" values="0 0 0 0 0 0 0 0 0 0 0 0 0 0 0 0 0 0 127 0" result="hardAlpha"/>
<feOffset dy="4"/>
<feGaussianBlur stdDeviation="2"/>
<feColorMatrix type="matrix" values="0 0 0 0 0 0 0 0 0 0 0 0 0 0 0 0 0 0 0.25 0"/>
<feBlend mode="normal" in2="BackgroundImageFix" result="effect1_dropShadow"/>
<feBlend mode="normal" in="SourceGraphic" in2="effect1_dropShadow" result="shape"/>
</filter>
<filter id="filter1_d" x="2.25409" y="0.499268" width="90.3868" height="49.6904" filterUnits="userSpaceOnUse" color-interpolation-filters="sRGB">
<feFlood flood-opacity="0" result="BackgroundImageFix"/>
<feColorMatrix in="SourceAlpha" type="matrix" values="0 0 0 0 0 0 0 0 0 0 0 0 0 0 0 0 0 0 127 0" result="hardAlpha"/>
<feOffset dy="1.93048"/>
<feGaussianBlur stdDeviation="0.965238"/>
<feColorMatrix type="matrix" values="0 0 0 0 0 0 0 0 0 0 0 0 0 0 0 0 0 0 0.25 0"/>
<feBlend mode="normal" in2="BackgroundImageFix" result="effect1_dropShadow"/>
<feBlend mode="normal" in="SourceGraphic" in2="effect1_dropShadow" result="shape"/>
</filter>
</defs>
</svg>
