<svg width="94" height="47" viewBox="0 0 94 47" fill="none" xmlns="http://www.w3.org/2000/svg">
<g filter="url(#filter0_d)">
<path d="M34.9634 23.566C34.1397 23.5763 33.4036 23.3807 32.7549 22.9792C32.1166 22.5776 31.6069 21.9908 31.226 21.2186C30.8553 20.4464 30.67 19.5043 30.67 18.3924C30.67 17.1775 30.8502 16.1891 31.2106 15.4272C31.5709 14.6653 32.0703 14.1093 32.7086 13.7592C33.3572 13.3989 34.1088 13.2238 34.9634 13.2341C35.7768 13.2238 36.5078 13.4195 37.1564 13.821C37.8051 14.2225 38.3147 14.8094 38.6854 15.5816C39.056 16.3435 39.2413 17.2804 39.2413 18.3924C39.2413 19.5352 39.0509 20.4927 38.6699 21.2649C38.2993 22.0371 37.7896 22.6188 37.141 23.0101C36.5026 23.391 35.7768 23.5763 34.9634 23.566ZM34.948 21.8518C35.5142 21.8518 35.9724 21.7025 36.3225 21.4039C36.6828 21.1053 36.9454 20.6935 37.1101 20.1684C37.2851 19.633 37.3726 19.0256 37.3726 18.346C37.3726 17.6871 37.2851 17.1054 37.1101 16.6009C36.9454 16.0861 36.6828 15.6846 36.3225 15.3963C35.9621 15.108 35.5039 14.9638 34.948 14.9638C34.3817 14.9638 33.9235 15.1131 33.5735 15.4117C33.2234 15.7 32.9608 16.1015 32.7858 16.6163C32.6211 17.1311 32.5387 17.7231 32.5387 18.3924C32.5387 19.0513 32.6211 19.6433 32.7858 20.1684C32.9608 20.6935 33.2234 21.1053 33.5735 21.4039C33.9235 21.7025 34.3817 21.8518 34.948 21.8518ZM40.7394 13.3422H43.5656V23.5352H41.7587V15.0719H40.7394V13.3422ZM45.6653 18.3151C45.6653 18.0475 45.7632 17.8261 45.9588 17.6511C46.1544 17.4657 46.3706 17.3731 46.6074 17.3731C46.8236 17.3731 47.0296 17.4657 47.2252 17.6511C47.4208 17.8261 47.5186 18.0475 47.5186 18.3151C47.5186 18.6034 47.4208 18.8351 47.2252 19.0101C47.0296 19.1749 46.8236 19.2572 46.6074 19.2572C46.3706 19.2572 46.1544 19.1749 45.9588 19.0101C45.7632 18.8351 45.6653 18.6034 45.6653 18.3151ZM45.6653 22.5931C45.6653 22.3357 45.7632 22.1143 45.9588 21.929C46.1544 21.7437 46.3706 21.651 46.6074 21.651C46.8236 21.651 47.0296 21.7437 47.2252 21.929C47.4208 22.1143 47.5186 22.3357 47.5186 22.5931C47.5186 22.8814 47.4208 23.113 47.2252 23.2881C47.0296 23.4528 46.8236 23.5352 46.6074 23.5352C46.3706 23.5352 46.1544 23.4528 45.9588 23.2881C45.7632 23.113 45.6653 22.8814 45.6653 22.5931ZM51.9314 23.6587C51.3549 23.6587 50.7989 23.5557 50.2635 23.3498C49.7384 23.1336 49.3214 22.8711 49.0126 22.5622L49.9546 21.1414C50.1503 21.3782 50.4179 21.5686 50.7577 21.7128C51.1078 21.8569 51.4475 21.929 51.777 21.929C52.2609 21.929 52.6676 21.7746 52.9971 21.4657C53.3265 21.1568 53.4913 20.7398 53.4913 20.2147C53.4913 19.6485 53.3317 19.1852 53.0125 18.8248C52.6933 18.4644 52.2403 18.2843 51.6534 18.2843C51.3137 18.2843 50.9894 18.3306 50.6805 18.4233C50.3819 18.5159 50.0576 18.6652 49.7075 18.8711H49.6921V13.3422H54.6495V15.0719H51.2365V16.8634C51.5145 16.8017 51.7976 16.7708 52.0859 16.7708C52.786 16.7708 53.378 16.9304 53.8619 17.2495C54.3458 17.5584 54.7113 17.9702 54.9584 18.485C55.2158 18.9895 55.3445 19.5455 55.3445 20.153C55.3445 20.8119 55.1952 21.4091 54.8966 21.9444C54.5981 22.4695 54.1914 22.8865 53.6766 23.1954C53.1618 23.5043 52.5801 23.6587 51.9314 23.6587ZM56.5412 21.1723V21.1568L62.8886 13.2187H62.904V19.7978H64.1859V21.1723H62.904V23.5352H61.0971V21.1723H56.5412ZM61.0971 19.7978V17.3576L59.2129 19.7978H61.0971Z" fill="white"/>
<g filter="url(#filter1_d)">
<rect x="4.96387" y="0.535156" width="84.9585" height="37.5984" rx="4.82619" fill="#E6BEAE"/>
</g>
<path d="M24.5213 23.566C23.6977 23.5763 22.9615 23.3807 22.3129 22.9792C21.6745 22.5776 21.1649 21.9908 20.7839 21.2186C20.4133 20.4464 20.228 19.5043 20.228 18.3924C20.228 17.1775 20.4081 16.1891 20.7685 15.4272C21.1288 14.6653 21.6282 14.1093 22.2665 13.7592C22.9152 13.3989 23.6668 13.2238 24.5213 13.2341C25.3347 13.2238 26.0657 13.4195 26.7144 13.821C27.363 14.2225 27.8726 14.8094 28.2433 15.5816C28.6139 16.3435 28.7993 17.2804 28.7993 18.3924C28.7993 19.5352 28.6088 20.4927 28.2278 21.2649C27.8572 22.0371 27.3475 22.6188 26.6989 23.0101C26.0606 23.391 25.3347 23.5763 24.5213 23.566ZM24.5059 21.8518C25.0722 21.8518 25.5303 21.7025 25.8804 21.4039C26.2407 21.1053 26.5033 20.6935 26.668 20.1684C26.8431 19.633 26.9306 19.0256 26.9306 18.346C26.9306 17.6871 26.8431 17.1054 26.668 16.6009C26.5033 16.0861 26.2407 15.6846 25.8804 15.3963C25.52 15.108 25.0619 14.9638 24.5059 14.9638C23.9396 14.9638 23.4814 15.1131 23.1314 15.4117C22.7813 15.7 22.5188 16.1015 22.3438 16.6163C22.179 17.1311 22.0967 17.7231 22.0967 18.3924C22.0967 19.0513 22.179 19.6433 22.3438 20.1684C22.5188 20.6935 22.7813 21.1053 23.1314 21.4039C23.4814 21.7025 23.9396 21.8518 24.5059 21.8518ZM30.2973 13.3422H33.1235V23.5352H31.3166V15.0719H30.2973V13.3422ZM35.2233 18.3151C35.2233 18.0475 35.3211 17.8261 35.5167 17.6511C35.7123 17.4657 35.9286 17.3731 36.1654 17.3731C36.3816 17.3731 36.5875 17.4657 36.7831 17.6511C36.9787 17.8261 37.0765 18.0475 37.0765 18.3151C37.0765 18.6034 36.9787 18.8351 36.7831 19.0101C36.5875 19.1749 36.3816 19.2572 36.1654 19.2572C35.9286 19.2572 35.7123 19.1749 35.5167 19.0101C35.3211 18.8351 35.2233 18.6034 35.2233 18.3151ZM35.2233 22.5931C35.2233 22.3357 35.3211 22.1143 35.5167 21.929C35.7123 21.7437 35.9286 21.651 36.1654 21.651C36.3816 21.651 36.5875 21.7437 36.7831 21.929C36.9787 22.1143 37.0765 22.3357 37.0765 22.5931C37.0765 22.8814 36.9787 23.113 36.7831 23.2881C36.5875 23.4528 36.3816 23.5352 36.1654 23.5352C35.9286 23.5352 35.7123 23.4528 35.5167 23.2881C35.3211 23.113 35.2233 22.8814 35.2233 22.5931ZM42.555 23.566C41.7313 23.5763 40.9952 23.3807 40.3465 22.9792C39.7082 22.5776 39.1985 21.9908 38.8176 21.2186C38.4469 20.4464 38.2616 19.5043 38.2616 18.3924C38.2616 17.1775 38.4418 16.1891 38.8021 15.4272C39.1625 14.6653 39.6619 14.1093 40.3002 13.7592C40.9488 13.3989 41.7004 13.2238 42.555 13.2341C43.3684 13.2238 44.0994 13.4195 44.748 13.821C45.3967 14.2225 45.9063 14.8094 46.2769 15.5816C46.6476 16.3435 46.8329 17.2804 46.8329 18.3924C46.8329 19.5352 46.6425 20.4927 46.2615 21.2649C45.8909 22.0371 45.3812 22.6188 44.7326 23.0101C44.0942 23.391 43.3684 23.5763 42.555 23.566ZM42.5395 21.8518C43.1058 21.8518 43.564 21.7025 43.914 21.4039C44.2744 21.1053 44.5369 20.6935 44.7017 20.1684C44.8767 19.633 44.9642 19.0256 44.9642 18.346C44.9642 17.6871 44.8767 17.1054 44.7017 16.6009C44.5369 16.0861 44.2744 15.6846 43.914 15.3963C43.5537 15.108 43.0955 14.9638 42.5395 14.9638C41.9733 14.9638 41.5151 15.1131 41.165 15.4117C40.815 15.7 40.5524 16.1015 40.3774 16.6163C40.2127 17.1311 40.1303 17.7231 40.1303 18.3924C40.1303 19.0513 40.2127 19.6433 40.3774 20.1684C40.5524 20.6935 40.815 21.1053 41.165 21.4039C41.5151 21.7025 41.9733 21.8518 42.5395 21.8518ZM51.2962 23.6587C50.7196 23.6587 50.1636 23.5557 49.6283 23.3498C49.1032 23.1336 48.6862 22.8711 48.3773 22.5622L49.3194 21.1414C49.515 21.3782 49.7827 21.5686 50.1225 21.7128C50.4725 21.8569 50.8123 21.929 51.1417 21.929C51.6257 21.929 52.0323 21.7746 52.3618 21.4657C52.6913 21.1568 52.856 20.7398 52.856 20.2147C52.856 19.6485 52.6964 19.1852 52.3773 18.8248C52.0581 18.4644 51.6051 18.2843 51.0182 18.2843C50.6784 18.2843 50.3541 18.3306 50.0452 18.4233C49.7467 18.5159 49.4223 18.6652 49.0723 18.8711H49.0568V13.3422H54.0143V15.0719H50.6012V16.8634C50.8792 16.8017 51.1623 16.7708 51.4506 16.7708C52.1507 16.7708 52.7428 16.9304 53.2267 17.2495C53.7106 17.5584 54.0761 17.9702 54.3232 18.485C54.5806 18.9895 54.7093 19.5455 54.7093 20.153C54.7093 20.8119 54.56 21.4091 54.2614 21.9444C53.9628 22.4695 53.5561 22.8865 53.0413 23.1954C52.5265 23.5043 51.9448 23.6587 51.2962 23.6587ZM56.1376 18.3151C56.1376 18.0475 56.2354 17.8261 56.431 17.6511C56.6266 17.4657 56.8428 17.3731 57.0796 17.3731C57.2959 17.3731 57.5018 17.4657 57.6974 17.6511C57.893 17.8261 57.9908 18.0475 57.9908 18.3151C57.9908 18.6034 57.893 18.8351 57.6974 19.0101C57.5018 19.1749 57.2959 19.2572 57.0796 19.2572C56.8428 19.2572 56.6266 19.1749 56.431 19.0101C56.2354 18.8351 56.1376 18.6034 56.1376 18.3151ZM56.1376 22.5931C56.1376 22.3357 56.2354 22.1143 56.431 21.929C56.6266 21.7437 56.8428 21.651 57.0796 21.651C57.2959 21.651 57.5018 21.7437 57.6974 21.929C57.893 22.1143 57.9908 22.3357 57.9908 22.5931C57.9908 22.8814 57.893 23.113 57.6974 23.2881C57.5018 23.4528 57.2959 23.5352 57.0796 23.5352C56.8428 23.5352 56.6266 23.4528 56.431 23.2881C56.2354 23.113 56.1376 22.8814 56.1376 22.5931ZM62.4037 23.6587C61.8271 23.6587 61.2711 23.5557 60.7357 23.3498C60.2106 23.1336 59.7937 22.8711 59.4848 22.5622L60.4269 21.1414C60.6225 21.3782 60.8902 21.5686 61.2299 21.7128C61.58 21.8569 61.9198 21.929 62.2492 21.929C62.7331 21.929 63.1398 21.7746 63.4693 21.4657C63.7988 21.1568 63.9635 20.7398 63.9635 20.2147C63.9635 19.6485 63.8039 19.1852 63.4847 18.8248C63.1656 18.4644 62.7125 18.2843 62.1257 18.2843C61.7859 18.2843 61.4616 18.3306 61.1527 18.4233C60.8541 18.5159 60.5298 18.6652 60.1798 18.8711H60.1643V13.3422H65.1218V15.0719H61.7087V16.8634C61.9867 16.8017 62.2698 16.7708 62.5581 16.7708C63.2582 16.7708 63.8502 16.9304 64.3341 17.2495C64.818 17.5584 65.1835 17.9702 65.4306 18.485C65.688 18.9895 65.8167 19.5455 65.8167 20.153C65.8167 20.8119 65.6675 21.4091 65.3689 21.9444C65.0703 22.4695 64.6636 22.8865 64.1488 23.1954C63.634 23.5043 63.0523 23.6587 62.4037 23.6587ZM70.411 20.2611C69.9065 20.2611 69.4175 20.1221 68.9439 19.8441C68.4806 19.5661 68.0996 19.18 67.801 18.6858C67.5127 18.1916 67.3686 17.6305 67.3686 17.0024C67.3686 16.2302 67.5436 15.5713 67.8937 15.0256C68.2438 14.4799 68.6968 14.063 69.2527 13.7747C69.8087 13.4761 70.4007 13.3268 71.0288 13.3268C71.7289 13.3268 72.3621 13.4864 72.9284 13.8056C73.5049 14.1144 73.958 14.5469 74.2874 15.1028C74.6272 15.6588 74.7971 16.292 74.7971 17.0024C74.7971 17.8261 74.6478 18.5725 74.3492 19.2418C74.0506 19.9007 73.6542 20.4979 73.16 21.0333C72.6658 21.5686 72.1201 22.0628 71.523 22.5159C70.9258 22.9586 70.3287 23.3756 69.7315 23.7668L68.5269 22.4541C69.3609 22.0628 70.0867 21.6356 70.7045 21.1723C71.3325 20.7089 71.8216 20.2456 72.1716 19.7823C71.9451 19.9367 71.6877 20.0552 71.3994 20.1375C71.1112 20.2199 70.7817 20.2611 70.411 20.2611ZM71.0906 18.7476C71.6259 18.7476 72.0687 18.588 72.4187 18.2688C72.7688 17.9393 72.9438 17.5378 72.9438 17.0642V16.7553C72.9438 16.4259 72.8563 16.1273 72.6813 15.8596C72.5165 15.5816 72.2952 15.3602 72.0172 15.1955C71.7495 15.0205 71.4406 14.933 71.0906 14.933C70.5758 14.933 70.1382 15.108 69.7778 15.458C69.4175 15.7978 69.2373 16.2663 69.2373 16.8634C69.2373 17.4503 69.4175 17.9136 69.7778 18.2534C70.1382 18.5828 70.5758 18.7476 71.0906 18.7476Z" fill="white"/>
</g>
<defs>
<filter id="filter0_d" x="0.963867" y="0.535156" width="92.9585" height="45.5984" filterUnits="userSpaceOnUse" color-interpolation-filters="sRGB">
<feFlood flood-opacity="0" result="BackgroundImageFix"/>
<feColorMatrix in="SourceAlpha" type="matrix" values="0 0 0 0 0 0 0 0 0 0 0 0 0 0 0 0 0 0 127 0" result="hardAlpha"/>
<feOffset dy="4"/>
<feGaussianBlur stdDeviation="2"/>
<feColorMatrix type="matrix" values="0 0 0 0 0 0 0 0 0 0 0 0 0 0 0 0 0 0 0.25 0"/>
<feBlend mode="normal" in2="BackgroundImageFix" result="effect1_dropShadow"/>
<feBlend mode="normal" in="SourceGraphic" in2="effect1_dropShadow" result="shape"/>
</filter>
<filter id="filter1_d" x="3.03339" y="0.535156" width="88.8195" height="41.4594" filterUnits="userSpaceOnUse" color-interpolation-filters="sRGB">
<feFlood flood-opacity="0" result="BackgroundImageFix"/>
<feColorMatrix in="SourceAlpha" type="matrix" values="0 0 0 0 0 0 0 0 0 0 0 0 0 0 0 0 0 0 127 0" result="hardAlpha"/>
<feOffset dy="1.93048"/>
<feGaussianBlur stdDeviation="0.965238"/>
<feColorMatrix type="matrix" values="0 0 0 0 0 0 0 0 0 0 0 0 0 0 0 0 0 0 0.25 0"/>
<feBlend mode="normal" in2="BackgroundImageFix" result="effect1_dropShadow"/>
<feBlend mode="normal" in="SourceGraphic" in2="effect1_dropShadow" result="shape"/>
</filter>
</defs>
</svg>
