<svg width="72" height="67" viewBox="0 0 72 67" fill="none" xmlns="http://www.w3.org/2000/svg">
<path fill-rule="evenodd" clip-rule="evenodd" d="M71.4286 57.1785V60.2428C71.4286 63.8642 68.1809 66.9285 64.3428 66.9285H7.65714C3.81905 66.9285 0.57143 63.8642 0.57143 60.2428V57.1785C0.57143 49.1 10.6095 44.0857 20.0571 40.1857L20.9429 39.7678C21.681 39.4893 22.419 39.4893 23.1571 39.9071C26.9952 42.275 31.2762 43.5285 35.8524 43.5285C40.4286 43.5285 44.8571 42.1357 48.5476 39.9071C49.2857 39.4893 50.0238 39.4893 50.7619 39.7678L51.6476 40.1857C61.3905 44.0857 71.4286 48.9607 71.4286 57.1785ZM36 0.0714111C45.7429 0.0714111 53.5667 8.28927 53.5667 18.4571C53.5667 28.625 45.7429 36.8428 36 36.8428C26.2571 36.8428 18.4333 28.625 18.4333 18.4571C18.4333 8.28927 26.2571 0.0714111 36 0.0714111Z" fill="white"/>
</svg>
