<svg width="86" height="17" viewBox="0 0 86 17" fill="none" xmlns="http://www.w3.org/2000/svg">
<path d="M4.54098 2.50333C5.37494 2.50333 6.12783 2.65391 6.79963 2.95507C7.47144 3.24464 8.00425 3.68479 8.39807 4.27551C8.79188 4.85465 8.98879 5.56121 8.98879 6.39517C8.98879 7.11331 8.82663 7.80828 8.50231 8.48009C8.18958 9.15189 7.65676 9.66154 6.90388 10.009L10.066 15.0649H8.1027L5.1317 10.426C5.00429 10.4376 4.87109 10.4434 4.73209 10.4434H2.87304V15.0649H1.18774V2.50333H4.54098ZM4.69734 8.8102C5.36915 8.8102 5.88459 8.68858 6.24366 8.44534C6.61431 8.19052 6.87492 7.88357 7.0255 7.5245C7.17608 7.15385 7.25136 6.80057 7.25136 6.46467C7.25136 6.12877 7.17028 5.78128 7.00812 5.42221C6.84596 5.06315 6.58535 4.7562 6.22628 4.50138C5.8788 4.24655 5.40969 4.11914 4.81896 4.11914H2.87304V8.8102H4.69734ZM12.8312 2.50333H20.9971V4.11914H14.5165V7.94148H20.3022V9.55729H14.5165V13.4318H21.2404V15.0649H12.8312V2.50333ZM24.3559 15.0649V2.10373H24.3733L30.5586 10.8777L36.8307 2.10373H36.848V15.0649H35.1801V6.95115L30.5586 13.4839H30.5238L25.9891 7.17702V15.0649H24.3559ZM39.3805 15.0649L44.8708 1.98211H44.975L50.4653 15.0649H48.5194L47.2163 11.7638H42.3862L41.0484 15.0649H39.3805ZM42.977 10.3044H46.6429L44.8534 5.73495L42.977 10.3044ZM56.3408 2.50333C57.1747 2.50333 57.9276 2.65391 58.5994 2.95507C59.2712 3.24464 59.804 3.68479 60.1979 4.27551C60.5917 4.85465 60.7886 5.56121 60.7886 6.39517C60.7886 7.11331 60.6264 7.80828 60.3021 8.48009C59.9894 9.15189 59.4566 9.66154 58.7037 10.009L61.8658 15.0649H59.9025L56.9315 10.426C56.8041 10.4376 56.6709 10.4434 56.5319 10.4434H54.6728V15.0649H52.9875V2.50333H56.3408ZM56.4971 8.8102C57.1689 8.8102 57.6844 8.68858 58.0435 8.44534C58.4141 8.19052 58.6747 7.88357 58.8253 7.5245C58.9759 7.15385 59.0512 6.80057 59.0512 6.46467C59.0512 6.12877 58.9701 5.78128 58.8079 5.42221C58.6458 5.06315 58.3851 4.7562 58.0261 4.50138C57.6786 4.24655 57.2095 4.11914 56.6188 4.11914H54.6728V8.8102H56.4971ZM66.3511 7.55925L66.299 8.18472L66.5074 7.85461L71.6329 2.50333H73.822L68.6271 7.90674L74.1174 15.0649H71.9803L67.3935 8.96657L66.3337 9.99165L66.3511 15.0649H64.631V2.50333H66.3511V7.55925ZM83.1118 4.74462C82.6833 4.52454 82.2142 4.33343 81.7045 4.17127C81.1949 4.00911 80.7026 3.92803 80.2277 3.92803C79.5443 3.92803 78.9999 4.08439 78.5945 4.39713C78.2007 4.70987 78.0038 5.13264 78.0038 5.66545C78.0038 6.04769 78.1312 6.37201 78.386 6.63841C78.6524 6.90482 78.9883 7.14227 79.3937 7.35076C79.8107 7.54767 80.2509 7.73299 80.7142 7.90674C81.2354 8.10365 81.7393 8.34109 82.2257 8.61908C82.7122 8.89707 83.1118 9.27351 83.4246 9.74841C83.7489 10.2117 83.911 10.8372 83.911 11.6248C83.911 12.2966 83.7431 12.9047 83.4072 13.4491C83.0713 13.9819 82.5964 14.4105 81.9825 14.7348C81.3686 15.0476 80.6389 15.2039 79.7933 15.2039C78.9594 15.2039 78.1833 15.0707 77.4652 14.8043C76.7586 14.5379 76.1563 14.231 75.6583 13.8835L76.4054 12.5457C76.8108 12.8584 77.3088 13.1306 77.8995 13.3623C78.5019 13.5939 79.0752 13.7097 79.6196 13.7097C80.025 13.7097 80.4188 13.6403 80.8011 13.5013C81.1949 13.3623 81.5192 13.1422 81.774 12.841C82.0288 12.5283 82.1562 12.1287 82.1562 11.6422C82.1562 11.2252 82.0404 10.8719 81.8088 10.5824C81.5771 10.2928 81.2759 10.0496 80.9053 9.85266C80.5462 9.64416 80.1524 9.45884 79.7238 9.29668C79.33 9.15769 78.9304 8.99553 78.525 8.8102C78.1196 8.62487 77.7432 8.4048 77.3957 8.14998C77.0598 7.88357 76.7876 7.55925 76.5791 7.17702C76.3706 6.79478 76.2664 6.33147 76.2664 5.78707C76.2664 5.12685 76.4227 4.5535 76.7355 4.06702C77.0598 3.56896 77.4999 3.18093 78.0559 2.90294C78.6119 2.61337 79.2547 2.457 79.9845 2.43384C80.7837 2.43384 81.4902 2.53229 82.1041 2.7292C82.7296 2.92611 83.2798 3.16356 83.7547 3.44155L83.1118 4.74462Z" fill="black" fill-opacity="0.73"/>
<path d="M6.79963 2.95507L6.39058 3.86757L6.39717 3.87053L6.4038 3.87339L6.79963 2.95507ZM8.39807 4.27551L7.56598 4.83023L7.57114 4.83782L8.39807 4.27551ZM8.50231 8.48009L7.60167 8.0453L7.59573 8.05806L8.50231 8.48009ZM6.90388 10.009L6.48482 9.10106L5.45407 9.5768L6.05605 10.5393L6.90388 10.009ZM10.066 15.0649V16.0649H11.8709L10.9138 14.5347L10.066 15.0649ZM8.1027 15.0649L7.2606 15.6043L7.55564 16.0649H8.1027V15.0649ZM5.1317 10.426L5.9738 9.88669L5.64616 9.37511L5.04116 9.43011L5.1317 10.426ZM2.87304 10.4434V9.44338H1.87304V10.4434H2.87304ZM2.87304 15.0649V16.0649H3.87304V15.0649H2.87304ZM1.18774 15.0649H0.18774V16.0649H1.18774V15.0649ZM1.18774 2.50333V1.50333H0.18774V2.50333H1.18774ZM6.24366 8.44534L6.80452 9.27328L6.81018 9.26938L6.24366 8.44534ZM7.0255 7.5245L7.94775 7.91125L7.95197 7.90088L7.0255 7.5245ZM7.00813 5.42221L6.09675 5.8338L7.00813 5.42221ZM6.22628 4.50138L5.63492 5.30778L5.64119 5.31238L5.64753 5.31688L6.22628 4.50138ZM2.87304 4.11914V3.11914H1.87304V4.11914H2.87304ZM2.87304 8.8102H1.87304V9.8102H2.87304V8.8102ZM4.54098 3.50333C5.25266 3.50333 5.86348 3.63129 6.39058 3.86757L7.20869 2.04256C6.39217 1.67653 5.49722 1.50333 4.54098 1.50333V3.50333ZM6.4038 3.87339C6.90382 4.08892 7.28281 4.4054 7.56602 4.83021L9.23012 3.72081C8.72569 2.96417 8.03905 2.40036 7.19546 2.03674L6.4038 3.87339ZM7.57114 4.83782C7.83208 5.22156 7.98879 5.72275 7.98879 6.39517H9.98879C9.98879 5.39966 9.75169 4.48775 9.22499 3.7132L7.57114 4.83782ZM7.98879 6.39517C7.98879 6.95686 7.86324 7.5037 7.60176 8.04534L9.40286 8.91484C9.79002 8.11286 9.98879 7.26976 9.98879 6.39517H7.98879ZM7.59573 8.05806C7.39486 8.48955 7.05009 8.84017 6.48482 9.10106L7.32294 10.917C8.26344 10.4829 8.98429 9.81424 9.40889 8.90212L7.59573 8.05806ZM6.05605 10.5393L9.21816 15.5952L10.9138 14.5347L7.75171 9.47876L6.05605 10.5393ZM10.066 14.0649H8.1027V16.0649H10.066V14.0649ZM8.94481 14.5256L5.9738 9.88669L4.2896 10.9653L7.2606 15.6043L8.94481 14.5256ZM5.04116 9.43011C4.9463 9.43874 4.84342 9.44338 4.73209 9.44338V11.4434C4.89875 11.4434 5.06228 11.4364 5.22224 11.4219L5.04116 9.43011ZM4.73209 9.44338H2.87304V11.4434H4.73209V9.44338ZM1.87304 10.4434V15.0649H3.87304V10.4434H1.87304ZM2.87304 14.0649H1.18774V16.0649H2.87304V14.0649ZM2.18774 15.0649V2.50333H0.18774V15.0649H2.18774ZM1.18774 3.50333H4.54098V1.50333H1.18774V3.50333ZM4.69735 9.8102C5.46724 9.8102 6.21194 9.67467 6.8045 9.27326L5.68281 7.61742C5.55723 7.70249 5.27106 7.8102 4.69735 7.8102V9.8102ZM6.81018 9.26938C7.31378 8.92316 7.71199 8.47329 7.94769 7.91123L6.10331 7.13778C6.03785 7.29385 5.91483 7.45787 5.67713 7.6213L6.81018 9.26938ZM7.95197 7.90088C8.14202 7.43306 8.25137 6.95173 8.25137 6.46467H6.25137C6.25137 6.64942 6.21013 6.87464 6.09903 7.14813L7.95197 7.90088ZM8.25137 6.46467C8.25137 5.9644 8.13007 5.4769 7.91949 5.01063L6.09675 5.8338C6.2105 6.08566 6.25137 6.29314 6.25137 6.46467H8.25137ZM7.91949 5.01063C7.67596 4.47137 7.29144 4.03106 6.80503 3.68587L5.64753 5.31688C5.87926 5.48134 6.01597 5.65492 6.09675 5.8338L7.91949 5.01063ZM6.81765 3.69497C6.2453 3.27525 5.54502 3.11914 4.81897 3.11914V5.11914C5.27436 5.11914 5.51229 5.21785 5.63492 5.30778L6.81765 3.69497ZM4.81897 3.11914H2.87304V5.11914H4.81897V3.11914ZM1.87304 4.11914V8.8102H3.87304V4.11914H1.87304ZM2.87304 9.8102H4.69735V7.8102H2.87304V9.8102ZM12.8312 2.50333V1.50333H11.8312V2.50333H12.8312ZM20.9971 2.50333H21.9971V1.50333H20.9971V2.50333ZM20.9971 4.11914V5.11914H21.9971V4.11914H20.9971ZM14.5165 4.11914V3.11914H13.5165V4.11914H14.5165ZM14.5165 7.94148H13.5165V8.94148H14.5165V7.94148ZM20.3022 7.94148H21.3022V6.94148H20.3022V7.94148ZM20.3022 9.55729V10.5573H21.3022V9.55729H20.3022ZM14.5165 9.55729V8.55729H13.5165V9.55729H14.5165ZM14.5165 13.4318H13.5165V14.4318H14.5165V13.4318ZM21.2404 13.4318H22.2404V12.4318H21.2404V13.4318ZM21.2404 15.0649V16.0649H22.2404V15.0649H21.2404ZM12.8312 15.0649H11.8312V16.0649H12.8312V15.0649ZM12.8312 3.50333H20.9971V1.50333H12.8312V3.50333ZM19.9971 2.50333V4.11914H21.9971V2.50333H19.9971ZM20.9971 3.11914H14.5165V5.11914H20.9971V3.11914ZM13.5165 4.11914V7.94148H15.5165V4.11914H13.5165ZM14.5165 8.94148H20.3022V6.94148H14.5165V8.94148ZM19.3022 7.94148V9.55729H21.3022V7.94148H19.3022ZM20.3022 8.55729H14.5165V10.5573H20.3022V8.55729ZM13.5165 9.55729V13.4318H15.5165V9.55729H13.5165ZM14.5165 14.4318H21.2404V12.4318H14.5165V14.4318ZM20.2404 13.4318V15.0649H22.2404V13.4318H20.2404ZM21.2404 14.0649H12.8312V16.0649H21.2404V14.0649ZM13.8312 15.0649V2.50333H11.8312V15.0649H13.8312ZM24.3559 15.0649H23.3559V16.0649H24.3559V15.0649ZM24.3559 2.10373V1.10373H23.3559V2.10373H24.3559ZM24.3733 2.10373L25.1906 1.52755L24.8919 1.10373H24.3733V2.10373ZM30.5586 10.8777L29.7412 11.4539L30.5529 12.6053L31.3721 11.4593L30.5586 10.8777ZM36.8307 2.10373V1.10373H36.3163L36.0172 1.52218L36.8307 2.10373ZM36.848 2.10373H37.848V1.10373H36.848V2.10373ZM36.848 15.0649V16.0649H37.848V15.0649H36.848ZM35.1801 15.0649H34.1801V16.0649H35.1801V15.0649ZM35.1801 6.95115H36.1801V3.80612L34.3637 6.37362L35.1801 6.95115ZM30.5586 13.4839V14.4839H31.076L31.3749 14.0614L30.5586 13.4839ZM30.5238 13.4839L29.7119 14.0677L30.0112 14.4839H30.5238V13.4839ZM25.9891 7.17702L26.801 6.59324L24.9891 4.07322V7.17702H25.9891ZM25.9891 15.0649V16.0649H26.9891V15.0649H25.9891ZM25.3559 15.0649V2.10373H23.3559V15.0649H25.3559ZM24.3559 3.10373H24.3733V1.10373H24.3559V3.10373ZM23.556 2.6799L29.7412 11.4539L31.3759 10.3016L25.1906 1.52755L23.556 2.6799ZM31.3721 11.4593L37.6442 2.68527L36.0172 1.52218L29.745 10.2962L31.3721 11.4593ZM36.8307 3.10373H36.848V1.10373H36.8307V3.10373ZM35.848 2.10373V15.0649H37.848V2.10373H35.848ZM36.848 14.0649H35.1801V16.0649H36.848V14.0649ZM36.1801 15.0649V6.95115H34.1801V15.0649H36.1801ZM34.3637 6.37362L29.7422 12.9063L31.3749 14.0614L35.9965 7.52869L34.3637 6.37362ZM30.5586 12.4839H30.5238V14.4839H30.5586V12.4839ZM31.3357 12.9001L26.801 6.59324L25.1772 7.76079L29.7119 14.0677L31.3357 12.9001ZM24.9891 7.17702V15.0649H26.9891V7.17702H24.9891ZM25.9891 14.0649H24.3559V16.0649H25.9891V14.0649ZM39.3805 15.0649L38.4584 14.678L37.8763 16.0649H39.3805V15.0649ZM44.8708 1.98211V0.982105H44.2059L43.9487 1.59514L44.8708 1.98211ZM44.975 1.98211L45.8971 1.59514L45.6398 0.982105H44.975V1.98211ZM50.4653 15.0649V16.0649H51.9694L51.3874 14.678L50.4653 15.0649ZM48.5194 15.0649L47.5892 15.4321L47.839 16.0649H48.5194V15.0649ZM47.2163 11.7638L48.1464 11.3967L47.8966 10.7638H47.2163V11.7638ZM42.3862 11.7638V10.7638H41.7125L41.4594 11.3882L42.3862 11.7638ZM41.0484 15.0649V16.0649H41.7222L41.9752 15.4405L41.0484 15.0649ZM42.977 10.3044L42.0519 9.92452L41.4853 11.3044H42.977V10.3044ZM46.6429 10.3044V11.3044H48.1085L47.5741 9.93972L46.6429 10.3044ZM44.8534 5.73495L45.7845 5.37029L44.8754 3.04888L43.9283 5.35509L44.8534 5.73495ZM40.3026 15.4519L45.7929 2.36907L43.9487 1.59514L38.4584 14.678L40.3026 15.4519ZM44.8708 2.98211H44.975V0.982105H44.8708V2.98211ZM44.0529 2.36907L49.5432 15.4519L51.3874 14.678L45.8971 1.59514L44.0529 2.36907ZM50.4653 14.0649H48.5194V16.0649H50.4653V14.0649ZM49.4495 14.6978L48.1464 11.3967L46.2861 12.131L47.5892 15.4321L49.4495 14.6978ZM47.2163 10.7638H42.3862V12.7638H47.2163V10.7638ZM41.4594 11.3882L40.1216 14.6894L41.9752 15.4405L43.313 12.1394L41.4594 11.3882ZM41.0484 14.0649H39.3805V16.0649H41.0484V14.0649ZM42.977 11.3044H46.6429V9.30439H42.977V11.3044ZM47.5741 9.93972L45.7845 5.37029L43.9222 6.09962L45.7118 10.6691L47.5741 9.93972ZM43.9283 5.35509L42.0519 9.92452L43.902 10.6843L45.7784 6.11482L43.9283 5.35509ZM58.5994 2.95507L58.1904 3.86757L58.197 3.87053L58.2036 3.87339L58.5994 2.95507ZM60.1979 4.27551L59.3658 4.83023L59.3709 4.83782L60.1979 4.27551ZM60.3021 8.48009L59.4015 8.0453L59.3955 8.05806L60.3021 8.48009ZM58.7037 10.009L58.2846 9.10106L57.2539 9.5768L57.8558 10.5393L58.7037 10.009ZM61.8658 15.0649V16.0649H63.6707L62.7136 14.5347L61.8658 15.0649ZM59.9025 15.0649L59.0604 15.6043L59.3554 16.0649H59.9025V15.0649ZM56.9315 10.426L57.7736 9.88669L57.446 9.37511L56.841 9.43011L56.9315 10.426ZM54.6728 10.4434V9.44338H53.6728V10.4434H54.6728ZM54.6728 15.0649V16.0649H55.6728V15.0649H54.6728ZM52.9875 15.0649H51.9875V16.0649H52.9875V15.0649ZM52.9875 2.50333V1.50333H51.9875V2.50333H52.9875ZM58.0434 8.44534L58.6043 9.27328L58.61 9.26938L58.0434 8.44534ZM58.8253 7.5245L59.7476 7.91125L59.7518 7.90088L58.8253 7.5245ZM58.8079 5.42221L57.8966 5.8338L58.8079 5.42221ZM58.0261 4.50138L57.4347 5.30778L57.441 5.31238L57.4473 5.31688L58.0261 4.50138ZM54.6728 4.11914V3.11914H53.6728V4.11914H54.6728ZM54.6728 8.8102H53.6728V9.8102H54.6728V8.8102ZM56.3408 3.50333C57.0525 3.50333 57.6633 3.63129 58.1904 3.86757L59.0085 2.04256C58.192 1.67653 57.297 1.50333 56.3408 1.50333V3.50333ZM58.2036 3.87339C58.7036 4.08892 59.0826 4.4054 59.3658 4.83021L61.0299 3.72081C60.5255 2.96417 59.8389 2.40036 58.9953 2.03674L58.2036 3.87339ZM59.3709 4.83782C59.6319 5.22156 59.7886 5.72275 59.7886 6.39517H61.7886C61.7886 5.39966 61.5515 4.48775 61.0248 3.7132L59.3709 4.83782ZM59.7886 6.39517C59.7886 6.95686 59.663 7.5037 59.4016 8.04534L61.2027 8.91484C61.5898 8.11286 61.7886 7.26976 61.7886 6.39517H59.7886ZM59.3955 8.05806C59.1947 8.48955 58.8499 8.84017 58.2846 9.10106L59.1227 10.917C60.0632 10.4829 60.7841 9.81424 61.2087 8.90212L59.3955 8.05806ZM57.8558 10.5393L61.018 15.5952L62.7136 14.5347L59.5515 9.47876L57.8558 10.5393ZM61.8658 14.0649H59.9025V16.0649H61.8658V14.0649ZM60.7446 14.5256L57.7736 9.88669L56.0894 10.9653L59.0604 15.6043L60.7446 14.5256ZM56.841 9.43011C56.7461 9.43874 56.6432 9.44338 56.5319 9.44338V11.4434C56.6985 11.4434 56.8621 11.4364 57.022 11.4219L56.841 9.43011ZM56.5319 9.44338H54.6728V11.4434H56.5319V9.44338ZM53.6728 10.4434V15.0649H55.6728V10.4434H53.6728ZM54.6728 14.0649H52.9875V16.0649H54.6728V14.0649ZM53.9875 15.0649V2.50333H51.9875V15.0649H53.9875ZM52.9875 3.50333H56.3408V1.50333H52.9875V3.50333ZM56.4971 9.8102C57.267 9.8102 58.0117 9.67467 58.6043 9.27326L57.4826 7.61742C57.357 7.70249 57.0709 7.8102 56.4971 7.8102V9.8102ZM58.61 9.26938C59.1136 8.92316 59.5118 8.47329 59.7475 7.91123L57.9031 7.13778C57.8376 7.29385 57.7146 7.45787 57.4769 7.6213L58.61 9.26938ZM59.7518 7.90088C59.9418 7.43306 60.0512 6.95173 60.0512 6.46467H58.0512C58.0512 6.64942 58.0099 6.87464 57.8988 7.14813L59.7518 7.90088ZM60.0512 6.46467C60.0512 5.9644 59.9299 5.4769 59.7193 5.01063L57.8966 5.8338C58.0103 6.08566 58.0512 6.29314 58.0512 6.46467H60.0512ZM59.7193 5.01063C59.4758 4.47137 59.0912 4.03106 58.6048 3.68587L57.4473 5.31688C57.6791 5.48134 57.8158 5.65492 57.8966 5.8338L59.7193 5.01063ZM58.6174 3.69497C58.0451 3.27525 57.3448 3.11914 56.6188 3.11914V5.11914C57.0742 5.11914 57.3121 5.21785 57.4347 5.30778L58.6174 3.69497ZM56.6188 3.11914H54.6728V5.11914H56.6188V3.11914ZM53.6728 4.11914V8.8102H55.6728V4.11914H53.6728ZM54.6728 9.8102H56.4971V7.8102H54.6728V9.8102ZM66.3511 7.55925L67.3476 7.6423L67.3511 7.60085V7.55925H66.3511ZM66.299 8.18472L65.3024 8.10168L67.1444 8.71872L66.299 8.18472ZM66.5074 7.85461L65.7853 7.16291L65.7157 7.23556L65.662 7.32062L66.5074 7.85461ZM71.6329 2.50333V1.50333H71.206L70.9107 1.81163L71.6329 2.50333ZM73.822 2.50333L74.5429 3.1964L76.1706 1.50333H73.822V2.50333ZM68.6271 7.90674L67.9062 7.21367L67.3105 7.8333L67.8336 8.51533L68.6271 7.90674ZM74.1174 15.0649V16.0649H76.1446L74.9109 14.4563L74.1174 15.0649ZM71.9803 15.0649L71.1812 15.666L71.4812 16.0649H71.9803V15.0649ZM67.3935 8.96657L68.1927 8.36547L67.5121 7.46062L66.6983 8.24778L67.3935 8.96657ZM66.3337 9.99165L65.6385 9.27286L65.3323 9.56905L65.3337 9.99508L66.3337 9.99165ZM66.3511 15.0649V16.0649H67.3545L67.3511 15.0615L66.3511 15.0649ZM64.631 15.0649H63.631V16.0649H64.631V15.0649ZM64.631 2.50333V1.50333H63.631V2.50333H64.631ZM66.3511 2.50333H67.3511V1.50333H66.3511V2.50333ZM65.3545 7.47621L65.3024 8.10168L67.2955 8.26777L67.3476 7.6423L65.3545 7.47621ZM67.1444 8.71872L67.3529 8.38861L65.662 7.32062L65.4535 7.65073L67.1444 8.71872ZM67.2296 8.54632L72.355 3.19504L70.9107 1.81163L65.7853 7.16291L67.2296 8.54632ZM71.6329 3.50333H73.822V1.50333H71.6329V3.50333ZM73.1011 1.81027L67.9062 7.21367L69.348 8.5998L74.5429 3.1964L73.1011 1.81027ZM67.8336 8.51533L73.3239 15.6735L74.9109 14.4563L69.4206 7.29814L67.8336 8.51533ZM74.1174 14.0649H71.9803V16.0649H74.1174V14.0649ZM72.7795 14.4638L68.1927 8.36547L66.5944 9.56766L71.1812 15.666L72.7795 14.4638ZM66.6983 8.24778L65.6385 9.27286L67.0289 10.7104L68.0888 9.68536L66.6983 8.24778ZM65.3337 9.99508L65.3511 15.0684L67.3511 15.0615L67.3337 9.98823L65.3337 9.99508ZM66.3511 14.0649H64.631V16.0649H66.3511V14.0649ZM65.631 15.0649V2.50333H63.631V15.0649H65.631ZM64.631 3.50333H66.3511V1.50333H64.631V3.50333ZM65.3511 2.50333V7.55925H67.3511V2.50333H65.3511ZM83.1118 4.74462L82.655 5.63418L83.559 6.0984L84.0086 5.18704L83.1118 4.74462ZM78.5945 4.39713L77.9837 3.60527L77.9726 3.61402L78.5945 4.39713ZM78.386 6.63841L77.6634 7.32964L77.6711 7.33767L77.6789 7.34552L78.386 6.63841ZM79.3937 7.35076L78.9364 8.24005L78.9514 8.24778L78.9667 8.25501L79.3937 7.35076ZM80.7142 7.90674L81.0676 6.97126L81.0653 6.97041L80.7142 7.90674ZM82.2257 8.61908L82.7219 7.75084L82.2257 8.61908ZM83.4246 9.74841L82.5894 10.2984L82.5972 10.3102L82.6053 10.3219L83.4246 9.74841ZM83.4072 13.4491L84.2532 13.9825L84.2582 13.9742L83.4072 13.4491ZM81.9825 14.7348L82.4364 15.6259L82.4431 15.6225L82.4496 15.619L81.9825 14.7348ZM77.4652 14.8043L77.1124 15.74L77.1174 15.7419L77.4652 14.8043ZM75.6583 13.8835L74.7852 13.3959L74.344 14.1859L75.0861 14.7036L75.6583 13.8835ZM76.4054 12.5457L77.0162 11.7539L76.0978 11.0454L75.5323 12.0581L76.4054 12.5457ZM77.8995 13.3623L77.5344 14.2933L77.5406 14.2956L77.8995 13.3623ZM80.801 13.5013L80.4682 12.5582L80.4593 12.5615L80.801 13.5013ZM81.774 12.841L82.5374 13.487L82.5434 13.4799L82.5492 13.4727L81.774 12.841ZM81.8088 10.5824L82.5896 9.95768L81.8088 10.5824ZM80.9053 9.85266L80.4032 10.7174L80.4195 10.7269L80.4361 10.7358L80.9053 9.85266ZM79.7238 9.29668L80.0777 8.36139L80.0672 8.35742L80.0567 8.35369L79.7238 9.29668ZM78.525 8.8102L78.9408 7.90072L78.525 8.8102ZM77.3957 8.14998L76.7743 8.93347L76.7891 8.94521L76.8043 8.95638L77.3957 8.14998ZM76.7355 4.06702L75.8975 3.52134L75.8943 3.52626L76.7355 4.06702ZM78.0559 2.90294L78.5031 3.79737L78.5105 3.79367L78.5178 3.78986L78.0559 2.90294ZM79.9845 2.43384V1.43384H79.9686L79.9527 1.43434L79.9845 2.43384ZM82.1041 2.7292L81.7987 3.68143L81.8038 3.68305L82.1041 2.7292ZM83.7547 3.44155L84.6515 3.88397L85.0634 3.04892L84.2599 2.57853L83.7547 3.44155ZM83.5686 3.85505C83.0857 3.60704 82.5645 3.39551 82.0077 3.21834L81.4013 5.12419C81.8638 5.27134 82.2809 5.44204 82.655 5.63418L83.5686 3.85505ZM82.0077 3.21834C81.4122 3.02887 80.8176 2.92803 80.2277 2.92803V4.92803C80.5876 4.92803 80.9775 4.98935 81.4013 5.12419L82.0077 3.21834ZM80.2277 2.92803C79.397 2.92803 78.6147 3.11862 77.9837 3.60535L79.2053 5.18891C79.3852 5.05017 79.6916 4.92803 80.2277 4.92803V2.92803ZM77.9726 3.61402C77.324 4.12912 77.0038 4.84855 77.0038 5.66545H79.0038C79.0038 5.41674 79.0774 5.29062 79.2164 5.18024L77.9726 3.61402ZM77.0038 5.66545C77.0038 6.29469 77.2234 6.86967 77.6634 7.32964L79.1087 5.94719C79.039 5.87435 79.0038 5.80068 79.0038 5.66545H77.0038ZM77.6789 7.34552C78.0321 7.69874 78.4575 7.99375 78.9364 8.24005L79.8511 6.46147C79.5192 6.29078 79.2727 6.1109 79.0931 5.93131L77.6789 7.34552ZM78.9667 8.25501C79.4103 8.46446 79.8759 8.66037 80.3631 8.84307L81.0653 6.97041C80.6259 6.80562 80.2112 6.63087 79.8207 6.44651L78.9667 8.25501ZM80.3608 8.84221C80.8325 9.0204 81.2886 9.23532 81.7296 9.48733L82.7219 7.75084C82.1899 7.44686 81.6384 7.18689 81.0676 6.97126L80.3608 8.84221ZM81.7296 9.48733C82.0775 9.68615 82.3618 9.95273 82.5894 10.2984L84.2597 9.19842C83.8619 8.5943 83.3469 8.10799 82.7219 7.75084L81.7296 9.48733ZM82.6053 10.3219C82.774 10.5628 82.911 10.9642 82.911 11.6248H84.911C84.911 10.7102 84.7238 9.86067 84.2438 9.17495L82.6053 10.3219ZM82.911 11.6248C82.911 12.1209 82.7897 12.5456 82.5562 12.924L84.2582 13.9742C84.6965 13.2639 84.911 12.4724 84.911 11.6248H82.911ZM82.5613 12.9158C82.3281 13.2857 81.9907 13.5995 81.5154 13.8506L82.4496 15.619C83.2021 15.2215 83.8145 14.6782 84.2531 13.9824L82.5613 12.9158ZM81.5286 13.8438C81.0837 14.0704 80.5164 14.2039 79.7933 14.2039V16.2039C80.7614 16.2039 81.6535 16.0247 82.4364 15.6259L81.5286 13.8438ZM79.7933 14.2039C79.0675 14.2039 78.4103 14.0884 77.813 13.8668L77.1174 15.7419C77.9563 16.0531 78.8512 16.2039 79.7933 16.2039V14.2039ZM77.818 13.8686C77.1711 13.6247 76.6463 13.3535 76.2304 13.0634L75.0861 14.7036C75.6663 15.1084 76.3462 15.4511 77.1124 15.74L77.818 13.8686ZM76.5313 14.3711L77.2784 13.0332L75.5323 12.0581L74.7852 13.3959L76.5313 14.3711ZM75.7946 13.3375C76.2902 13.7198 76.8758 14.0349 77.5345 14.2932L78.2646 12.4313C77.7419 12.2263 77.3313 11.997 77.0162 11.7539L75.7946 13.3375ZM77.5406 14.2956C78.2366 14.5633 78.932 14.7097 79.6196 14.7097V12.7097C79.2184 12.7097 78.7671 12.6245 78.2585 12.4289L77.5406 14.2956ZM79.6196 14.7097C80.1419 14.7097 80.6514 14.6197 81.1428 14.441L80.4593 12.5615C80.1862 12.6608 79.9081 12.7097 79.6196 12.7097V14.7097ZM81.1339 14.4442C81.6848 14.2498 82.1612 13.9316 82.5374 13.487L81.0106 12.1951C80.8772 12.3528 80.7049 12.4747 80.4682 12.5583L81.1339 14.4442ZM82.5492 13.4727C82.9777 12.9468 83.1562 12.3097 83.1562 11.6422H81.1562C81.1562 11.9477 81.0799 12.1098 80.9988 12.2094L82.5492 13.4727ZM83.1562 11.6422C83.1562 11.028 82.9807 10.4466 82.5896 9.95768L81.0279 11.2071C81.1001 11.2973 81.1562 11.4224 81.1562 11.6422H83.1562ZM82.5896 9.95768C82.2622 9.54845 81.8497 9.22202 81.3745 8.96954L80.4361 10.7358C80.7022 10.8771 80.892 11.0372 81.0279 11.2071L82.5896 9.95768ZM81.4074 8.98787C80.9964 8.7492 80.5524 8.54098 80.0777 8.36139L79.37 10.232C79.7525 10.3767 80.0961 10.5391 80.4032 10.7174L81.4074 8.98787ZM80.0567 8.35369C79.6928 8.22526 79.3208 8.07447 78.9408 7.90072L78.1093 9.71967C78.54 9.91658 78.9673 10.0901 79.391 10.2397L80.0567 8.35369ZM78.9408 7.90072C78.5951 7.74272 78.2778 7.55679 77.9871 7.34357L76.8043 8.95638C77.2085 9.25281 77.6441 9.50703 78.1093 9.71967L78.9408 7.90072ZM78.0171 7.36648C77.7879 7.18472 77.6023 6.96456 77.457 6.69816L75.7012 7.65587C75.9729 8.15394 76.3317 8.58242 76.7743 8.93347L78.0171 7.36648ZM77.457 6.69816C77.3463 6.49517 77.2664 6.20534 77.2664 5.78707H75.2664C75.2664 6.4576 75.395 7.0944 75.7012 7.65587L77.457 6.69816ZM77.2664 5.78707C77.2664 5.29073 77.3817 4.91101 77.5766 4.60778L75.8943 3.52626C75.4638 4.19599 75.2664 4.96297 75.2664 5.78707H77.2664ZM77.5735 4.61269C77.7963 4.2705 78.0985 3.99969 78.5031 3.79737L77.6087 2.00851C76.9014 2.36217 76.3233 2.86741 75.8975 3.52135L77.5735 4.61269ZM78.5178 3.78986C78.9205 3.58017 79.4119 3.45252 80.0162 3.43333L79.9527 1.43434C79.0976 1.46149 78.3033 1.64658 77.594 2.01603L78.5178 3.78986ZM79.9845 3.43384C80.7038 3.43384 81.3039 3.5227 81.7987 3.68142L82.4096 1.77699C81.6766 1.54188 80.8635 1.43384 79.9845 1.43384V3.43384ZM81.8038 3.68305C82.371 3.8616 82.8502 4.07082 83.2495 4.30456L84.2599 2.57853C83.7094 2.25629 83.0882 1.99062 82.4044 1.77535L81.8038 3.68305ZM82.8579 2.99912L82.215 4.30219L84.0086 5.18704L84.6515 3.88397L82.8579 2.99912Z" fill="white"/>
<path d="M6.79963 2.95507L6.39058 3.86757L6.39717 3.87053L6.4038 3.87339L6.79963 2.95507ZM8.39807 4.27551L7.56598 4.83023L7.57114 4.83782L8.39807 4.27551ZM8.50231 8.48009L7.60167 8.0453L7.59573 8.05806L8.50231 8.48009ZM6.90388 10.009L6.48482 9.10106L5.45407 9.5768L6.05605 10.5393L6.90388 10.009ZM10.066 15.0649V16.0649H11.8709L10.9138 14.5347L10.066 15.0649ZM8.1027 15.0649L7.2606 15.6043L7.55564 16.0649H8.1027V15.0649ZM5.1317 10.426L5.9738 9.88669L5.64616 9.37511L5.04116 9.43011L5.1317 10.426ZM2.87304 10.4434V9.44338H1.87304V10.4434H2.87304ZM2.87304 15.0649V16.0649H3.87304V15.0649H2.87304ZM1.18774 15.0649H0.18774V16.0649H1.18774V15.0649ZM1.18774 2.50333V1.50333H0.18774V2.50333H1.18774ZM6.24366 8.44534L6.80452 9.27328L6.81018 9.26938L6.24366 8.44534ZM7.0255 7.5245L7.94775 7.91125L7.95197 7.90088L7.0255 7.5245ZM7.00813 5.42221L6.09675 5.8338L7.00813 5.42221ZM6.22628 4.50138L5.63492 5.30778L5.64119 5.31238L5.64753 5.31688L6.22628 4.50138ZM2.87304 4.11914V3.11914H1.87304V4.11914H2.87304ZM2.87304 8.8102H1.87304V9.8102H2.87304V8.8102ZM4.54098 3.50333C5.25266 3.50333 5.86348 3.63129 6.39058 3.86757L7.20869 2.04256C6.39217 1.67653 5.49722 1.50333 4.54098 1.50333V3.50333ZM6.4038 3.87339C6.90382 4.08892 7.28281 4.4054 7.56602 4.83021L9.23012 3.72081C8.72569 2.96417 8.03905 2.40036 7.19546 2.03674L6.4038 3.87339ZM7.57114 4.83782C7.83208 5.22156 7.98879 5.72275 7.98879 6.39517H9.98879C9.98879 5.39966 9.75169 4.48775 9.22499 3.7132L7.57114 4.83782ZM7.98879 6.39517C7.98879 6.95686 7.86324 7.5037 7.60176 8.04534L9.40286 8.91484C9.79002 8.11286 9.98879 7.26976 9.98879 6.39517H7.98879ZM7.59573 8.05806C7.39486 8.48955 7.05009 8.84017 6.48482 9.10106L7.32294 10.917C8.26344 10.4829 8.98429 9.81424 9.40889 8.90212L7.59573 8.05806ZM6.05605 10.5393L9.21816 15.5952L10.9138 14.5347L7.75171 9.47876L6.05605 10.5393ZM10.066 14.0649H8.1027V16.0649H10.066V14.0649ZM8.94481 14.5256L5.9738 9.88669L4.2896 10.9653L7.2606 15.6043L8.94481 14.5256ZM5.04116 9.43011C4.9463 9.43874 4.84342 9.44338 4.73209 9.44338V11.4434C4.89875 11.4434 5.06228 11.4364 5.22224 11.4219L5.04116 9.43011ZM4.73209 9.44338H2.87304V11.4434H4.73209V9.44338ZM1.87304 10.4434V15.0649H3.87304V10.4434H1.87304ZM2.87304 14.0649H1.18774V16.0649H2.87304V14.0649ZM2.18774 15.0649V2.50333H0.18774V15.0649H2.18774ZM1.18774 3.50333H4.54098V1.50333H1.18774V3.50333ZM4.69735 9.8102C5.46724 9.8102 6.21194 9.67467 6.8045 9.27326L5.68281 7.61742C5.55723 7.70249 5.27106 7.8102 4.69735 7.8102V9.8102ZM6.81018 9.26938C7.31378 8.92316 7.71199 8.47329 7.94769 7.91123L6.10331 7.13778C6.03785 7.29385 5.91483 7.45787 5.67713 7.6213L6.81018 9.26938ZM7.95197 7.90088C8.14202 7.43306 8.25137 6.95173 8.25137 6.46467H6.25137C6.25137 6.64942 6.21013 6.87464 6.09903 7.14813L7.95197 7.90088ZM8.25137 6.46467C8.25137 5.9644 8.13007 5.4769 7.91949 5.01063L6.09675 5.8338C6.2105 6.08566 6.25137 6.29314 6.25137 6.46467H8.25137ZM7.91949 5.01063C7.67596 4.47137 7.29144 4.03106 6.80503 3.68587L5.64753 5.31688C5.87926 5.48134 6.01597 5.65492 6.09675 5.8338L7.91949 5.01063ZM6.81765 3.69497C6.2453 3.27525 5.54502 3.11914 4.81897 3.11914V5.11914C5.27436 5.11914 5.51229 5.21785 5.63492 5.30778L6.81765 3.69497ZM4.81897 3.11914H2.87304V5.11914H4.81897V3.11914ZM1.87304 4.11914V8.8102H3.87304V4.11914H1.87304ZM2.87304 9.8102H4.69735V7.8102H2.87304V9.8102ZM12.8312 2.50333V1.50333H11.8312V2.50333H12.8312ZM20.9971 2.50333H21.9971V1.50333H20.9971V2.50333ZM20.9971 4.11914V5.11914H21.9971V4.11914H20.9971ZM14.5165 4.11914V3.11914H13.5165V4.11914H14.5165ZM14.5165 7.94148H13.5165V8.94148H14.5165V7.94148ZM20.3022 7.94148H21.3022V6.94148H20.3022V7.94148ZM20.3022 9.55729V10.5573H21.3022V9.55729H20.3022ZM14.5165 9.55729V8.55729H13.5165V9.55729H14.5165ZM14.5165 13.4318H13.5165V14.4318H14.5165V13.4318ZM21.2404 13.4318H22.2404V12.4318H21.2404V13.4318ZM21.2404 15.0649V16.0649H22.2404V15.0649H21.2404ZM12.8312 15.0649H11.8312V16.0649H12.8312V15.0649ZM12.8312 3.50333H20.9971V1.50333H12.8312V3.50333ZM19.9971 2.50333V4.11914H21.9971V2.50333H19.9971ZM20.9971 3.11914H14.5165V5.11914H20.9971V3.11914ZM13.5165 4.11914V7.94148H15.5165V4.11914H13.5165ZM14.5165 8.94148H20.3022V6.94148H14.5165V8.94148ZM19.3022 7.94148V9.55729H21.3022V7.94148H19.3022ZM20.3022 8.55729H14.5165V10.5573H20.3022V8.55729ZM13.5165 9.55729V13.4318H15.5165V9.55729H13.5165ZM14.5165 14.4318H21.2404V12.4318H14.5165V14.4318ZM20.2404 13.4318V15.0649H22.2404V13.4318H20.2404ZM21.2404 14.0649H12.8312V16.0649H21.2404V14.0649ZM13.8312 15.0649V2.50333H11.8312V15.0649H13.8312ZM24.3559 15.0649H23.3559V16.0649H24.3559V15.0649ZM24.3559 2.10373V1.10373H23.3559V2.10373H24.3559ZM24.3733 2.10373L25.1906 1.52755L24.8919 1.10373H24.3733V2.10373ZM30.5586 10.8777L29.7412 11.4539L30.5529 12.6053L31.3721 11.4593L30.5586 10.8777ZM36.8307 2.10373V1.10373H36.3163L36.0172 1.52218L36.8307 2.10373ZM36.848 2.10373H37.848V1.10373H36.848V2.10373ZM36.848 15.0649V16.0649H37.848V15.0649H36.848ZM35.1801 15.0649H34.1801V16.0649H35.1801V15.0649ZM35.1801 6.95115H36.1801V3.80612L34.3637 6.37362L35.1801 6.95115ZM30.5586 13.4839V14.4839H31.076L31.3749 14.0614L30.5586 13.4839ZM30.5238 13.4839L29.7119 14.0677L30.0112 14.4839H30.5238V13.4839ZM25.9891 7.17702L26.801 6.59324L24.9891 4.07322V7.17702H25.9891ZM25.9891 15.0649V16.0649H26.9891V15.0649H25.9891ZM25.3559 15.0649V2.10373H23.3559V15.0649H25.3559ZM24.3559 3.10373H24.3733V1.10373H24.3559V3.10373ZM23.556 2.6799L29.7412 11.4539L31.3759 10.3016L25.1906 1.52755L23.556 2.6799ZM31.3721 11.4593L37.6442 2.68527L36.0172 1.52218L29.745 10.2962L31.3721 11.4593ZM36.8307 3.10373H36.848V1.10373H36.8307V3.10373ZM35.848 2.10373V15.0649H37.848V2.10373H35.848ZM36.848 14.0649H35.1801V16.0649H36.848V14.0649ZM36.1801 15.0649V6.95115H34.1801V15.0649H36.1801ZM34.3637 6.37362L29.7422 12.9063L31.3749 14.0614L35.9965 7.52869L34.3637 6.37362ZM30.5586 12.4839H30.5238V14.4839H30.5586V12.4839ZM31.3357 12.9001L26.801 6.59324L25.1772 7.76079L29.7119 14.0677L31.3357 12.9001ZM24.9891 7.17702V15.0649H26.9891V7.17702H24.9891ZM25.9891 14.0649H24.3559V16.0649H25.9891V14.0649ZM39.3805 15.0649L38.4584 14.678L37.8763 16.0649H39.3805V15.0649ZM44.8708 1.98211V0.982105H44.2059L43.9487 1.59514L44.8708 1.98211ZM44.975 1.98211L45.8971 1.59514L45.6398 0.982105H44.975V1.98211ZM50.4653 15.0649V16.0649H51.9694L51.3874 14.678L50.4653 15.0649ZM48.5194 15.0649L47.5892 15.4321L47.839 16.0649H48.5194V15.0649ZM47.2163 11.7638L48.1464 11.3967L47.8966 10.7638H47.2163V11.7638ZM42.3862 11.7638V10.7638H41.7125L41.4594 11.3882L42.3862 11.7638ZM41.0484 15.0649V16.0649H41.7222L41.9752 15.4405L41.0484 15.0649ZM42.977 10.3044L42.0519 9.92452L41.4853 11.3044H42.977V10.3044ZM46.6429 10.3044V11.3044H48.1085L47.5741 9.93972L46.6429 10.3044ZM44.8534 5.73495L45.7845 5.37029L44.8754 3.04888L43.9283 5.35509L44.8534 5.73495ZM40.3026 15.4519L45.7929 2.36907L43.9487 1.59514L38.4584 14.678L40.3026 15.4519ZM44.8708 2.98211H44.975V0.982105H44.8708V2.98211ZM44.0529 2.36907L49.5432 15.4519L51.3874 14.678L45.8971 1.59514L44.0529 2.36907ZM50.4653 14.0649H48.5194V16.0649H50.4653V14.0649ZM49.4495 14.6978L48.1464 11.3967L46.2861 12.131L47.5892 15.4321L49.4495 14.6978ZM47.2163 10.7638H42.3862V12.7638H47.2163V10.7638ZM41.4594 11.3882L40.1216 14.6894L41.9752 15.4405L43.313 12.1394L41.4594 11.3882ZM41.0484 14.0649H39.3805V16.0649H41.0484V14.0649ZM42.977 11.3044H46.6429V9.30439H42.977V11.3044ZM47.5741 9.93972L45.7845 5.37029L43.9222 6.09962L45.7118 10.6691L47.5741 9.93972ZM43.9283 5.35509L42.0519 9.92452L43.902 10.6843L45.7784 6.11482L43.9283 5.35509ZM58.5994 2.95507L58.1904 3.86757L58.197 3.87053L58.2036 3.87339L58.5994 2.95507ZM60.1979 4.27551L59.3658 4.83023L59.3709 4.83782L60.1979 4.27551ZM60.3021 8.48009L59.4015 8.0453L59.3955 8.05806L60.3021 8.48009ZM58.7037 10.009L58.2846 9.10106L57.2539 9.5768L57.8558 10.5393L58.7037 10.009ZM61.8658 15.0649V16.0649H63.6707L62.7136 14.5347L61.8658 15.0649ZM59.9025 15.0649L59.0604 15.6043L59.3554 16.0649H59.9025V15.0649ZM56.9315 10.426L57.7736 9.88669L57.446 9.37511L56.841 9.43011L56.9315 10.426ZM54.6728 10.4434V9.44338H53.6728V10.4434H54.6728ZM54.6728 15.0649V16.0649H55.6728V15.0649H54.6728ZM52.9875 15.0649H51.9875V16.0649H52.9875V15.0649ZM52.9875 2.50333V1.50333H51.9875V2.50333H52.9875ZM58.0434 8.44534L58.6043 9.27328L58.61 9.26938L58.0434 8.44534ZM58.8253 7.5245L59.7476 7.91125L59.7518 7.90088L58.8253 7.5245ZM58.8079 5.42221L57.8966 5.8338L58.8079 5.42221ZM58.0261 4.50138L57.4347 5.30778L57.441 5.31238L57.4473 5.31688L58.0261 4.50138ZM54.6728 4.11914V3.11914H53.6728V4.11914H54.6728ZM54.6728 8.8102H53.6728V9.8102H54.6728V8.8102ZM56.3408 3.50333C57.0525 3.50333 57.6633 3.63129 58.1904 3.86757L59.0085 2.04256C58.192 1.67653 57.297 1.50333 56.3408 1.50333V3.50333ZM58.2036 3.87339C58.7036 4.08892 59.0826 4.4054 59.3658 4.83021L61.0299 3.72081C60.5255 2.96417 59.8389 2.40036 58.9953 2.03674L58.2036 3.87339ZM59.3709 4.83782C59.6319 5.22156 59.7886 5.72275 59.7886 6.39517H61.7886C61.7886 5.39966 61.5515 4.48775 61.0248 3.7132L59.3709 4.83782ZM59.7886 6.39517C59.7886 6.95686 59.663 7.5037 59.4016 8.04534L61.2027 8.91484C61.5898 8.11286 61.7886 7.26976 61.7886 6.39517H59.7886ZM59.3955 8.05806C59.1947 8.48955 58.8499 8.84017 58.2846 9.10106L59.1227 10.917C60.0632 10.4829 60.7841 9.81424 61.2087 8.90212L59.3955 8.05806ZM57.8558 10.5393L61.018 15.5952L62.7136 14.5347L59.5515 9.47876L57.8558 10.5393ZM61.8658 14.0649H59.9025V16.0649H61.8658V14.0649ZM60.7446 14.5256L57.7736 9.88669L56.0894 10.9653L59.0604 15.6043L60.7446 14.5256ZM56.841 9.43011C56.7461 9.43874 56.6432 9.44338 56.5319 9.44338V11.4434C56.6985 11.4434 56.8621 11.4364 57.022 11.4219L56.841 9.43011ZM56.5319 9.44338H54.6728V11.4434H56.5319V9.44338ZM53.6728 10.4434V15.0649H55.6728V10.4434H53.6728ZM54.6728 14.0649H52.9875V16.0649H54.6728V14.0649ZM53.9875 15.0649V2.50333H51.9875V15.0649H53.9875ZM52.9875 3.50333H56.3408V1.50333H52.9875V3.50333ZM56.4971 9.8102C57.267 9.8102 58.0117 9.67467 58.6043 9.27326L57.4826 7.61742C57.357 7.70249 57.0709 7.8102 56.4971 7.8102V9.8102ZM58.61 9.26938C59.1136 8.92316 59.5118 8.47329 59.7475 7.91123L57.9031 7.13778C57.8376 7.29385 57.7146 7.45787 57.4769 7.6213L58.61 9.26938ZM59.7518 7.90088C59.9418 7.43306 60.0512 6.95173 60.0512 6.46467H58.0512C58.0512 6.64942 58.0099 6.87464 57.8988 7.14813L59.7518 7.90088ZM60.0512 6.46467C60.0512 5.9644 59.9299 5.4769 59.7193 5.01063L57.8966 5.8338C58.0103 6.08566 58.0512 6.29314 58.0512 6.46467H60.0512ZM59.7193 5.01063C59.4758 4.47137 59.0912 4.03106 58.6048 3.68587L57.4473 5.31688C57.6791 5.48134 57.8158 5.65492 57.8966 5.8338L59.7193 5.01063ZM58.6174 3.69497C58.0451 3.27525 57.3448 3.11914 56.6188 3.11914V5.11914C57.0742 5.11914 57.3121 5.21785 57.4347 5.30778L58.6174 3.69497ZM56.6188 3.11914H54.6728V5.11914H56.6188V3.11914ZM53.6728 4.11914V8.8102H55.6728V4.11914H53.6728ZM54.6728 9.8102H56.4971V7.8102H54.6728V9.8102ZM66.3511 7.55925L67.3476 7.6423L67.3511 7.60085V7.55925H66.3511ZM66.299 8.18472L65.3024 8.10168L67.1444 8.71872L66.299 8.18472ZM66.5074 7.85461L65.7853 7.16291L65.7157 7.23556L65.662 7.32062L66.5074 7.85461ZM71.6329 2.50333V1.50333H71.206L70.9107 1.81163L71.6329 2.50333ZM73.822 2.50333L74.5429 3.1964L76.1706 1.50333H73.822V2.50333ZM68.6271 7.90674L67.9062 7.21367L67.3105 7.8333L67.8336 8.51533L68.6271 7.90674ZM74.1174 15.0649V16.0649H76.1446L74.9109 14.4563L74.1174 15.0649ZM71.9803 15.0649L71.1812 15.666L71.4812 16.0649H71.9803V15.0649ZM67.3935 8.96657L68.1927 8.36547L67.5121 7.46062L66.6983 8.24778L67.3935 8.96657ZM66.3337 9.99165L65.6385 9.27286L65.3323 9.56905L65.3337 9.99508L66.3337 9.99165ZM66.3511 15.0649V16.0649H67.3545L67.3511 15.0615L66.3511 15.0649ZM64.631 15.0649H63.631V16.0649H64.631V15.0649ZM64.631 2.50333V1.50333H63.631V2.50333H64.631ZM66.3511 2.50333H67.3511V1.50333H66.3511V2.50333ZM65.3545 7.47621L65.3024 8.10168L67.2955 8.26777L67.3476 7.6423L65.3545 7.47621ZM67.1444 8.71872L67.3529 8.38861L65.662 7.32062L65.4535 7.65073L67.1444 8.71872ZM67.2296 8.54632L72.355 3.19504L70.9107 1.81163L65.7853 7.16291L67.2296 8.54632ZM71.6329 3.50333H73.822V1.50333H71.6329V3.50333ZM73.1011 1.81027L67.9062 7.21367L69.348 8.5998L74.5429 3.1964L73.1011 1.81027ZM67.8336 8.51533L73.3239 15.6735L74.9109 14.4563L69.4206 7.29814L67.8336 8.51533ZM74.1174 14.0649H71.9803V16.0649H74.1174V14.0649ZM72.7795 14.4638L68.1927 8.36547L66.5944 9.56766L71.1812 15.666L72.7795 14.4638ZM66.6983 8.24778L65.6385 9.27286L67.0289 10.7104L68.0888 9.68536L66.6983 8.24778ZM65.3337 9.99508L65.3511 15.0684L67.3511 15.0615L67.3337 9.98823L65.3337 9.99508ZM66.3511 14.0649H64.631V16.0649H66.3511V14.0649ZM65.631 15.0649V2.50333H63.631V15.0649H65.631ZM64.631 3.50333H66.3511V1.50333H64.631V3.50333ZM65.3511 2.50333V7.55925H67.3511V2.50333H65.3511ZM83.1118 4.74462L82.655 5.63418L83.559 6.0984L84.0086 5.18704L83.1118 4.74462ZM78.5945 4.39713L77.9837 3.60527L77.9726 3.61402L78.5945 4.39713ZM78.386 6.63841L77.6634 7.32964L77.6711 7.33767L77.6789 7.34552L78.386 6.63841ZM79.3937 7.35076L78.9364 8.24005L78.9514 8.24778L78.9667 8.25501L79.3937 7.35076ZM80.7142 7.90674L81.0676 6.97126L81.0653 6.97041L80.7142 7.90674ZM82.2257 8.61908L82.7219 7.75084L82.2257 8.61908ZM83.4246 9.74841L82.5894 10.2984L82.5972 10.3102L82.6053 10.3219L83.4246 9.74841ZM83.4072 13.4491L84.2532 13.9825L84.2582 13.9742L83.4072 13.4491ZM81.9825 14.7348L82.4364 15.6259L82.4431 15.6225L82.4496 15.619L81.9825 14.7348ZM77.4652 14.8043L77.1124 15.74L77.1174 15.7419L77.4652 14.8043ZM75.6583 13.8835L74.7852 13.3959L74.344 14.1859L75.0861 14.7036L75.6583 13.8835ZM76.4054 12.5457L77.0162 11.7539L76.0978 11.0454L75.5323 12.0581L76.4054 12.5457ZM77.8995 13.3623L77.5344 14.2933L77.5406 14.2956L77.8995 13.3623ZM80.801 13.5013L80.4682 12.5582L80.4593 12.5615L80.801 13.5013ZM81.774 12.841L82.5374 13.487L82.5434 13.4799L82.5492 13.4727L81.774 12.841ZM81.8088 10.5824L82.5896 9.95768L81.8088 10.5824ZM80.9053 9.85266L80.4032 10.7174L80.4195 10.7269L80.4361 10.7358L80.9053 9.85266ZM79.7238 9.29668L80.0777 8.36139L80.0672 8.35742L80.0567 8.35369L79.7238 9.29668ZM78.525 8.8102L78.9408 7.90072L78.525 8.8102ZM77.3957 8.14998L76.7743 8.93347L76.7891 8.94521L76.8043 8.95638L77.3957 8.14998ZM76.7355 4.06702L75.8975 3.52134L75.8943 3.52626L76.7355 4.06702ZM78.0559 2.90294L78.5031 3.79737L78.5105 3.79367L78.5178 3.78986L78.0559 2.90294ZM79.9845 2.43384V1.43384H79.9686L79.9527 1.43434L79.9845 2.43384ZM82.1041 2.7292L81.7987 3.68143L81.8038 3.68305L82.1041 2.7292ZM83.7547 3.44155L84.6515 3.88397L85.0634 3.04892L84.2599 2.57853L83.7547 3.44155ZM83.5686 3.85505C83.0857 3.60704 82.5645 3.39551 82.0077 3.21834L81.4013 5.12419C81.8638 5.27134 82.2809 5.44204 82.655 5.63418L83.5686 3.85505ZM82.0077 3.21834C81.4122 3.02887 80.8176 2.92803 80.2277 2.92803V4.92803C80.5876 4.92803 80.9775 4.98935 81.4013 5.12419L82.0077 3.21834ZM80.2277 2.92803C79.397 2.92803 78.6147 3.11862 77.9837 3.60535L79.2053 5.18891C79.3852 5.05017 79.6916 4.92803 80.2277 4.92803V2.92803ZM77.9726 3.61402C77.324 4.12912 77.0038 4.84855 77.0038 5.66545H79.0038C79.0038 5.41674 79.0774 5.29062 79.2164 5.18024L77.9726 3.61402ZM77.0038 5.66545C77.0038 6.29469 77.2234 6.86967 77.6634 7.32964L79.1087 5.94719C79.039 5.87435 79.0038 5.80068 79.0038 5.66545H77.0038ZM77.6789 7.34552C78.0321 7.69874 78.4575 7.99375 78.9364 8.24005L79.8511 6.46147C79.5192 6.29078 79.2727 6.1109 79.0931 5.93131L77.6789 7.34552ZM78.9667 8.25501C79.4103 8.46446 79.8759 8.66037 80.3631 8.84307L81.0653 6.97041C80.6259 6.80562 80.2112 6.63087 79.8207 6.44651L78.9667 8.25501ZM80.3608 8.84221C80.8325 9.0204 81.2886 9.23532 81.7296 9.48733L82.7219 7.75084C82.1899 7.44686 81.6384 7.18689 81.0676 6.97126L80.3608 8.84221ZM81.7296 9.48733C82.0775 9.68615 82.3618 9.95273 82.5894 10.2984L84.2597 9.19842C83.8619 8.5943 83.3469 8.10799 82.7219 7.75084L81.7296 9.48733ZM82.6053 10.3219C82.774 10.5628 82.911 10.9642 82.911 11.6248H84.911C84.911 10.7102 84.7238 9.86067 84.2438 9.17495L82.6053 10.3219ZM82.911 11.6248C82.911 12.1209 82.7897 12.5456 82.5562 12.924L84.2582 13.9742C84.6965 13.2639 84.911 12.4724 84.911 11.6248H82.911ZM82.5613 12.9158C82.3281 13.2857 81.9907 13.5995 81.5154 13.8506L82.4496 15.619C83.2021 15.2215 83.8145 14.6782 84.2531 13.9824L82.5613 12.9158ZM81.5286 13.8438C81.0837 14.0704 80.5164 14.2039 79.7933 14.2039V16.2039C80.7614 16.2039 81.6535 16.0247 82.4364 15.6259L81.5286 13.8438ZM79.7933 14.2039C79.0675 14.2039 78.4103 14.0884 77.813 13.8668L77.1174 15.7419C77.9563 16.0531 78.8512 16.2039 79.7933 16.2039V14.2039ZM77.818 13.8686C77.1711 13.6247 76.6463 13.3535 76.2304 13.0634L75.0861 14.7036C75.6663 15.1084 76.3462 15.4511 77.1124 15.74L77.818 13.8686ZM76.5313 14.3711L77.2784 13.0332L75.5323 12.0581L74.7852 13.3959L76.5313 14.3711ZM75.7946 13.3375C76.2902 13.7198 76.8758 14.0349 77.5345 14.2932L78.2646 12.4313C77.7419 12.2263 77.3313 11.997 77.0162 11.7539L75.7946 13.3375ZM77.5406 14.2956C78.2366 14.5633 78.932 14.7097 79.6196 14.7097V12.7097C79.2184 12.7097 78.7671 12.6245 78.2585 12.4289L77.5406 14.2956ZM79.6196 14.7097C80.1419 14.7097 80.6514 14.6197 81.1428 14.441L80.4593 12.5615C80.1862 12.6608 79.9081 12.7097 79.6196 12.7097V14.7097ZM81.1339 14.4442C81.6848 14.2498 82.1612 13.9316 82.5374 13.487L81.0106 12.1951C80.8772 12.3528 80.7049 12.4747 80.4682 12.5583L81.1339 14.4442ZM82.5492 13.4727C82.9777 12.9468 83.1562 12.3097 83.1562 11.6422H81.1562C81.1562 11.9477 81.0799 12.1098 80.9988 12.2094L82.5492 13.4727ZM83.1562 11.6422C83.1562 11.028 82.9807 10.4466 82.5896 9.95768L81.0279 11.2071C81.1001 11.2973 81.1562 11.4224 81.1562 11.6422H83.1562ZM82.5896 9.95768C82.2622 9.54845 81.8497 9.22202 81.3745 8.96954L80.4361 10.7358C80.7022 10.8771 80.892 11.0372 81.0279 11.2071L82.5896 9.95768ZM81.4074 8.98787C80.9964 8.7492 80.5524 8.54098 80.0777 8.36139L79.37 10.232C79.7525 10.3767 80.0961 10.5391 80.4032 10.7174L81.4074 8.98787ZM80.0567 8.35369C79.6928 8.22526 79.3208 8.07447 78.9408 7.90072L78.1093 9.71967C78.54 9.91658 78.9673 10.0901 79.391 10.2397L80.0567 8.35369ZM78.9408 7.90072C78.5951 7.74272 78.2778 7.55679 77.9871 7.34357L76.8043 8.95638C77.2085 9.25281 77.6441 9.50703 78.1093 9.71967L78.9408 7.90072ZM78.0171 7.36648C77.7879 7.18472 77.6023 6.96456 77.457 6.69816L75.7012 7.65587C75.9729 8.15394 76.3317 8.58242 76.7743 8.93347L78.0171 7.36648ZM77.457 6.69816C77.3463 6.49517 77.2664 6.20534 77.2664 5.78707H75.2664C75.2664 6.4576 75.395 7.0944 75.7012 7.65587L77.457 6.69816ZM77.2664 5.78707C77.2664 5.29073 77.3817 4.91101 77.5766 4.60778L75.8943 3.52626C75.4638 4.19599 75.2664 4.96297 75.2664 5.78707H77.2664ZM77.5735 4.61269C77.7963 4.2705 78.0985 3.99969 78.5031 3.79737L77.6087 2.00851C76.9014 2.36217 76.3233 2.86741 75.8975 3.52135L77.5735 4.61269ZM78.5178 3.78986C78.9205 3.58017 79.4119 3.45252 80.0162 3.43333L79.9527 1.43434C79.0976 1.46149 78.3033 1.64658 77.594 2.01603L78.5178 3.78986ZM79.9845 3.43384C80.7038 3.43384 81.3039 3.5227 81.7987 3.68142L82.4096 1.77699C81.6766 1.54188 80.8635 1.43384 79.9845 1.43384V3.43384ZM81.8038 3.68305C82.371 3.8616 82.8502 4.07082 83.2495 4.30456L84.2599 2.57853C83.7094 2.25629 83.0882 1.99062 82.4044 1.77535L81.8038 3.68305ZM82.8579 2.99912L82.215 4.30219L84.0086 5.18704L84.6515 3.88397L82.8579 2.99912Z" fill="#698996"/>
<path d="M6.79963 2.95507L6.39058 3.86757L6.39717 3.87053L6.4038 3.87339L6.79963 2.95507ZM8.39807 4.27551L7.56598 4.83023L7.57114 4.83782L8.39807 4.27551ZM8.50231 8.48009L7.60167 8.0453L7.59573 8.05806L8.50231 8.48009ZM6.90388 10.009L6.48482 9.10106L5.45407 9.5768L6.05605 10.5393L6.90388 10.009ZM10.066 15.0649V16.0649H11.8709L10.9138 14.5347L10.066 15.0649ZM8.1027 15.0649L7.2606 15.6043L7.55564 16.0649H8.1027V15.0649ZM5.1317 10.426L5.9738 9.88669L5.64616 9.37511L5.04116 9.43011L5.1317 10.426ZM2.87304 10.4434V9.44338H1.87304V10.4434H2.87304ZM2.87304 15.0649V16.0649H3.87304V15.0649H2.87304ZM1.18774 15.0649H0.18774V16.0649H1.18774V15.0649ZM1.18774 2.50333V1.50333H0.18774V2.50333H1.18774ZM6.24366 8.44534L6.80452 9.27328L6.81018 9.26938L6.24366 8.44534ZM7.0255 7.5245L7.94775 7.91125L7.95197 7.90088L7.0255 7.5245ZM7.00813 5.42221L6.09675 5.8338L7.00813 5.42221ZM6.22628 4.50138L5.63492 5.30778L5.64119 5.31238L5.64753 5.31688L6.22628 4.50138ZM2.87304 4.11914V3.11914H1.87304V4.11914H2.87304ZM2.87304 8.8102H1.87304V9.8102H2.87304V8.8102ZM4.54098 3.50333C5.25266 3.50333 5.86348 3.63129 6.39058 3.86757L7.20869 2.04256C6.39217 1.67653 5.49722 1.50333 4.54098 1.50333V3.50333ZM6.4038 3.87339C6.90382 4.08892 7.28281 4.4054 7.56602 4.83021L9.23012 3.72081C8.72569 2.96417 8.03905 2.40036 7.19546 2.03674L6.4038 3.87339ZM7.57114 4.83782C7.83208 5.22156 7.98879 5.72275 7.98879 6.39517H9.98879C9.98879 5.39966 9.75169 4.48775 9.22499 3.7132L7.57114 4.83782ZM7.98879 6.39517C7.98879 6.95686 7.86324 7.5037 7.60176 8.04534L9.40286 8.91484C9.79002 8.11286 9.98879 7.26976 9.98879 6.39517H7.98879ZM7.59573 8.05806C7.39486 8.48955 7.05009 8.84017 6.48482 9.10106L7.32294 10.917C8.26344 10.4829 8.98429 9.81424 9.40889 8.90212L7.59573 8.05806ZM6.05605 10.5393L9.21816 15.5952L10.9138 14.5347L7.75171 9.47876L6.05605 10.5393ZM10.066 14.0649H8.1027V16.0649H10.066V14.0649ZM8.94481 14.5256L5.9738 9.88669L4.2896 10.9653L7.2606 15.6043L8.94481 14.5256ZM5.04116 9.43011C4.9463 9.43874 4.84342 9.44338 4.73209 9.44338V11.4434C4.89875 11.4434 5.06228 11.4364 5.22224 11.4219L5.04116 9.43011ZM4.73209 9.44338H2.87304V11.4434H4.73209V9.44338ZM1.87304 10.4434V15.0649H3.87304V10.4434H1.87304ZM2.87304 14.0649H1.18774V16.0649H2.87304V14.0649ZM2.18774 15.0649V2.50333H0.18774V15.0649H2.18774ZM1.18774 3.50333H4.54098V1.50333H1.18774V3.50333ZM4.69735 9.8102C5.46724 9.8102 6.21194 9.67467 6.8045 9.27326L5.68281 7.61742C5.55723 7.70249 5.27106 7.8102 4.69735 7.8102V9.8102ZM6.81018 9.26938C7.31378 8.92316 7.71199 8.47329 7.94769 7.91123L6.10331 7.13778C6.03785 7.29385 5.91483 7.45787 5.67713 7.6213L6.81018 9.26938ZM7.95197 7.90088C8.14202 7.43306 8.25137 6.95173 8.25137 6.46467H6.25137C6.25137 6.64942 6.21013 6.87464 6.09903 7.14813L7.95197 7.90088ZM8.25137 6.46467C8.25137 5.9644 8.13007 5.4769 7.91949 5.01063L6.09675 5.8338C6.2105 6.08566 6.25137 6.29314 6.25137 6.46467H8.25137ZM7.91949 5.01063C7.67596 4.47137 7.29144 4.03106 6.80503 3.68587L5.64753 5.31688C5.87926 5.48134 6.01597 5.65492 6.09675 5.8338L7.91949 5.01063ZM6.81765 3.69497C6.2453 3.27525 5.54502 3.11914 4.81897 3.11914V5.11914C5.27436 5.11914 5.51229 5.21785 5.63492 5.30778L6.81765 3.69497ZM4.81897 3.11914H2.87304V5.11914H4.81897V3.11914ZM1.87304 4.11914V8.8102H3.87304V4.11914H1.87304ZM2.87304 9.8102H4.69735V7.8102H2.87304V9.8102ZM12.8312 2.50333V1.50333H11.8312V2.50333H12.8312ZM20.9971 2.50333H21.9971V1.50333H20.9971V2.50333ZM20.9971 4.11914V5.11914H21.9971V4.11914H20.9971ZM14.5165 4.11914V3.11914H13.5165V4.11914H14.5165ZM14.5165 7.94148H13.5165V8.94148H14.5165V7.94148ZM20.3022 7.94148H21.3022V6.94148H20.3022V7.94148ZM20.3022 9.55729V10.5573H21.3022V9.55729H20.3022ZM14.5165 9.55729V8.55729H13.5165V9.55729H14.5165ZM14.5165 13.4318H13.5165V14.4318H14.5165V13.4318ZM21.2404 13.4318H22.2404V12.4318H21.2404V13.4318ZM21.2404 15.0649V16.0649H22.2404V15.0649H21.2404ZM12.8312 15.0649H11.8312V16.0649H12.8312V15.0649ZM12.8312 3.50333H20.9971V1.50333H12.8312V3.50333ZM19.9971 2.50333V4.11914H21.9971V2.50333H19.9971ZM20.9971 3.11914H14.5165V5.11914H20.9971V3.11914ZM13.5165 4.11914V7.94148H15.5165V4.11914H13.5165ZM14.5165 8.94148H20.3022V6.94148H14.5165V8.94148ZM19.3022 7.94148V9.55729H21.3022V7.94148H19.3022ZM20.3022 8.55729H14.5165V10.5573H20.3022V8.55729ZM13.5165 9.55729V13.4318H15.5165V9.55729H13.5165ZM14.5165 14.4318H21.2404V12.4318H14.5165V14.4318ZM20.2404 13.4318V15.0649H22.2404V13.4318H20.2404ZM21.2404 14.0649H12.8312V16.0649H21.2404V14.0649ZM13.8312 15.0649V2.50333H11.8312V15.0649H13.8312ZM24.3559 15.0649H23.3559V16.0649H24.3559V15.0649ZM24.3559 2.10373V1.10373H23.3559V2.10373H24.3559ZM24.3733 2.10373L25.1906 1.52755L24.8919 1.10373H24.3733V2.10373ZM30.5586 10.8777L29.7412 11.4539L30.5529 12.6053L31.3721 11.4593L30.5586 10.8777ZM36.8307 2.10373V1.10373H36.3163L36.0172 1.52218L36.8307 2.10373ZM36.848 2.10373H37.848V1.10373H36.848V2.10373ZM36.848 15.0649V16.0649H37.848V15.0649H36.848ZM35.1801 15.0649H34.1801V16.0649H35.1801V15.0649ZM35.1801 6.95115H36.1801V3.80612L34.3637 6.37362L35.1801 6.95115ZM30.5586 13.4839V14.4839H31.076L31.3749 14.0614L30.5586 13.4839ZM30.5238 13.4839L29.7119 14.0677L30.0112 14.4839H30.5238V13.4839ZM25.9891 7.17702L26.801 6.59324L24.9891 4.07322V7.17702H25.9891ZM25.9891 15.0649V16.0649H26.9891V15.0649H25.9891ZM25.3559 15.0649V2.10373H23.3559V15.0649H25.3559ZM24.3559 3.10373H24.3733V1.10373H24.3559V3.10373ZM23.556 2.6799L29.7412 11.4539L31.3759 10.3016L25.1906 1.52755L23.556 2.6799ZM31.3721 11.4593L37.6442 2.68527L36.0172 1.52218L29.745 10.2962L31.3721 11.4593ZM36.8307 3.10373H36.848V1.10373H36.8307V3.10373ZM35.848 2.10373V15.0649H37.848V2.10373H35.848ZM36.848 14.0649H35.1801V16.0649H36.848V14.0649ZM36.1801 15.0649V6.95115H34.1801V15.0649H36.1801ZM34.3637 6.37362L29.7422 12.9063L31.3749 14.0614L35.9965 7.52869L34.3637 6.37362ZM30.5586 12.4839H30.5238V14.4839H30.5586V12.4839ZM31.3357 12.9001L26.801 6.59324L25.1772 7.76079L29.7119 14.0677L31.3357 12.9001ZM24.9891 7.17702V15.0649H26.9891V7.17702H24.9891ZM25.9891 14.0649H24.3559V16.0649H25.9891V14.0649ZM39.3805 15.0649L38.4584 14.678L37.8763 16.0649H39.3805V15.0649ZM44.8708 1.98211V0.982105H44.2059L43.9487 1.59514L44.8708 1.98211ZM44.975 1.98211L45.8971 1.59514L45.6398 0.982105H44.975V1.98211ZM50.4653 15.0649V16.0649H51.9694L51.3874 14.678L50.4653 15.0649ZM48.5194 15.0649L47.5892 15.4321L47.839 16.0649H48.5194V15.0649ZM47.2163 11.7638L48.1464 11.3967L47.8966 10.7638H47.2163V11.7638ZM42.3862 11.7638V10.7638H41.7125L41.4594 11.3882L42.3862 11.7638ZM41.0484 15.0649V16.0649H41.7222L41.9752 15.4405L41.0484 15.0649ZM42.977 10.3044L42.0519 9.92452L41.4853 11.3044H42.977V10.3044ZM46.6429 10.3044V11.3044H48.1085L47.5741 9.93972L46.6429 10.3044ZM44.8534 5.73495L45.7845 5.37029L44.8754 3.04888L43.9283 5.35509L44.8534 5.73495ZM40.3026 15.4519L45.7929 2.36907L43.9487 1.59514L38.4584 14.678L40.3026 15.4519ZM44.8708 2.98211H44.975V0.982105H44.8708V2.98211ZM44.0529 2.36907L49.5432 15.4519L51.3874 14.678L45.8971 1.59514L44.0529 2.36907ZM50.4653 14.0649H48.5194V16.0649H50.4653V14.0649ZM49.4495 14.6978L48.1464 11.3967L46.2861 12.131L47.5892 15.4321L49.4495 14.6978ZM47.2163 10.7638H42.3862V12.7638H47.2163V10.7638ZM41.4594 11.3882L40.1216 14.6894L41.9752 15.4405L43.313 12.1394L41.4594 11.3882ZM41.0484 14.0649H39.3805V16.0649H41.0484V14.0649ZM42.977 11.3044H46.6429V9.30439H42.977V11.3044ZM47.5741 9.93972L45.7845 5.37029L43.9222 6.09962L45.7118 10.6691L47.5741 9.93972ZM43.9283 5.35509L42.0519 9.92452L43.902 10.6843L45.7784 6.11482L43.9283 5.35509ZM58.5994 2.95507L58.1904 3.86757L58.197 3.87053L58.2036 3.87339L58.5994 2.95507ZM60.1979 4.27551L59.3658 4.83023L59.3709 4.83782L60.1979 4.27551ZM60.3021 8.48009L59.4015 8.0453L59.3955 8.05806L60.3021 8.48009ZM58.7037 10.009L58.2846 9.10106L57.2539 9.5768L57.8558 10.5393L58.7037 10.009ZM61.8658 15.0649V16.0649H63.6707L62.7136 14.5347L61.8658 15.0649ZM59.9025 15.0649L59.0604 15.6043L59.3554 16.0649H59.9025V15.0649ZM56.9315 10.426L57.7736 9.88669L57.446 9.37511L56.841 9.43011L56.9315 10.426ZM54.6728 10.4434V9.44338H53.6728V10.4434H54.6728ZM54.6728 15.0649V16.0649H55.6728V15.0649H54.6728ZM52.9875 15.0649H51.9875V16.0649H52.9875V15.0649ZM52.9875 2.50333V1.50333H51.9875V2.50333H52.9875ZM58.0434 8.44534L58.6043 9.27328L58.61 9.26938L58.0434 8.44534ZM58.8253 7.5245L59.7476 7.91125L59.7518 7.90088L58.8253 7.5245ZM58.8079 5.42221L57.8966 5.8338L58.8079 5.42221ZM58.0261 4.50138L57.4347 5.30778L57.441 5.31238L57.4473 5.31688L58.0261 4.50138ZM54.6728 4.11914V3.11914H53.6728V4.11914H54.6728ZM54.6728 8.8102H53.6728V9.8102H54.6728V8.8102ZM56.3408 3.50333C57.0525 3.50333 57.6633 3.63129 58.1904 3.86757L59.0085 2.04256C58.192 1.67653 57.297 1.50333 56.3408 1.50333V3.50333ZM58.2036 3.87339C58.7036 4.08892 59.0826 4.4054 59.3658 4.83021L61.0299 3.72081C60.5255 2.96417 59.8389 2.40036 58.9953 2.03674L58.2036 3.87339ZM59.3709 4.83782C59.6319 5.22156 59.7886 5.72275 59.7886 6.39517H61.7886C61.7886 5.39966 61.5515 4.48775 61.0248 3.7132L59.3709 4.83782ZM59.7886 6.39517C59.7886 6.95686 59.663 7.5037 59.4016 8.04534L61.2027 8.91484C61.5898 8.11286 61.7886 7.26976 61.7886 6.39517H59.7886ZM59.3955 8.05806C59.1947 8.48955 58.8499 8.84017 58.2846 9.10106L59.1227 10.917C60.0632 10.4829 60.7841 9.81424 61.2087 8.90212L59.3955 8.05806ZM57.8558 10.5393L61.018 15.5952L62.7136 14.5347L59.5515 9.47876L57.8558 10.5393ZM61.8658 14.0649H59.9025V16.0649H61.8658V14.0649ZM60.7446 14.5256L57.7736 9.88669L56.0894 10.9653L59.0604 15.6043L60.7446 14.5256ZM56.841 9.43011C56.7461 9.43874 56.6432 9.44338 56.5319 9.44338V11.4434C56.6985 11.4434 56.8621 11.4364 57.022 11.4219L56.841 9.43011ZM56.5319 9.44338H54.6728V11.4434H56.5319V9.44338ZM53.6728 10.4434V15.0649H55.6728V10.4434H53.6728ZM54.6728 14.0649H52.9875V16.0649H54.6728V14.0649ZM53.9875 15.0649V2.50333H51.9875V15.0649H53.9875ZM52.9875 3.50333H56.3408V1.50333H52.9875V3.50333ZM56.4971 9.8102C57.267 9.8102 58.0117 9.67467 58.6043 9.27326L57.4826 7.61742C57.357 7.70249 57.0709 7.8102 56.4971 7.8102V9.8102ZM58.61 9.26938C59.1136 8.92316 59.5118 8.47329 59.7475 7.91123L57.9031 7.13778C57.8376 7.29385 57.7146 7.45787 57.4769 7.6213L58.61 9.26938ZM59.7518 7.90088C59.9418 7.43306 60.0512 6.95173 60.0512 6.46467H58.0512C58.0512 6.64942 58.0099 6.87464 57.8988 7.14813L59.7518 7.90088ZM60.0512 6.46467C60.0512 5.9644 59.9299 5.4769 59.7193 5.01063L57.8966 5.8338C58.0103 6.08566 58.0512 6.29314 58.0512 6.46467H60.0512ZM59.7193 5.01063C59.4758 4.47137 59.0912 4.03106 58.6048 3.68587L57.4473 5.31688C57.6791 5.48134 57.8158 5.65492 57.8966 5.8338L59.7193 5.01063ZM58.6174 3.69497C58.0451 3.27525 57.3448 3.11914 56.6188 3.11914V5.11914C57.0742 5.11914 57.3121 5.21785 57.4347 5.30778L58.6174 3.69497ZM56.6188 3.11914H54.6728V5.11914H56.6188V3.11914ZM53.6728 4.11914V8.8102H55.6728V4.11914H53.6728ZM54.6728 9.8102H56.4971V7.8102H54.6728V9.8102ZM66.3511 7.55925L67.3476 7.6423L67.3511 7.60085V7.55925H66.3511ZM66.299 8.18472L65.3024 8.10168L67.1444 8.71872L66.299 8.18472ZM66.5074 7.85461L65.7853 7.16291L65.7157 7.23556L65.662 7.32062L66.5074 7.85461ZM71.6329 2.50333V1.50333H71.206L70.9107 1.81163L71.6329 2.50333ZM73.822 2.50333L74.5429 3.1964L76.1706 1.50333H73.822V2.50333ZM68.6271 7.90674L67.9062 7.21367L67.3105 7.8333L67.8336 8.51533L68.6271 7.90674ZM74.1174 15.0649V16.0649H76.1446L74.9109 14.4563L74.1174 15.0649ZM71.9803 15.0649L71.1812 15.666L71.4812 16.0649H71.9803V15.0649ZM67.3935 8.96657L68.1927 8.36547L67.5121 7.46062L66.6983 8.24778L67.3935 8.96657ZM66.3337 9.99165L65.6385 9.27286L65.3323 9.56905L65.3337 9.99508L66.3337 9.99165ZM66.3511 15.0649V16.0649H67.3545L67.3511 15.0615L66.3511 15.0649ZM64.631 15.0649H63.631V16.0649H64.631V15.0649ZM64.631 2.50333V1.50333H63.631V2.50333H64.631ZM66.3511 2.50333H67.3511V1.50333H66.3511V2.50333ZM65.3545 7.47621L65.3024 8.10168L67.2955 8.26777L67.3476 7.6423L65.3545 7.47621ZM67.1444 8.71872L67.3529 8.38861L65.662 7.32062L65.4535 7.65073L67.1444 8.71872ZM67.2296 8.54632L72.355 3.19504L70.9107 1.81163L65.7853 7.16291L67.2296 8.54632ZM71.6329 3.50333H73.822V1.50333H71.6329V3.50333ZM73.1011 1.81027L67.9062 7.21367L69.348 8.5998L74.5429 3.1964L73.1011 1.81027ZM67.8336 8.51533L73.3239 15.6735L74.9109 14.4563L69.4206 7.29814L67.8336 8.51533ZM74.1174 14.0649H71.9803V16.0649H74.1174V14.0649ZM72.7795 14.4638L68.1927 8.36547L66.5944 9.56766L71.1812 15.666L72.7795 14.4638ZM66.6983 8.24778L65.6385 9.27286L67.0289 10.7104L68.0888 9.68536L66.6983 8.24778ZM65.3337 9.99508L65.3511 15.0684L67.3511 15.0615L67.3337 9.98823L65.3337 9.99508ZM66.3511 14.0649H64.631V16.0649H66.3511V14.0649ZM65.631 15.0649V2.50333H63.631V15.0649H65.631ZM64.631 3.50333H66.3511V1.50333H64.631V3.50333ZM65.3511 2.50333V7.55925H67.3511V2.50333H65.3511ZM83.1118 4.74462L82.655 5.63418L83.559 6.0984L84.0086 5.18704L83.1118 4.74462ZM78.5945 4.39713L77.9837 3.60527L77.9726 3.61402L78.5945 4.39713ZM78.386 6.63841L77.6634 7.32964L77.6711 7.33767L77.6789 7.34552L78.386 6.63841ZM79.3937 7.35076L78.9364 8.24005L78.9514 8.24778L78.9667 8.25501L79.3937 7.35076ZM80.7142 7.90674L81.0676 6.97126L81.0653 6.97041L80.7142 7.90674ZM82.2257 8.61908L82.7219 7.75084L82.2257 8.61908ZM83.4246 9.74841L82.5894 10.2984L82.5972 10.3102L82.6053 10.3219L83.4246 9.74841ZM83.4072 13.4491L84.2532 13.9825L84.2582 13.9742L83.4072 13.4491ZM81.9825 14.7348L82.4364 15.6259L82.4431 15.6225L82.4496 15.619L81.9825 14.7348ZM77.4652 14.8043L77.1124 15.74L77.1174 15.7419L77.4652 14.8043ZM75.6583 13.8835L74.7852 13.3959L74.344 14.1859L75.0861 14.7036L75.6583 13.8835ZM76.4054 12.5457L77.0162 11.7539L76.0978 11.0454L75.5323 12.0581L76.4054 12.5457ZM77.8995 13.3623L77.5344 14.2933L77.5406 14.2956L77.8995 13.3623ZM80.801 13.5013L80.4682 12.5582L80.4593 12.5615L80.801 13.5013ZM81.774 12.841L82.5374 13.487L82.5434 13.4799L82.5492 13.4727L81.774 12.841ZM81.8088 10.5824L82.5896 9.95768L81.8088 10.5824ZM80.9053 9.85266L80.4032 10.7174L80.4195 10.7269L80.4361 10.7358L80.9053 9.85266ZM79.7238 9.29668L80.0777 8.36139L80.0672 8.35742L80.0567 8.35369L79.7238 9.29668ZM78.525 8.8102L78.9408 7.90072L78.525 8.8102ZM77.3957 8.14998L76.7743 8.93347L76.7891 8.94521L76.8043 8.95638L77.3957 8.14998ZM76.7355 4.06702L75.8975 3.52134L75.8943 3.52626L76.7355 4.06702ZM78.0559 2.90294L78.5031 3.79737L78.5105 3.79367L78.5178 3.78986L78.0559 2.90294ZM79.9845 2.43384V1.43384H79.9686L79.9527 1.43434L79.9845 2.43384ZM82.1041 2.7292L81.7987 3.68143L81.8038 3.68305L82.1041 2.7292ZM83.7547 3.44155L84.6515 3.88397L85.0634 3.04892L84.2599 2.57853L83.7547 3.44155ZM83.5686 3.85505C83.0857 3.60704 82.5645 3.39551 82.0077 3.21834L81.4013 5.12419C81.8638 5.27134 82.2809 5.44204 82.655 5.63418L83.5686 3.85505ZM82.0077 3.21834C81.4122 3.02887 80.8176 2.92803 80.2277 2.92803V4.92803C80.5876 4.92803 80.9775 4.98935 81.4013 5.12419L82.0077 3.21834ZM80.2277 2.92803C79.397 2.92803 78.6147 3.11862 77.9837 3.60535L79.2053 5.18891C79.3852 5.05017 79.6916 4.92803 80.2277 4.92803V2.92803ZM77.9726 3.61402C77.324 4.12912 77.0038 4.84855 77.0038 5.66545H79.0038C79.0038 5.41674 79.0774 5.29062 79.2164 5.18024L77.9726 3.61402ZM77.0038 5.66545C77.0038 6.29469 77.2234 6.86967 77.6634 7.32964L79.1087 5.94719C79.039 5.87435 79.0038 5.80068 79.0038 5.66545H77.0038ZM77.6789 7.34552C78.0321 7.69874 78.4575 7.99375 78.9364 8.24005L79.8511 6.46147C79.5192 6.29078 79.2727 6.1109 79.0931 5.93131L77.6789 7.34552ZM78.9667 8.25501C79.4103 8.46446 79.8759 8.66037 80.3631 8.84307L81.0653 6.97041C80.6259 6.80562 80.2112 6.63087 79.8207 6.44651L78.9667 8.25501ZM80.3608 8.84221C80.8325 9.0204 81.2886 9.23532 81.7296 9.48733L82.7219 7.75084C82.1899 7.44686 81.6384 7.18689 81.0676 6.97126L80.3608 8.84221ZM81.7296 9.48733C82.0775 9.68615 82.3618 9.95273 82.5894 10.2984L84.2597 9.19842C83.8619 8.5943 83.3469 8.10799 82.7219 7.75084L81.7296 9.48733ZM82.6053 10.3219C82.774 10.5628 82.911 10.9642 82.911 11.6248H84.911C84.911 10.7102 84.7238 9.86067 84.2438 9.17495L82.6053 10.3219ZM82.911 11.6248C82.911 12.1209 82.7897 12.5456 82.5562 12.924L84.2582 13.9742C84.6965 13.2639 84.911 12.4724 84.911 11.6248H82.911ZM82.5613 12.9158C82.3281 13.2857 81.9907 13.5995 81.5154 13.8506L82.4496 15.619C83.2021 15.2215 83.8145 14.6782 84.2531 13.9824L82.5613 12.9158ZM81.5286 13.8438C81.0837 14.0704 80.5164 14.2039 79.7933 14.2039V16.2039C80.7614 16.2039 81.6535 16.0247 82.4364 15.6259L81.5286 13.8438ZM79.7933 14.2039C79.0675 14.2039 78.4103 14.0884 77.813 13.8668L77.1174 15.7419C77.9563 16.0531 78.8512 16.2039 79.7933 16.2039V14.2039ZM77.818 13.8686C77.1711 13.6247 76.6463 13.3535 76.2304 13.0634L75.0861 14.7036C75.6663 15.1084 76.3462 15.4511 77.1124 15.74L77.818 13.8686ZM76.5313 14.3711L77.2784 13.0332L75.5323 12.0581L74.7852 13.3959L76.5313 14.3711ZM75.7946 13.3375C76.2902 13.7198 76.8758 14.0349 77.5345 14.2932L78.2646 12.4313C77.7419 12.2263 77.3313 11.997 77.0162 11.7539L75.7946 13.3375ZM77.5406 14.2956C78.2366 14.5633 78.932 14.7097 79.6196 14.7097V12.7097C79.2184 12.7097 78.7671 12.6245 78.2585 12.4289L77.5406 14.2956ZM79.6196 14.7097C80.1419 14.7097 80.6514 14.6197 81.1428 14.441L80.4593 12.5615C80.1862 12.6608 79.9081 12.7097 79.6196 12.7097V14.7097ZM81.1339 14.4442C81.6848 14.2498 82.1612 13.9316 82.5374 13.487L81.0106 12.1951C80.8772 12.3528 80.7049 12.4747 80.4682 12.5583L81.1339 14.4442ZM82.5492 13.4727C82.9777 12.9468 83.1562 12.3097 83.1562 11.6422H81.1562C81.1562 11.9477 81.0799 12.1098 80.9988 12.2094L82.5492 13.4727ZM83.1562 11.6422C83.1562 11.028 82.9807 10.4466 82.5896 9.95768L81.0279 11.2071C81.1001 11.2973 81.1562 11.4224 81.1562 11.6422H83.1562ZM82.5896 9.95768C82.2622 9.54845 81.8497 9.22202 81.3745 8.96954L80.4361 10.7358C80.7022 10.8771 80.892 11.0372 81.0279 11.2071L82.5896 9.95768ZM81.4074 8.98787C80.9964 8.7492 80.5524 8.54098 80.0777 8.36139L79.37 10.232C79.7525 10.3767 80.0961 10.5391 80.4032 10.7174L81.4074 8.98787ZM80.0567 8.35369C79.6928 8.22526 79.3208 8.07447 78.9408 7.90072L78.1093 9.71967C78.54 9.91658 78.9673 10.0901 79.391 10.2397L80.0567 8.35369ZM78.9408 7.90072C78.5951 7.74272 78.2778 7.55679 77.9871 7.34357L76.8043 8.95638C77.2085 9.25281 77.6441 9.50703 78.1093 9.71967L78.9408 7.90072ZM78.0171 7.36648C77.7879 7.18472 77.6023 6.96456 77.457 6.69816L75.7012 7.65587C75.9729 8.15394 76.3317 8.58242 76.7743 8.93347L78.0171 7.36648ZM77.457 6.69816C77.3463 6.49517 77.2664 6.20534 77.2664 5.78707H75.2664C75.2664 6.4576 75.395 7.0944 75.7012 7.65587L77.457 6.69816ZM77.2664 5.78707C77.2664 5.29073 77.3817 4.91101 77.5766 4.60778L75.8943 3.52626C75.4638 4.19599 75.2664 4.96297 75.2664 5.78707H77.2664ZM77.5735 4.61269C77.7963 4.2705 78.0985 3.99969 78.5031 3.79737L77.6087 2.00851C76.9014 2.36217 76.3233 2.86741 75.8975 3.52135L77.5735 4.61269ZM78.5178 3.78986C78.9205 3.58017 79.4119 3.45252 80.0162 3.43333L79.9527 1.43434C79.0976 1.46149 78.3033 1.64658 77.594 2.01603L78.5178 3.78986ZM79.9845 3.43384C80.7038 3.43384 81.3039 3.5227 81.7987 3.68142L82.4096 1.77699C81.6766 1.54188 80.8635 1.43384 79.9845 1.43384V3.43384ZM81.8038 3.68305C82.371 3.8616 82.8502 4.07082 83.2495 4.30456L84.2599 2.57853C83.7094 2.25629 83.0882 1.99062 82.4044 1.77535L81.8038 3.68305ZM82.8579 2.99912L82.215 4.30219L84.0086 5.18704L84.6515 3.88397L82.8579 2.99912Z" fill="#E6BEAE"/>
<path d="M6.79963 2.95507L6.39058 3.86757L6.39717 3.87053L6.4038 3.87339L6.79963 2.95507ZM8.39807 4.27551L7.56598 4.83023L7.57114 4.83782L8.39807 4.27551ZM8.50231 8.48009L7.60167 8.0453L7.59573 8.05806L8.50231 8.48009ZM6.90388 10.009L6.48482 9.10106L5.45407 9.5768L6.05605 10.5393L6.90388 10.009ZM10.066 15.0649V16.0649H11.8709L10.9138 14.5347L10.066 15.0649ZM8.1027 15.0649L7.2606 15.6043L7.55564 16.0649H8.1027V15.0649ZM5.1317 10.426L5.9738 9.88669L5.64616 9.37511L5.04116 9.43011L5.1317 10.426ZM2.87304 10.4434V9.44338H1.87304V10.4434H2.87304ZM2.87304 15.0649V16.0649H3.87304V15.0649H2.87304ZM1.18774 15.0649H0.18774V16.0649H1.18774V15.0649ZM1.18774 2.50333V1.50333H0.18774V2.50333H1.18774ZM6.24366 8.44534L6.80452 9.27328L6.81018 9.26938L6.24366 8.44534ZM7.0255 7.5245L7.94775 7.91125L7.95197 7.90088L7.0255 7.5245ZM7.00813 5.42221L6.09675 5.8338L7.00813 5.42221ZM6.22628 4.50138L5.63492 5.30778L5.64119 5.31238L5.64753 5.31688L6.22628 4.50138ZM2.87304 4.11914V3.11914H1.87304V4.11914H2.87304ZM2.87304 8.8102H1.87304V9.8102H2.87304V8.8102ZM4.54098 3.50333C5.25266 3.50333 5.86348 3.63129 6.39058 3.86757L7.20869 2.04256C6.39217 1.67653 5.49722 1.50333 4.54098 1.50333V3.50333ZM6.4038 3.87339C6.90382 4.08892 7.28281 4.4054 7.56602 4.83021L9.23012 3.72081C8.72569 2.96417 8.03905 2.40036 7.19546 2.03674L6.4038 3.87339ZM7.57114 4.83782C7.83208 5.22156 7.98879 5.72275 7.98879 6.39517H9.98879C9.98879 5.39966 9.75169 4.48775 9.22499 3.7132L7.57114 4.83782ZM7.98879 6.39517C7.98879 6.95686 7.86324 7.5037 7.60176 8.04534L9.40286 8.91484C9.79002 8.11286 9.98879 7.26976 9.98879 6.39517H7.98879ZM7.59573 8.05806C7.39486 8.48955 7.05009 8.84017 6.48482 9.10106L7.32294 10.917C8.26344 10.4829 8.98429 9.81424 9.40889 8.90212L7.59573 8.05806ZM6.05605 10.5393L9.21816 15.5952L10.9138 14.5347L7.75171 9.47876L6.05605 10.5393ZM10.066 14.0649H8.1027V16.0649H10.066V14.0649ZM8.94481 14.5256L5.9738 9.88669L4.2896 10.9653L7.2606 15.6043L8.94481 14.5256ZM5.04116 9.43011C4.9463 9.43874 4.84342 9.44338 4.73209 9.44338V11.4434C4.89875 11.4434 5.06228 11.4364 5.22224 11.4219L5.04116 9.43011ZM4.73209 9.44338H2.87304V11.4434H4.73209V9.44338ZM1.87304 10.4434V15.0649H3.87304V10.4434H1.87304ZM2.87304 14.0649H1.18774V16.0649H2.87304V14.0649ZM2.18774 15.0649V2.50333H0.18774V15.0649H2.18774ZM1.18774 3.50333H4.54098V1.50333H1.18774V3.50333ZM4.69735 9.8102C5.46724 9.8102 6.21194 9.67467 6.8045 9.27326L5.68281 7.61742C5.55723 7.70249 5.27106 7.8102 4.69735 7.8102V9.8102ZM6.81018 9.26938C7.31378 8.92316 7.71199 8.47329 7.94769 7.91123L6.10331 7.13778C6.03785 7.29385 5.91483 7.45787 5.67713 7.6213L6.81018 9.26938ZM7.95197 7.90088C8.14202 7.43306 8.25137 6.95173 8.25137 6.46467H6.25137C6.25137 6.64942 6.21013 6.87464 6.09903 7.14813L7.95197 7.90088ZM8.25137 6.46467C8.25137 5.9644 8.13007 5.4769 7.91949 5.01063L6.09675 5.8338C6.2105 6.08566 6.25137 6.29314 6.25137 6.46467H8.25137ZM7.91949 5.01063C7.67596 4.47137 7.29144 4.03106 6.80503 3.68587L5.64753 5.31688C5.87926 5.48134 6.01597 5.65492 6.09675 5.8338L7.91949 5.01063ZM6.81765 3.69497C6.2453 3.27525 5.54502 3.11914 4.81897 3.11914V5.11914C5.27436 5.11914 5.51229 5.21785 5.63492 5.30778L6.81765 3.69497ZM4.81897 3.11914H2.87304V5.11914H4.81897V3.11914ZM1.87304 4.11914V8.8102H3.87304V4.11914H1.87304ZM2.87304 9.8102H4.69735V7.8102H2.87304V9.8102ZM12.8312 2.50333V1.50333H11.8312V2.50333H12.8312ZM20.9971 2.50333H21.9971V1.50333H20.9971V2.50333ZM20.9971 4.11914V5.11914H21.9971V4.11914H20.9971ZM14.5165 4.11914V3.11914H13.5165V4.11914H14.5165ZM14.5165 7.94148H13.5165V8.94148H14.5165V7.94148ZM20.3022 7.94148H21.3022V6.94148H20.3022V7.94148ZM20.3022 9.55729V10.5573H21.3022V9.55729H20.3022ZM14.5165 9.55729V8.55729H13.5165V9.55729H14.5165ZM14.5165 13.4318H13.5165V14.4318H14.5165V13.4318ZM21.2404 13.4318H22.2404V12.4318H21.2404V13.4318ZM21.2404 15.0649V16.0649H22.2404V15.0649H21.2404ZM12.8312 15.0649H11.8312V16.0649H12.8312V15.0649ZM12.8312 3.50333H20.9971V1.50333H12.8312V3.50333ZM19.9971 2.50333V4.11914H21.9971V2.50333H19.9971ZM20.9971 3.11914H14.5165V5.11914H20.9971V3.11914ZM13.5165 4.11914V7.94148H15.5165V4.11914H13.5165ZM14.5165 8.94148H20.3022V6.94148H14.5165V8.94148ZM19.3022 7.94148V9.55729H21.3022V7.94148H19.3022ZM20.3022 8.55729H14.5165V10.5573H20.3022V8.55729ZM13.5165 9.55729V13.4318H15.5165V9.55729H13.5165ZM14.5165 14.4318H21.2404V12.4318H14.5165V14.4318ZM20.2404 13.4318V15.0649H22.2404V13.4318H20.2404ZM21.2404 14.0649H12.8312V16.0649H21.2404V14.0649ZM13.8312 15.0649V2.50333H11.8312V15.0649H13.8312ZM24.3559 15.0649H23.3559V16.0649H24.3559V15.0649ZM24.3559 2.10373V1.10373H23.3559V2.10373H24.3559ZM24.3733 2.10373L25.1906 1.52755L24.8919 1.10373H24.3733V2.10373ZM30.5586 10.8777L29.7412 11.4539L30.5529 12.6053L31.3721 11.4593L30.5586 10.8777ZM36.8307 2.10373V1.10373H36.3163L36.0172 1.52218L36.8307 2.10373ZM36.848 2.10373H37.848V1.10373H36.848V2.10373ZM36.848 15.0649V16.0649H37.848V15.0649H36.848ZM35.1801 15.0649H34.1801V16.0649H35.1801V15.0649ZM35.1801 6.95115H36.1801V3.80612L34.3637 6.37362L35.1801 6.95115ZM30.5586 13.4839V14.4839H31.076L31.3749 14.0614L30.5586 13.4839ZM30.5238 13.4839L29.7119 14.0677L30.0112 14.4839H30.5238V13.4839ZM25.9891 7.17702L26.801 6.59324L24.9891 4.07322V7.17702H25.9891ZM25.9891 15.0649V16.0649H26.9891V15.0649H25.9891ZM25.3559 15.0649V2.10373H23.3559V15.0649H25.3559ZM24.3559 3.10373H24.3733V1.10373H24.3559V3.10373ZM23.556 2.6799L29.7412 11.4539L31.3759 10.3016L25.1906 1.52755L23.556 2.6799ZM31.3721 11.4593L37.6442 2.68527L36.0172 1.52218L29.745 10.2962L31.3721 11.4593ZM36.8307 3.10373H36.848V1.10373H36.8307V3.10373ZM35.848 2.10373V15.0649H37.848V2.10373H35.848ZM36.848 14.0649H35.1801V16.0649H36.848V14.0649ZM36.1801 15.0649V6.95115H34.1801V15.0649H36.1801ZM34.3637 6.37362L29.7422 12.9063L31.3749 14.0614L35.9965 7.52869L34.3637 6.37362ZM30.5586 12.4839H30.5238V14.4839H30.5586V12.4839ZM31.3357 12.9001L26.801 6.59324L25.1772 7.76079L29.7119 14.0677L31.3357 12.9001ZM24.9891 7.17702V15.0649H26.9891V7.17702H24.9891ZM25.9891 14.0649H24.3559V16.0649H25.9891V14.0649ZM39.3805 15.0649L38.4584 14.678L37.8763 16.0649H39.3805V15.0649ZM44.8708 1.98211V0.982105H44.2059L43.9487 1.59514L44.8708 1.98211ZM44.975 1.98211L45.8971 1.59514L45.6398 0.982105H44.975V1.98211ZM50.4653 15.0649V16.0649H51.9694L51.3874 14.678L50.4653 15.0649ZM48.5194 15.0649L47.5892 15.4321L47.839 16.0649H48.5194V15.0649ZM47.2163 11.7638L48.1464 11.3967L47.8966 10.7638H47.2163V11.7638ZM42.3862 11.7638V10.7638H41.7125L41.4594 11.3882L42.3862 11.7638ZM41.0484 15.0649V16.0649H41.7222L41.9752 15.4405L41.0484 15.0649ZM42.977 10.3044L42.0519 9.92452L41.4853 11.3044H42.977V10.3044ZM46.6429 10.3044V11.3044H48.1085L47.5741 9.93972L46.6429 10.3044ZM44.8534 5.73495L45.7845 5.37029L44.8754 3.04888L43.9283 5.35509L44.8534 5.73495ZM40.3026 15.4519L45.7929 2.36907L43.9487 1.59514L38.4584 14.678L40.3026 15.4519ZM44.8708 2.98211H44.975V0.982105H44.8708V2.98211ZM44.0529 2.36907L49.5432 15.4519L51.3874 14.678L45.8971 1.59514L44.0529 2.36907ZM50.4653 14.0649H48.5194V16.0649H50.4653V14.0649ZM49.4495 14.6978L48.1464 11.3967L46.2861 12.131L47.5892 15.4321L49.4495 14.6978ZM47.2163 10.7638H42.3862V12.7638H47.2163V10.7638ZM41.4594 11.3882L40.1216 14.6894L41.9752 15.4405L43.313 12.1394L41.4594 11.3882ZM41.0484 14.0649H39.3805V16.0649H41.0484V14.0649ZM42.977 11.3044H46.6429V9.30439H42.977V11.3044ZM47.5741 9.93972L45.7845 5.37029L43.9222 6.09962L45.7118 10.6691L47.5741 9.93972ZM43.9283 5.35509L42.0519 9.92452L43.902 10.6843L45.7784 6.11482L43.9283 5.35509ZM58.5994 2.95507L58.1904 3.86757L58.197 3.87053L58.2036 3.87339L58.5994 2.95507ZM60.1979 4.27551L59.3658 4.83023L59.3709 4.83782L60.1979 4.27551ZM60.3021 8.48009L59.4015 8.0453L59.3955 8.05806L60.3021 8.48009ZM58.7037 10.009L58.2846 9.10106L57.2539 9.5768L57.8558 10.5393L58.7037 10.009ZM61.8658 15.0649V16.0649H63.6707L62.7136 14.5347L61.8658 15.0649ZM59.9025 15.0649L59.0604 15.6043L59.3554 16.0649H59.9025V15.0649ZM56.9315 10.426L57.7736 9.88669L57.446 9.37511L56.841 9.43011L56.9315 10.426ZM54.6728 10.4434V9.44338H53.6728V10.4434H54.6728ZM54.6728 15.0649V16.0649H55.6728V15.0649H54.6728ZM52.9875 15.0649H51.9875V16.0649H52.9875V15.0649ZM52.9875 2.50333V1.50333H51.9875V2.50333H52.9875ZM58.0434 8.44534L58.6043 9.27328L58.61 9.26938L58.0434 8.44534ZM58.8253 7.5245L59.7476 7.91125L59.7518 7.90088L58.8253 7.5245ZM58.8079 5.42221L57.8966 5.8338L58.8079 5.42221ZM58.0261 4.50138L57.4347 5.30778L57.441 5.31238L57.4473 5.31688L58.0261 4.50138ZM54.6728 4.11914V3.11914H53.6728V4.11914H54.6728ZM54.6728 8.8102H53.6728V9.8102H54.6728V8.8102ZM56.3408 3.50333C57.0525 3.50333 57.6633 3.63129 58.1904 3.86757L59.0085 2.04256C58.192 1.67653 57.297 1.50333 56.3408 1.50333V3.50333ZM58.2036 3.87339C58.7036 4.08892 59.0826 4.4054 59.3658 4.83021L61.0299 3.72081C60.5255 2.96417 59.8389 2.40036 58.9953 2.03674L58.2036 3.87339ZM59.3709 4.83782C59.6319 5.22156 59.7886 5.72275 59.7886 6.39517H61.7886C61.7886 5.39966 61.5515 4.48775 61.0248 3.7132L59.3709 4.83782ZM59.7886 6.39517C59.7886 6.95686 59.663 7.5037 59.4016 8.04534L61.2027 8.91484C61.5898 8.11286 61.7886 7.26976 61.7886 6.39517H59.7886ZM59.3955 8.05806C59.1947 8.48955 58.8499 8.84017 58.2846 9.10106L59.1227 10.917C60.0632 10.4829 60.7841 9.81424 61.2087 8.90212L59.3955 8.05806ZM57.8558 10.5393L61.018 15.5952L62.7136 14.5347L59.5515 9.47876L57.8558 10.5393ZM61.8658 14.0649H59.9025V16.0649H61.8658V14.0649ZM60.7446 14.5256L57.7736 9.88669L56.0894 10.9653L59.0604 15.6043L60.7446 14.5256ZM56.841 9.43011C56.7461 9.43874 56.6432 9.44338 56.5319 9.44338V11.4434C56.6985 11.4434 56.8621 11.4364 57.022 11.4219L56.841 9.43011ZM56.5319 9.44338H54.6728V11.4434H56.5319V9.44338ZM53.6728 10.4434V15.0649H55.6728V10.4434H53.6728ZM54.6728 14.0649H52.9875V16.0649H54.6728V14.0649ZM53.9875 15.0649V2.50333H51.9875V15.0649H53.9875ZM52.9875 3.50333H56.3408V1.50333H52.9875V3.50333ZM56.4971 9.8102C57.267 9.8102 58.0117 9.67467 58.6043 9.27326L57.4826 7.61742C57.357 7.70249 57.0709 7.8102 56.4971 7.8102V9.8102ZM58.61 9.26938C59.1136 8.92316 59.5118 8.47329 59.7475 7.91123L57.9031 7.13778C57.8376 7.29385 57.7146 7.45787 57.4769 7.6213L58.61 9.26938ZM59.7518 7.90088C59.9418 7.43306 60.0512 6.95173 60.0512 6.46467H58.0512C58.0512 6.64942 58.0099 6.87464 57.8988 7.14813L59.7518 7.90088ZM60.0512 6.46467C60.0512 5.9644 59.9299 5.4769 59.7193 5.01063L57.8966 5.8338C58.0103 6.08566 58.0512 6.29314 58.0512 6.46467H60.0512ZM59.7193 5.01063C59.4758 4.47137 59.0912 4.03106 58.6048 3.68587L57.4473 5.31688C57.6791 5.48134 57.8158 5.65492 57.8966 5.8338L59.7193 5.01063ZM58.6174 3.69497C58.0451 3.27525 57.3448 3.11914 56.6188 3.11914V5.11914C57.0742 5.11914 57.3121 5.21785 57.4347 5.30778L58.6174 3.69497ZM56.6188 3.11914H54.6728V5.11914H56.6188V3.11914ZM53.6728 4.11914V8.8102H55.6728V4.11914H53.6728ZM54.6728 9.8102H56.4971V7.8102H54.6728V9.8102ZM66.3511 7.55925L67.3476 7.6423L67.3511 7.60085V7.55925H66.3511ZM66.299 8.18472L65.3024 8.10168L67.1444 8.71872L66.299 8.18472ZM66.5074 7.85461L65.7853 7.16291L65.7157 7.23556L65.662 7.32062L66.5074 7.85461ZM71.6329 2.50333V1.50333H71.206L70.9107 1.81163L71.6329 2.50333ZM73.822 2.50333L74.5429 3.1964L76.1706 1.50333H73.822V2.50333ZM68.6271 7.90674L67.9062 7.21367L67.3105 7.8333L67.8336 8.51533L68.6271 7.90674ZM74.1174 15.0649V16.0649H76.1446L74.9109 14.4563L74.1174 15.0649ZM71.9803 15.0649L71.1812 15.666L71.4812 16.0649H71.9803V15.0649ZM67.3935 8.96657L68.1927 8.36547L67.5121 7.46062L66.6983 8.24778L67.3935 8.96657ZM66.3337 9.99165L65.6385 9.27286L65.3323 9.56905L65.3337 9.99508L66.3337 9.99165ZM66.3511 15.0649V16.0649H67.3545L67.3511 15.0615L66.3511 15.0649ZM64.631 15.0649H63.631V16.0649H64.631V15.0649ZM64.631 2.50333V1.50333H63.631V2.50333H64.631ZM66.3511 2.50333H67.3511V1.50333H66.3511V2.50333ZM65.3545 7.47621L65.3024 8.10168L67.2955 8.26777L67.3476 7.6423L65.3545 7.47621ZM67.1444 8.71872L67.3529 8.38861L65.662 7.32062L65.4535 7.65073L67.1444 8.71872ZM67.2296 8.54632L72.355 3.19504L70.9107 1.81163L65.7853 7.16291L67.2296 8.54632ZM71.6329 3.50333H73.822V1.50333H71.6329V3.50333ZM73.1011 1.81027L67.9062 7.21367L69.348 8.5998L74.5429 3.1964L73.1011 1.81027ZM67.8336 8.51533L73.3239 15.6735L74.9109 14.4563L69.4206 7.29814L67.8336 8.51533ZM74.1174 14.0649H71.9803V16.0649H74.1174V14.0649ZM72.7795 14.4638L68.1927 8.36547L66.5944 9.56766L71.1812 15.666L72.7795 14.4638ZM66.6983 8.24778L65.6385 9.27286L67.0289 10.7104L68.0888 9.68536L66.6983 8.24778ZM65.3337 9.99508L65.3511 15.0684L67.3511 15.0615L67.3337 9.98823L65.3337 9.99508ZM66.3511 14.0649H64.631V16.0649H66.3511V14.0649ZM65.631 15.0649V2.50333H63.631V15.0649H65.631ZM64.631 3.50333H66.3511V1.50333H64.631V3.50333ZM65.3511 2.50333V7.55925H67.3511V2.50333H65.3511ZM83.1118 4.74462L82.655 5.63418L83.559 6.0984L84.0086 5.18704L83.1118 4.74462ZM78.5945 4.39713L77.9837 3.60527L77.9726 3.61402L78.5945 4.39713ZM78.386 6.63841L77.6634 7.32964L77.6711 7.33767L77.6789 7.34552L78.386 6.63841ZM79.3937 7.35076L78.9364 8.24005L78.9514 8.24778L78.9667 8.25501L79.3937 7.35076ZM80.7142 7.90674L81.0676 6.97126L81.0653 6.97041L80.7142 7.90674ZM82.2257 8.61908L82.7219 7.75084L82.2257 8.61908ZM83.4246 9.74841L82.5894 10.2984L82.5972 10.3102L82.6053 10.3219L83.4246 9.74841ZM83.4072 13.4491L84.2532 13.9825L84.2582 13.9742L83.4072 13.4491ZM81.9825 14.7348L82.4364 15.6259L82.4431 15.6225L82.4496 15.619L81.9825 14.7348ZM77.4652 14.8043L77.1124 15.74L77.1174 15.7419L77.4652 14.8043ZM75.6583 13.8835L74.7852 13.3959L74.344 14.1859L75.0861 14.7036L75.6583 13.8835ZM76.4054 12.5457L77.0162 11.7539L76.0978 11.0454L75.5323 12.0581L76.4054 12.5457ZM77.8995 13.3623L77.5344 14.2933L77.5406 14.2956L77.8995 13.3623ZM80.801 13.5013L80.4682 12.5582L80.4593 12.5615L80.801 13.5013ZM81.774 12.841L82.5374 13.487L82.5434 13.4799L82.5492 13.4727L81.774 12.841ZM81.8088 10.5824L82.5896 9.95768L81.8088 10.5824ZM80.9053 9.85266L80.4032 10.7174L80.4195 10.7269L80.4361 10.7358L80.9053 9.85266ZM79.7238 9.29668L80.0777 8.36139L80.0672 8.35742L80.0567 8.35369L79.7238 9.29668ZM78.525 8.8102L78.9408 7.90072L78.525 8.8102ZM77.3957 8.14998L76.7743 8.93347L76.7891 8.94521L76.8043 8.95638L77.3957 8.14998ZM76.7355 4.06702L75.8975 3.52134L75.8943 3.52626L76.7355 4.06702ZM78.0559 2.90294L78.5031 3.79737L78.5105 3.79367L78.5178 3.78986L78.0559 2.90294ZM79.9845 2.43384V1.43384H79.9686L79.9527 1.43434L79.9845 2.43384ZM82.1041 2.7292L81.7987 3.68143L81.8038 3.68305L82.1041 2.7292ZM83.7547 3.44155L84.6515 3.88397L85.0634 3.04892L84.2599 2.57853L83.7547 3.44155ZM83.5686 3.85505C83.0857 3.60704 82.5645 3.39551 82.0077 3.21834L81.4013 5.12419C81.8638 5.27134 82.2809 5.44204 82.655 5.63418L83.5686 3.85505ZM82.0077 3.21834C81.4122 3.02887 80.8176 2.92803 80.2277 2.92803V4.92803C80.5876 4.92803 80.9775 4.98935 81.4013 5.12419L82.0077 3.21834ZM80.2277 2.92803C79.397 2.92803 78.6147 3.11862 77.9837 3.60535L79.2053 5.18891C79.3852 5.05017 79.6916 4.92803 80.2277 4.92803V2.92803ZM77.9726 3.61402C77.324 4.12912 77.0038 4.84855 77.0038 5.66545H79.0038C79.0038 5.41674 79.0774 5.29062 79.2164 5.18024L77.9726 3.61402ZM77.0038 5.66545C77.0038 6.29469 77.2234 6.86967 77.6634 7.32964L79.1087 5.94719C79.039 5.87435 79.0038 5.80068 79.0038 5.66545H77.0038ZM77.6789 7.34552C78.0321 7.69874 78.4575 7.99375 78.9364 8.24005L79.8511 6.46147C79.5192 6.29078 79.2727 6.1109 79.0931 5.93131L77.6789 7.34552ZM78.9667 8.25501C79.4103 8.46446 79.8759 8.66037 80.3631 8.84307L81.0653 6.97041C80.6259 6.80562 80.2112 6.63087 79.8207 6.44651L78.9667 8.25501ZM80.3608 8.84221C80.8325 9.0204 81.2886 9.23532 81.7296 9.48733L82.7219 7.75084C82.1899 7.44686 81.6384 7.18689 81.0676 6.97126L80.3608 8.84221ZM81.7296 9.48733C82.0775 9.68615 82.3618 9.95273 82.5894 10.2984L84.2597 9.19842C83.8619 8.5943 83.3469 8.10799 82.7219 7.75084L81.7296 9.48733ZM82.6053 10.3219C82.774 10.5628 82.911 10.9642 82.911 11.6248H84.911C84.911 10.7102 84.7238 9.86067 84.2438 9.17495L82.6053 10.3219ZM82.911 11.6248C82.911 12.1209 82.7897 12.5456 82.5562 12.924L84.2582 13.9742C84.6965 13.2639 84.911 12.4724 84.911 11.6248H82.911ZM82.5613 12.9158C82.3281 13.2857 81.9907 13.5995 81.5154 13.8506L82.4496 15.619C83.2021 15.2215 83.8145 14.6782 84.2531 13.9824L82.5613 12.9158ZM81.5286 13.8438C81.0837 14.0704 80.5164 14.2039 79.7933 14.2039V16.2039C80.7614 16.2039 81.6535 16.0247 82.4364 15.6259L81.5286 13.8438ZM79.7933 14.2039C79.0675 14.2039 78.4103 14.0884 77.813 13.8668L77.1174 15.7419C77.9563 16.0531 78.8512 16.2039 79.7933 16.2039V14.2039ZM77.818 13.8686C77.1711 13.6247 76.6463 13.3535 76.2304 13.0634L75.0861 14.7036C75.6663 15.1084 76.3462 15.4511 77.1124 15.74L77.818 13.8686ZM76.5313 14.3711L77.2784 13.0332L75.5323 12.0581L74.7852 13.3959L76.5313 14.3711ZM75.7946 13.3375C76.2902 13.7198 76.8758 14.0349 77.5345 14.2932L78.2646 12.4313C77.7419 12.2263 77.3313 11.997 77.0162 11.7539L75.7946 13.3375ZM77.5406 14.2956C78.2366 14.5633 78.932 14.7097 79.6196 14.7097V12.7097C79.2184 12.7097 78.7671 12.6245 78.2585 12.4289L77.5406 14.2956ZM79.6196 14.7097C80.1419 14.7097 80.6514 14.6197 81.1428 14.441L80.4593 12.5615C80.1862 12.6608 79.9081 12.7097 79.6196 12.7097V14.7097ZM81.1339 14.4442C81.6848 14.2498 82.1612 13.9316 82.5374 13.487L81.0106 12.1951C80.8772 12.3528 80.7049 12.4747 80.4682 12.5583L81.1339 14.4442ZM82.5492 13.4727C82.9777 12.9468 83.1562 12.3097 83.1562 11.6422H81.1562C81.1562 11.9477 81.0799 12.1098 80.9988 12.2094L82.5492 13.4727ZM83.1562 11.6422C83.1562 11.028 82.9807 10.4466 82.5896 9.95768L81.0279 11.2071C81.1001 11.2973 81.1562 11.4224 81.1562 11.6422H83.1562ZM82.5896 9.95768C82.2622 9.54845 81.8497 9.22202 81.3745 8.96954L80.4361 10.7358C80.7022 10.8771 80.892 11.0372 81.0279 11.2071L82.5896 9.95768ZM81.4074 8.98787C80.9964 8.7492 80.5524 8.54098 80.0777 8.36139L79.37 10.232C79.7525 10.3767 80.0961 10.5391 80.4032 10.7174L81.4074 8.98787ZM80.0567 8.35369C79.6928 8.22526 79.3208 8.07447 78.9408 7.90072L78.1093 9.71967C78.54 9.91658 78.9673 10.0901 79.391 10.2397L80.0567 8.35369ZM78.9408 7.90072C78.5951 7.74272 78.2778 7.55679 77.9871 7.34357L76.8043 8.95638C77.2085 9.25281 77.6441 9.50703 78.1093 9.71967L78.9408 7.90072ZM78.0171 7.36648C77.7879 7.18472 77.6023 6.96456 77.457 6.69816L75.7012 7.65587C75.9729 8.15394 76.3317 8.58242 76.7743 8.93347L78.0171 7.36648ZM77.457 6.69816C77.3463 6.49517 77.2664 6.20534 77.2664 5.78707H75.2664C75.2664 6.4576 75.395 7.0944 75.7012 7.65587L77.457 6.69816ZM77.2664 5.78707C77.2664 5.29073 77.3817 4.91101 77.5766 4.60778L75.8943 3.52626C75.4638 4.19599 75.2664 4.96297 75.2664 5.78707H77.2664ZM77.5735 4.61269C77.7963 4.2705 78.0985 3.99969 78.5031 3.79737L77.6087 2.00851C76.9014 2.36217 76.3233 2.86741 75.8975 3.52135L77.5735 4.61269ZM78.5178 3.78986C78.9205 3.58017 79.4119 3.45252 80.0162 3.43333L79.9527 1.43434C79.0976 1.46149 78.3033 1.64658 77.594 2.01603L78.5178 3.78986ZM79.9845 3.43384C80.7038 3.43384 81.3039 3.5227 81.7987 3.68142L82.4096 1.77699C81.6766 1.54188 80.8635 1.43384 79.9845 1.43384V3.43384ZM81.8038 3.68305C82.371 3.8616 82.8502 4.07082 83.2495 4.30456L84.2599 2.57853C83.7094 2.25629 83.0882 1.99062 82.4044 1.77535L81.8038 3.68305ZM82.8579 2.99912L82.215 4.30219L84.0086 5.18704L84.6515 3.88397L82.8579 2.99912Z" fill="#E7D8C9"/>
<path d="M6.79963 2.95507L6.39058 3.86757L6.39717 3.87053L6.4038 3.87339L6.79963 2.95507ZM8.39807 4.27551L7.56598 4.83023L7.57114 4.83782L8.39807 4.27551ZM8.50231 8.48009L7.60167 8.0453L7.59573 8.05806L8.50231 8.48009ZM6.90388 10.009L6.48482 9.10106L5.45407 9.5768L6.05605 10.5393L6.90388 10.009ZM10.066 15.0649V16.0649H11.8709L10.9138 14.5347L10.066 15.0649ZM8.1027 15.0649L7.2606 15.6043L7.55564 16.0649H8.1027V15.0649ZM5.1317 10.426L5.9738 9.88669L5.64616 9.37511L5.04116 9.43011L5.1317 10.426ZM2.87304 10.4434V9.44338H1.87304V10.4434H2.87304ZM2.87304 15.0649V16.0649H3.87304V15.0649H2.87304ZM1.18774 15.0649H0.18774V16.0649H1.18774V15.0649ZM1.18774 2.50333V1.50333H0.18774V2.50333H1.18774ZM6.24366 8.44534L6.80452 9.27328L6.81018 9.26938L6.24366 8.44534ZM7.0255 7.5245L7.94775 7.91125L7.95197 7.90088L7.0255 7.5245ZM7.00813 5.42221L6.09675 5.8338L7.00813 5.42221ZM6.22628 4.50138L5.63492 5.30778L5.64119 5.31238L5.64753 5.31688L6.22628 4.50138ZM2.87304 4.11914V3.11914H1.87304V4.11914H2.87304ZM2.87304 8.8102H1.87304V9.8102H2.87304V8.8102ZM4.54098 3.50333C5.25266 3.50333 5.86348 3.63129 6.39058 3.86757L7.20869 2.04256C6.39217 1.67653 5.49722 1.50333 4.54098 1.50333V3.50333ZM6.4038 3.87339C6.90382 4.08892 7.28281 4.4054 7.56602 4.83021L9.23012 3.72081C8.72569 2.96417 8.03905 2.40036 7.19546 2.03674L6.4038 3.87339ZM7.57114 4.83782C7.83208 5.22156 7.98879 5.72275 7.98879 6.39517H9.98879C9.98879 5.39966 9.75169 4.48775 9.22499 3.7132L7.57114 4.83782ZM7.98879 6.39517C7.98879 6.95686 7.86324 7.5037 7.60176 8.04534L9.40286 8.91484C9.79002 8.11286 9.98879 7.26976 9.98879 6.39517H7.98879ZM7.59573 8.05806C7.39486 8.48955 7.05009 8.84017 6.48482 9.10106L7.32294 10.917C8.26344 10.4829 8.98429 9.81424 9.40889 8.90212L7.59573 8.05806ZM6.05605 10.5393L9.21816 15.5952L10.9138 14.5347L7.75171 9.47876L6.05605 10.5393ZM10.066 14.0649H8.1027V16.0649H10.066V14.0649ZM8.94481 14.5256L5.9738 9.88669L4.2896 10.9653L7.2606 15.6043L8.94481 14.5256ZM5.04116 9.43011C4.9463 9.43874 4.84342 9.44338 4.73209 9.44338V11.4434C4.89875 11.4434 5.06228 11.4364 5.22224 11.4219L5.04116 9.43011ZM4.73209 9.44338H2.87304V11.4434H4.73209V9.44338ZM1.87304 10.4434V15.0649H3.87304V10.4434H1.87304ZM2.87304 14.0649H1.18774V16.0649H2.87304V14.0649ZM2.18774 15.0649V2.50333H0.18774V15.0649H2.18774ZM1.18774 3.50333H4.54098V1.50333H1.18774V3.50333ZM4.69735 9.8102C5.46724 9.8102 6.21194 9.67467 6.8045 9.27326L5.68281 7.61742C5.55723 7.70249 5.27106 7.8102 4.69735 7.8102V9.8102ZM6.81018 9.26938C7.31378 8.92316 7.71199 8.47329 7.94769 7.91123L6.10331 7.13778C6.03785 7.29385 5.91483 7.45787 5.67713 7.6213L6.81018 9.26938ZM7.95197 7.90088C8.14202 7.43306 8.25137 6.95173 8.25137 6.46467H6.25137C6.25137 6.64942 6.21013 6.87464 6.09903 7.14813L7.95197 7.90088ZM8.25137 6.46467C8.25137 5.9644 8.13007 5.4769 7.91949 5.01063L6.09675 5.8338C6.2105 6.08566 6.25137 6.29314 6.25137 6.46467H8.25137ZM7.91949 5.01063C7.67596 4.47137 7.29144 4.03106 6.80503 3.68587L5.64753 5.31688C5.87926 5.48134 6.01597 5.65492 6.09675 5.8338L7.91949 5.01063ZM6.81765 3.69497C6.2453 3.27525 5.54502 3.11914 4.81897 3.11914V5.11914C5.27436 5.11914 5.51229 5.21785 5.63492 5.30778L6.81765 3.69497ZM4.81897 3.11914H2.87304V5.11914H4.81897V3.11914ZM1.87304 4.11914V8.8102H3.87304V4.11914H1.87304ZM2.87304 9.8102H4.69735V7.8102H2.87304V9.8102ZM12.8312 2.50333V1.50333H11.8312V2.50333H12.8312ZM20.9971 2.50333H21.9971V1.50333H20.9971V2.50333ZM20.9971 4.11914V5.11914H21.9971V4.11914H20.9971ZM14.5165 4.11914V3.11914H13.5165V4.11914H14.5165ZM14.5165 7.94148H13.5165V8.94148H14.5165V7.94148ZM20.3022 7.94148H21.3022V6.94148H20.3022V7.94148ZM20.3022 9.55729V10.5573H21.3022V9.55729H20.3022ZM14.5165 9.55729V8.55729H13.5165V9.55729H14.5165ZM14.5165 13.4318H13.5165V14.4318H14.5165V13.4318ZM21.2404 13.4318H22.2404V12.4318H21.2404V13.4318ZM21.2404 15.0649V16.0649H22.2404V15.0649H21.2404ZM12.8312 15.0649H11.8312V16.0649H12.8312V15.0649ZM12.8312 3.50333H20.9971V1.50333H12.8312V3.50333ZM19.9971 2.50333V4.11914H21.9971V2.50333H19.9971ZM20.9971 3.11914H14.5165V5.11914H20.9971V3.11914ZM13.5165 4.11914V7.94148H15.5165V4.11914H13.5165ZM14.5165 8.94148H20.3022V6.94148H14.5165V8.94148ZM19.3022 7.94148V9.55729H21.3022V7.94148H19.3022ZM20.3022 8.55729H14.5165V10.5573H20.3022V8.55729ZM13.5165 9.55729V13.4318H15.5165V9.55729H13.5165ZM14.5165 14.4318H21.2404V12.4318H14.5165V14.4318ZM20.2404 13.4318V15.0649H22.2404V13.4318H20.2404ZM21.2404 14.0649H12.8312V16.0649H21.2404V14.0649ZM13.8312 15.0649V2.50333H11.8312V15.0649H13.8312ZM24.3559 15.0649H23.3559V16.0649H24.3559V15.0649ZM24.3559 2.10373V1.10373H23.3559V2.10373H24.3559ZM24.3733 2.10373L25.1906 1.52755L24.8919 1.10373H24.3733V2.10373ZM30.5586 10.8777L29.7412 11.4539L30.5529 12.6053L31.3721 11.4593L30.5586 10.8777ZM36.8307 2.10373V1.10373H36.3163L36.0172 1.52218L36.8307 2.10373ZM36.848 2.10373H37.848V1.10373H36.848V2.10373ZM36.848 15.0649V16.0649H37.848V15.0649H36.848ZM35.1801 15.0649H34.1801V16.0649H35.1801V15.0649ZM35.1801 6.95115H36.1801V3.80612L34.3637 6.37362L35.1801 6.95115ZM30.5586 13.4839V14.4839H31.076L31.3749 14.0614L30.5586 13.4839ZM30.5238 13.4839L29.7119 14.0677L30.0112 14.4839H30.5238V13.4839ZM25.9891 7.17702L26.801 6.59324L24.9891 4.07322V7.17702H25.9891ZM25.9891 15.0649V16.0649H26.9891V15.0649H25.9891ZM25.3559 15.0649V2.10373H23.3559V15.0649H25.3559ZM24.3559 3.10373H24.3733V1.10373H24.3559V3.10373ZM23.556 2.6799L29.7412 11.4539L31.3759 10.3016L25.1906 1.52755L23.556 2.6799ZM31.3721 11.4593L37.6442 2.68527L36.0172 1.52218L29.745 10.2962L31.3721 11.4593ZM36.8307 3.10373H36.848V1.10373H36.8307V3.10373ZM35.848 2.10373V15.0649H37.848V2.10373H35.848ZM36.848 14.0649H35.1801V16.0649H36.848V14.0649ZM36.1801 15.0649V6.95115H34.1801V15.0649H36.1801ZM34.3637 6.37362L29.7422 12.9063L31.3749 14.0614L35.9965 7.52869L34.3637 6.37362ZM30.5586 12.4839H30.5238V14.4839H30.5586V12.4839ZM31.3357 12.9001L26.801 6.59324L25.1772 7.76079L29.7119 14.0677L31.3357 12.9001ZM24.9891 7.17702V15.0649H26.9891V7.17702H24.9891ZM25.9891 14.0649H24.3559V16.0649H25.9891V14.0649ZM39.3805 15.0649L38.4584 14.678L37.8763 16.0649H39.3805V15.0649ZM44.8708 1.98211V0.982105H44.2059L43.9487 1.59514L44.8708 1.98211ZM44.975 1.98211L45.8971 1.59514L45.6398 0.982105H44.975V1.98211ZM50.4653 15.0649V16.0649H51.9694L51.3874 14.678L50.4653 15.0649ZM48.5194 15.0649L47.5892 15.4321L47.839 16.0649H48.5194V15.0649ZM47.2163 11.7638L48.1464 11.3967L47.8966 10.7638H47.2163V11.7638ZM42.3862 11.7638V10.7638H41.7125L41.4594 11.3882L42.3862 11.7638ZM41.0484 15.0649V16.0649H41.7222L41.9752 15.4405L41.0484 15.0649ZM42.977 10.3044L42.0519 9.92452L41.4853 11.3044H42.977V10.3044ZM46.6429 10.3044V11.3044H48.1085L47.5741 9.93972L46.6429 10.3044ZM44.8534 5.73495L45.7845 5.37029L44.8754 3.04888L43.9283 5.35509L44.8534 5.73495ZM40.3026 15.4519L45.7929 2.36907L43.9487 1.59514L38.4584 14.678L40.3026 15.4519ZM44.8708 2.98211H44.975V0.982105H44.8708V2.98211ZM44.0529 2.36907L49.5432 15.4519L51.3874 14.678L45.8971 1.59514L44.0529 2.36907ZM50.4653 14.0649H48.5194V16.0649H50.4653V14.0649ZM49.4495 14.6978L48.1464 11.3967L46.2861 12.131L47.5892 15.4321L49.4495 14.6978ZM47.2163 10.7638H42.3862V12.7638H47.2163V10.7638ZM41.4594 11.3882L40.1216 14.6894L41.9752 15.4405L43.313 12.1394L41.4594 11.3882ZM41.0484 14.0649H39.3805V16.0649H41.0484V14.0649ZM42.977 11.3044H46.6429V9.30439H42.977V11.3044ZM47.5741 9.93972L45.7845 5.37029L43.9222 6.09962L45.7118 10.6691L47.5741 9.93972ZM43.9283 5.35509L42.0519 9.92452L43.902 10.6843L45.7784 6.11482L43.9283 5.35509ZM58.5994 2.95507L58.1904 3.86757L58.197 3.87053L58.2036 3.87339L58.5994 2.95507ZM60.1979 4.27551L59.3658 4.83023L59.3709 4.83782L60.1979 4.27551ZM60.3021 8.48009L59.4015 8.0453L59.3955 8.05806L60.3021 8.48009ZM58.7037 10.009L58.2846 9.10106L57.2539 9.5768L57.8558 10.5393L58.7037 10.009ZM61.8658 15.0649V16.0649H63.6707L62.7136 14.5347L61.8658 15.0649ZM59.9025 15.0649L59.0604 15.6043L59.3554 16.0649H59.9025V15.0649ZM56.9315 10.426L57.7736 9.88669L57.446 9.37511L56.841 9.43011L56.9315 10.426ZM54.6728 10.4434V9.44338H53.6728V10.4434H54.6728ZM54.6728 15.0649V16.0649H55.6728V15.0649H54.6728ZM52.9875 15.0649H51.9875V16.0649H52.9875V15.0649ZM52.9875 2.50333V1.50333H51.9875V2.50333H52.9875ZM58.0434 8.44534L58.6043 9.27328L58.61 9.26938L58.0434 8.44534ZM58.8253 7.5245L59.7476 7.91125L59.7518 7.90088L58.8253 7.5245ZM58.8079 5.42221L57.8966 5.8338L58.8079 5.42221ZM58.0261 4.50138L57.4347 5.30778L57.441 5.31238L57.4473 5.31688L58.0261 4.50138ZM54.6728 4.11914V3.11914H53.6728V4.11914H54.6728ZM54.6728 8.8102H53.6728V9.8102H54.6728V8.8102ZM56.3408 3.50333C57.0525 3.50333 57.6633 3.63129 58.1904 3.86757L59.0085 2.04256C58.192 1.67653 57.297 1.50333 56.3408 1.50333V3.50333ZM58.2036 3.87339C58.7036 4.08892 59.0826 4.4054 59.3658 4.83021L61.0299 3.72081C60.5255 2.96417 59.8389 2.40036 58.9953 2.03674L58.2036 3.87339ZM59.3709 4.83782C59.6319 5.22156 59.7886 5.72275 59.7886 6.39517H61.7886C61.7886 5.39966 61.5515 4.48775 61.0248 3.7132L59.3709 4.83782ZM59.7886 6.39517C59.7886 6.95686 59.663 7.5037 59.4016 8.04534L61.2027 8.91484C61.5898 8.11286 61.7886 7.26976 61.7886 6.39517H59.7886ZM59.3955 8.05806C59.1947 8.48955 58.8499 8.84017 58.2846 9.10106L59.1227 10.917C60.0632 10.4829 60.7841 9.81424 61.2087 8.90212L59.3955 8.05806ZM57.8558 10.5393L61.018 15.5952L62.7136 14.5347L59.5515 9.47876L57.8558 10.5393ZM61.8658 14.0649H59.9025V16.0649H61.8658V14.0649ZM60.7446 14.5256L57.7736 9.88669L56.0894 10.9653L59.0604 15.6043L60.7446 14.5256ZM56.841 9.43011C56.7461 9.43874 56.6432 9.44338 56.5319 9.44338V11.4434C56.6985 11.4434 56.8621 11.4364 57.022 11.4219L56.841 9.43011ZM56.5319 9.44338H54.6728V11.4434H56.5319V9.44338ZM53.6728 10.4434V15.0649H55.6728V10.4434H53.6728ZM54.6728 14.0649H52.9875V16.0649H54.6728V14.0649ZM53.9875 15.0649V2.50333H51.9875V15.0649H53.9875ZM52.9875 3.50333H56.3408V1.50333H52.9875V3.50333ZM56.4971 9.8102C57.267 9.8102 58.0117 9.67467 58.6043 9.27326L57.4826 7.61742C57.357 7.70249 57.0709 7.8102 56.4971 7.8102V9.8102ZM58.61 9.26938C59.1136 8.92316 59.5118 8.47329 59.7475 7.91123L57.9031 7.13778C57.8376 7.29385 57.7146 7.45787 57.4769 7.6213L58.61 9.26938ZM59.7518 7.90088C59.9418 7.43306 60.0512 6.95173 60.0512 6.46467H58.0512C58.0512 6.64942 58.0099 6.87464 57.8988 7.14813L59.7518 7.90088ZM60.0512 6.46467C60.0512 5.9644 59.9299 5.4769 59.7193 5.01063L57.8966 5.8338C58.0103 6.08566 58.0512 6.29314 58.0512 6.46467H60.0512ZM59.7193 5.01063C59.4758 4.47137 59.0912 4.03106 58.6048 3.68587L57.4473 5.31688C57.6791 5.48134 57.8158 5.65492 57.8966 5.8338L59.7193 5.01063ZM58.6174 3.69497C58.0451 3.27525 57.3448 3.11914 56.6188 3.11914V5.11914C57.0742 5.11914 57.3121 5.21785 57.4347 5.30778L58.6174 3.69497ZM56.6188 3.11914H54.6728V5.11914H56.6188V3.11914ZM53.6728 4.11914V8.8102H55.6728V4.11914H53.6728ZM54.6728 9.8102H56.4971V7.8102H54.6728V9.8102ZM66.3511 7.55925L67.3476 7.6423L67.3511 7.60085V7.55925H66.3511ZM66.299 8.18472L65.3024 8.10168L67.1444 8.71872L66.299 8.18472ZM66.5074 7.85461L65.7853 7.16291L65.7157 7.23556L65.662 7.32062L66.5074 7.85461ZM71.6329 2.50333V1.50333H71.206L70.9107 1.81163L71.6329 2.50333ZM73.822 2.50333L74.5429 3.1964L76.1706 1.50333H73.822V2.50333ZM68.6271 7.90674L67.9062 7.21367L67.3105 7.8333L67.8336 8.51533L68.6271 7.90674ZM74.1174 15.0649V16.0649H76.1446L74.9109 14.4563L74.1174 15.0649ZM71.9803 15.0649L71.1812 15.666L71.4812 16.0649H71.9803V15.0649ZM67.3935 8.96657L68.1927 8.36547L67.5121 7.46062L66.6983 8.24778L67.3935 8.96657ZM66.3337 9.99165L65.6385 9.27286L65.3323 9.56905L65.3337 9.99508L66.3337 9.99165ZM66.3511 15.0649V16.0649H67.3545L67.3511 15.0615L66.3511 15.0649ZM64.631 15.0649H63.631V16.0649H64.631V15.0649ZM64.631 2.50333V1.50333H63.631V2.50333H64.631ZM66.3511 2.50333H67.3511V1.50333H66.3511V2.50333ZM65.3545 7.47621L65.3024 8.10168L67.2955 8.26777L67.3476 7.6423L65.3545 7.47621ZM67.1444 8.71872L67.3529 8.38861L65.662 7.32062L65.4535 7.65073L67.1444 8.71872ZM67.2296 8.54632L72.355 3.19504L70.9107 1.81163L65.7853 7.16291L67.2296 8.54632ZM71.6329 3.50333H73.822V1.50333H71.6329V3.50333ZM73.1011 1.81027L67.9062 7.21367L69.348 8.5998L74.5429 3.1964L73.1011 1.81027ZM67.8336 8.51533L73.3239 15.6735L74.9109 14.4563L69.4206 7.29814L67.8336 8.51533ZM74.1174 14.0649H71.9803V16.0649H74.1174V14.0649ZM72.7795 14.4638L68.1927 8.36547L66.5944 9.56766L71.1812 15.666L72.7795 14.4638ZM66.6983 8.24778L65.6385 9.27286L67.0289 10.7104L68.0888 9.68536L66.6983 8.24778ZM65.3337 9.99508L65.3511 15.0684L67.3511 15.0615L67.3337 9.98823L65.3337 9.99508ZM66.3511 14.0649H64.631V16.0649H66.3511V14.0649ZM65.631 15.0649V2.50333H63.631V15.0649H65.631ZM64.631 3.50333H66.3511V1.50333H64.631V3.50333ZM65.3511 2.50333V7.55925H67.3511V2.50333H65.3511ZM83.1118 4.74462L82.655 5.63418L83.559 6.0984L84.0086 5.18704L83.1118 4.74462ZM78.5945 4.39713L77.9837 3.60527L77.9726 3.61402L78.5945 4.39713ZM78.386 6.63841L77.6634 7.32964L77.6711 7.33767L77.6789 7.34552L78.386 6.63841ZM79.3937 7.35076L78.9364 8.24005L78.9514 8.24778L78.9667 8.25501L79.3937 7.35076ZM80.7142 7.90674L81.0676 6.97126L81.0653 6.97041L80.7142 7.90674ZM82.2257 8.61908L82.7219 7.75084L82.2257 8.61908ZM83.4246 9.74841L82.5894 10.2984L82.5972 10.3102L82.6053 10.3219L83.4246 9.74841ZM83.4072 13.4491L84.2532 13.9825L84.2582 13.9742L83.4072 13.4491ZM81.9825 14.7348L82.4364 15.6259L82.4431 15.6225L82.4496 15.619L81.9825 14.7348ZM77.4652 14.8043L77.1124 15.74L77.1174 15.7419L77.4652 14.8043ZM75.6583 13.8835L74.7852 13.3959L74.344 14.1859L75.0861 14.7036L75.6583 13.8835ZM76.4054 12.5457L77.0162 11.7539L76.0978 11.0454L75.5323 12.0581L76.4054 12.5457ZM77.8995 13.3623L77.5344 14.2933L77.5406 14.2956L77.8995 13.3623ZM80.801 13.5013L80.4682 12.5582L80.4593 12.5615L80.801 13.5013ZM81.774 12.841L82.5374 13.487L82.5434 13.4799L82.5492 13.4727L81.774 12.841ZM81.8088 10.5824L82.5896 9.95768L81.8088 10.5824ZM80.9053 9.85266L80.4032 10.7174L80.4195 10.7269L80.4361 10.7358L80.9053 9.85266ZM79.7238 9.29668L80.0777 8.36139L80.0672 8.35742L80.0567 8.35369L79.7238 9.29668ZM78.525 8.8102L78.9408 7.90072L78.525 8.8102ZM77.3957 8.14998L76.7743 8.93347L76.7891 8.94521L76.8043 8.95638L77.3957 8.14998ZM76.7355 4.06702L75.8975 3.52134L75.8943 3.52626L76.7355 4.06702ZM78.0559 2.90294L78.5031 3.79737L78.5105 3.79367L78.5178 3.78986L78.0559 2.90294ZM79.9845 2.43384V1.43384H79.9686L79.9527 1.43434L79.9845 2.43384ZM82.1041 2.7292L81.7987 3.68143L81.8038 3.68305L82.1041 2.7292ZM83.7547 3.44155L84.6515 3.88397L85.0634 3.04892L84.2599 2.57853L83.7547 3.44155ZM83.5686 3.85505C83.0857 3.60704 82.5645 3.39551 82.0077 3.21834L81.4013 5.12419C81.8638 5.27134 82.2809 5.44204 82.655 5.63418L83.5686 3.85505ZM82.0077 3.21834C81.4122 3.02887 80.8176 2.92803 80.2277 2.92803V4.92803C80.5876 4.92803 80.9775 4.98935 81.4013 5.12419L82.0077 3.21834ZM80.2277 2.92803C79.397 2.92803 78.6147 3.11862 77.9837 3.60535L79.2053 5.18891C79.3852 5.05017 79.6916 4.92803 80.2277 4.92803V2.92803ZM77.9726 3.61402C77.324 4.12912 77.0038 4.84855 77.0038 5.66545H79.0038C79.0038 5.41674 79.0774 5.29062 79.2164 5.18024L77.9726 3.61402ZM77.0038 5.66545C77.0038 6.29469 77.2234 6.86967 77.6634 7.32964L79.1087 5.94719C79.039 5.87435 79.0038 5.80068 79.0038 5.66545H77.0038ZM77.6789 7.34552C78.0321 7.69874 78.4575 7.99375 78.9364 8.24005L79.8511 6.46147C79.5192 6.29078 79.2727 6.1109 79.0931 5.93131L77.6789 7.34552ZM78.9667 8.25501C79.4103 8.46446 79.8759 8.66037 80.3631 8.84307L81.0653 6.97041C80.6259 6.80562 80.2112 6.63087 79.8207 6.44651L78.9667 8.25501ZM80.3608 8.84221C80.8325 9.0204 81.2886 9.23532 81.7296 9.48733L82.7219 7.75084C82.1899 7.44686 81.6384 7.18689 81.0676 6.97126L80.3608 8.84221ZM81.7296 9.48733C82.0775 9.68615 82.3618 9.95273 82.5894 10.2984L84.2597 9.19842C83.8619 8.5943 83.3469 8.10799 82.7219 7.75084L81.7296 9.48733ZM82.6053 10.3219C82.774 10.5628 82.911 10.9642 82.911 11.6248H84.911C84.911 10.7102 84.7238 9.86067 84.2438 9.17495L82.6053 10.3219ZM82.911 11.6248C82.911 12.1209 82.7897 12.5456 82.5562 12.924L84.2582 13.9742C84.6965 13.2639 84.911 12.4724 84.911 11.6248H82.911ZM82.5613 12.9158C82.3281 13.2857 81.9907 13.5995 81.5154 13.8506L82.4496 15.619C83.2021 15.2215 83.8145 14.6782 84.2531 13.9824L82.5613 12.9158ZM81.5286 13.8438C81.0837 14.0704 80.5164 14.2039 79.7933 14.2039V16.2039C80.7614 16.2039 81.6535 16.0247 82.4364 15.6259L81.5286 13.8438ZM79.7933 14.2039C79.0675 14.2039 78.4103 14.0884 77.813 13.8668L77.1174 15.7419C77.9563 16.0531 78.8512 16.2039 79.7933 16.2039V14.2039ZM77.818 13.8686C77.1711 13.6247 76.6463 13.3535 76.2304 13.0634L75.0861 14.7036C75.6663 15.1084 76.3462 15.4511 77.1124 15.74L77.818 13.8686ZM76.5313 14.3711L77.2784 13.0332L75.5323 12.0581L74.7852 13.3959L76.5313 14.3711ZM75.7946 13.3375C76.2902 13.7198 76.8758 14.0349 77.5345 14.2932L78.2646 12.4313C77.7419 12.2263 77.3313 11.997 77.0162 11.7539L75.7946 13.3375ZM77.5406 14.2956C78.2366 14.5633 78.932 14.7097 79.6196 14.7097V12.7097C79.2184 12.7097 78.7671 12.6245 78.2585 12.4289L77.5406 14.2956ZM79.6196 14.7097C80.1419 14.7097 80.6514 14.6197 81.1428 14.441L80.4593 12.5615C80.1862 12.6608 79.9081 12.7097 79.6196 12.7097V14.7097ZM81.1339 14.4442C81.6848 14.2498 82.1612 13.9316 82.5374 13.487L81.0106 12.1951C80.8772 12.3528 80.7049 12.4747 80.4682 12.5583L81.1339 14.4442ZM82.5492 13.4727C82.9777 12.9468 83.1562 12.3097 83.1562 11.6422H81.1562C81.1562 11.9477 81.0799 12.1098 80.9988 12.2094L82.5492 13.4727ZM83.1562 11.6422C83.1562 11.028 82.9807 10.4466 82.5896 9.95768L81.0279 11.2071C81.1001 11.2973 81.1562 11.4224 81.1562 11.6422H83.1562ZM82.5896 9.95768C82.2622 9.54845 81.8497 9.22202 81.3745 8.96954L80.4361 10.7358C80.7022 10.8771 80.892 11.0372 81.0279 11.2071L82.5896 9.95768ZM81.4074 8.98787C80.9964 8.7492 80.5524 8.54098 80.0777 8.36139L79.37 10.232C79.7525 10.3767 80.0961 10.5391 80.4032 10.7174L81.4074 8.98787ZM80.0567 8.35369C79.6928 8.22526 79.3208 8.07447 78.9408 7.90072L78.1093 9.71967C78.54 9.91658 78.9673 10.0901 79.391 10.2397L80.0567 8.35369ZM78.9408 7.90072C78.5951 7.74272 78.2778 7.55679 77.9871 7.34357L76.8043 8.95638C77.2085 9.25281 77.6441 9.50703 78.1093 9.71967L78.9408 7.90072ZM78.0171 7.36648C77.7879 7.18472 77.6023 6.96456 77.457 6.69816L75.7012 7.65587C75.9729 8.15394 76.3317 8.58242 76.7743 8.93347L78.0171 7.36648ZM77.457 6.69816C77.3463 6.49517 77.2664 6.20534 77.2664 5.78707H75.2664C75.2664 6.4576 75.395 7.0944 75.7012 7.65587L77.457 6.69816ZM77.2664 5.78707C77.2664 5.29073 77.3817 4.91101 77.5766 4.60778L75.8943 3.52626C75.4638 4.19599 75.2664 4.96297 75.2664 5.78707H77.2664ZM77.5735 4.61269C77.7963 4.2705 78.0985 3.99969 78.5031 3.79737L77.6087 2.00851C76.9014 2.36217 76.3233 2.86741 75.8975 3.52135L77.5735 4.61269ZM78.5178 3.78986C78.9205 3.58017 79.4119 3.45252 80.0162 3.43333L79.9527 1.43434C79.0976 1.46149 78.3033 1.64658 77.594 2.01603L78.5178 3.78986ZM79.9845 3.43384C80.7038 3.43384 81.3039 3.5227 81.7987 3.68142L82.4096 1.77699C81.6766 1.54188 80.8635 1.43384 79.9845 1.43384V3.43384ZM81.8038 3.68305C82.371 3.8616 82.8502 4.07082 83.2495 4.30456L84.2599 2.57853C83.7094 2.25629 83.0882 1.99062 82.4044 1.77535L81.8038 3.68305ZM82.8579 2.99912L82.215 4.30219L84.0086 5.18704L84.6515 3.88397L82.8579 2.99912Z" fill="#ECF8F8"/>
</svg>
