<svg width="210" height="48" viewBox="0 0 210 48" fill="none" xmlns="http://www.w3.org/2000/svg">
<g filter="url(#filter0_d)">
<g filter="url(#filter1_d)">
<rect x="4" width="201.201" height="39.3655" rx="9.71988" fill="#E6BEAE"/>
</g>
<path d="M45.4349 24.6357L51.2435 11.2515H51.3834L57.192 24.6357H54.2527L53.2555 22.1163H48.9865L47.9368 24.6357H45.4349ZM49.8788 19.9819H52.4157L51.1735 16.8501L49.8788 19.9819ZM59.0691 24.6357V11.7588H62.9182C64.2129 11.7588 65.3151 11.9513 66.2249 12.3362C67.1347 12.7211 67.8637 13.2343 68.4119 13.8758C68.9718 14.5173 69.38 15.2347 69.6366 16.0278C69.8932 16.821 70.0215 17.6199 70.0215 18.4247C70.0215 19.3812 69.8465 20.2443 69.4966 21.0141C69.1584 21.7723 68.6918 22.4254 68.097 22.9736C67.5021 23.5102 66.8139 23.9242 66.0325 24.2158C65.251 24.4958 64.4228 24.6357 63.5481 24.6357H59.0691ZM61.606 22.1863H63.1107C64.3937 22.1863 65.4259 21.8539 66.2074 21.1891C67.0006 20.5242 67.3971 19.5445 67.3971 18.2498C67.3971 17.41 67.2572 16.7276 66.9772 16.2028C66.709 15.6662 66.3707 15.2522 65.9625 14.9606C65.5659 14.669 65.1577 14.4707 64.7378 14.3657C64.3179 14.2491 63.9621 14.1908 63.6705 14.1908H61.606V22.1863ZM72.5669 24.6357V11.7588H76.4159C77.7106 11.7588 78.8129 11.9513 79.7226 12.3362C80.6324 12.7211 81.3614 13.2343 81.9096 13.8758C82.4695 14.5173 82.8777 15.2347 83.1343 16.0278C83.3909 16.821 83.5192 17.6199 83.5192 18.4247C83.5192 19.3812 83.3443 20.2443 82.9943 21.0141C82.6561 21.7723 82.1895 22.4254 81.5947 22.9736C80.9998 23.5102 80.3117 23.9242 79.5302 24.2158C78.7487 24.4958 77.9206 24.6357 77.0458 24.6357H72.5669ZM75.1037 22.1863H76.6084C77.8914 22.1863 78.9237 21.8539 79.7051 21.1891C80.4983 20.5242 80.8949 19.5445 80.8949 18.2498C80.8949 17.41 80.7549 16.7276 80.475 16.2028C80.2067 15.6662 79.8684 15.2522 79.4602 14.9606C79.0636 14.669 78.6554 14.4707 78.2355 14.3657C77.8156 14.2491 77.4598 14.1908 77.1683 14.1908H75.1037V22.1863ZM95.6557 11.7588C97.2536 11.7588 98.4783 12.1554 99.3298 12.9486C100.181 13.73 100.607 14.7798 100.607 16.0978C100.607 16.6227 100.525 17.1534 100.362 17.6899C100.21 18.2148 99.9596 18.693 99.6097 19.1246C99.2715 19.5561 98.8108 19.906 98.2276 20.1743C97.656 20.4309 96.9504 20.5592 96.1106 20.5592H94.291V24.6357H91.7541V11.7588H95.6557ZM96.0931 18.0923C96.6063 18.0923 97.0029 17.9815 97.2828 17.7599C97.5744 17.5266 97.7785 17.2584 97.8951 16.9551C98.0118 16.6518 98.0701 16.3894 98.0701 16.1678C98.0701 16.0395 98.0468 15.8704 98.0001 15.6604C97.9651 15.4388 97.8835 15.2172 97.7552 14.9956C97.6269 14.774 97.4286 14.5873 97.1603 14.4357C96.9037 14.2841 96.5538 14.2083 96.1106 14.2083H94.291V18.0923H96.0931ZM100.109 24.6357L105.918 11.2515H106.058L111.866 24.6357H108.927L107.93 22.1163H103.661L102.611 24.6357H100.109ZM104.553 19.9819H107.09L105.848 16.8501L104.553 19.9819ZM111.826 11.7588H120.504V14.2083H117.373V24.6357H114.836V14.2083H111.826V11.7588ZM122.953 11.7588H125.49V24.6357H122.953V11.7588ZM128.813 11.7588H137.596V14.2083H131.35V16.9551H136.879V19.4045H131.35V22.1863H137.841V24.6357H128.813V11.7588ZM151.995 25.1606L142.985 17.0251L143.037 24.6357H140.466V11.2515H140.57L149.563 19.5095L149.511 11.7588H152.065V25.1606H151.995ZM154.507 11.7588H163.184V14.2083H160.053V24.6357H157.516V14.2083H154.507V11.7588Z" fill="white"/>
</g>
<defs>
<filter id="filter0_d" x="0" y="0" width="209.201" height="47.3655" filterUnits="userSpaceOnUse" color-interpolation-filters="sRGB">
<feFlood flood-opacity="0" result="BackgroundImageFix"/>
<feColorMatrix in="SourceAlpha" type="matrix" values="0 0 0 0 0 0 0 0 0 0 0 0 0 0 0 0 0 0 127 0" result="hardAlpha"/>
<feOffset dy="4"/>
<feGaussianBlur stdDeviation="2"/>
<feColorMatrix type="matrix" values="0 0 0 0 0 0 0 0 0 0 0 0 0 0 0 0 0 0 0.25 0"/>
<feBlend mode="normal" in2="BackgroundImageFix" result="effect1_dropShadow"/>
<feBlend mode="normal" in="SourceGraphic" in2="effect1_dropShadow" result="shape"/>
</filter>
<filter id="filter1_d" x="2.05602" y="0" width="205.089" height="43.2535" filterUnits="userSpaceOnUse" color-interpolation-filters="sRGB">
<feFlood flood-opacity="0" result="BackgroundImageFix"/>
<feColorMatrix in="SourceAlpha" type="matrix" values="0 0 0 0 0 0 0 0 0 0 0 0 0 0 0 0 0 0 127 0" result="hardAlpha"/>
<feOffset dy="1.94398"/>
<feGaussianBlur stdDeviation="0.971988"/>
<feColorMatrix type="matrix" values="0 0 0 0 0 0 0 0 0 0 0 0 0 0 0 0 0 0 0.25 0"/>
<feBlend mode="normal" in2="BackgroundImageFix" result="effect1_dropShadow"/>
<feBlend mode="normal" in="SourceGraphic" in2="effect1_dropShadow" result="shape"/>
</filter>
</defs>
</svg>
