<svg width="32" height="31" viewBox="0 0 32 31" fill="none" xmlns="http://www.w3.org/2000/svg">
<path d="M28.7978 28.6712H2.4034V3.05483H18.264L20.6635 0.726074H2.4034C1.76701 0.726074 1.15669 0.971425 0.7067 1.40815C0.256709 1.84488 0.00390625 2.43721 0.00390625 3.05483V28.6712C0.00390625 29.2888 0.256709 29.8811 0.7067 30.3178C1.15669 30.7546 1.76701 30.9999 2.4034 30.9999H28.7978C29.4342 30.9999 30.0445 30.7546 30.4945 30.3178C30.9445 29.8811 31.1973 29.2888 31.1973 28.6712V11.2055L28.7978 13.5342V28.6712Z" fill="white"/>
<path d="M28.7978 28.6712H2.4034V3.05483H18.264L20.6635 0.726074H2.4034C1.76701 0.726074 1.15669 0.971425 0.7067 1.40815C0.256709 1.84488 0.00390625 2.43721 0.00390625 3.05483V28.6712C0.00390625 29.2888 0.256709 29.8811 0.7067 30.3178C1.15669 30.7546 1.76701 30.9999 2.4034 30.9999H28.7978C29.4342 30.9999 30.0445 30.7546 30.4945 30.3178C30.9445 29.8811 31.1973 29.2888 31.1973 28.6712V11.2055L28.7978 13.5342V28.6712Z" fill="#698996"/>
</svg>
