<svg width="26" height="25" viewBox="0 0 26 25" fill="none" xmlns="http://www.w3.org/2000/svg">
<path d="M25.4323 4.53979L21.3891 0.61583C21.2097 0.441209 20.9965 0.302663 20.7618 0.208132C20.5271 0.113601 20.2755 0.0649414 20.0214 0.0649414C19.7673 0.0649414 19.5157 0.113601 19.281 0.208132C19.0463 0.302663 18.8332 0.441209 18.6537 0.61583L2.20522 16.6726L0.873504 22.2733C0.81677 22.5448 0.822734 22.8251 0.890968 23.0941C0.959203 23.363 1.08801 23.614 1.26813 23.8289C1.44825 24.0438 1.6752 24.2173 1.93265 24.3368C2.19011 24.4564 2.47168 24.5192 2.7571 24.5205C2.90463 24.5363 3.05349 24.5363 3.20101 24.5205L9.01977 23.2746L25.4323 7.19457C25.6122 7.02043 25.755 6.81354 25.8524 6.58576C25.9498 6.35798 25.9999 6.11379 25.9999 5.86718C25.9999 5.62056 25.9498 5.37637 25.8524 5.14859C25.755 4.92082 25.6122 4.71393 25.4323 4.53979ZM7.77203 21.1205L3.38097 22.0637L4.40075 17.837L16.7821 5.7391L20.1654 9.02264L7.77203 21.1205ZM21.5211 7.7069L18.1378 4.42335L19.9974 2.58363L23.4047 5.89047L21.5211 7.7069Z" fill="white"/>
<path d="M25.4323 4.53979L21.3891 0.61583C21.2097 0.441209 20.9965 0.302663 20.7618 0.208132C20.5271 0.113601 20.2755 0.0649414 20.0214 0.0649414C19.7673 0.0649414 19.5157 0.113601 19.281 0.208132C19.0463 0.302663 18.8332 0.441209 18.6537 0.61583L2.20522 16.6726L0.873504 22.2733C0.81677 22.5448 0.822734 22.8251 0.890968 23.0941C0.959203 23.363 1.08801 23.614 1.26813 23.8289C1.44825 24.0438 1.6752 24.2173 1.93265 24.3368C2.19011 24.4564 2.47168 24.5192 2.7571 24.5205C2.90463 24.5363 3.05349 24.5363 3.20101 24.5205L9.01977 23.2746L25.4323 7.19457C25.6122 7.02043 25.755 6.81354 25.8524 6.58576C25.9498 6.35798 25.9999 6.11379 25.9999 5.86718C25.9999 5.62056 25.9498 5.37637 25.8524 5.14859C25.755 4.92082 25.6122 4.71393 25.4323 4.53979ZM7.77203 21.1205L3.38097 22.0637L4.40075 17.837L16.7821 5.7391L20.1654 9.02264L7.77203 21.1205ZM21.5211 7.7069L18.1378 4.42335L19.9974 2.58363L23.4047 5.89047L21.5211 7.7069Z" fill="#698996"/>
</svg>
