<svg width="25" height="25" viewBox="0 0 25 25" fill="none" xmlns="http://www.w3.org/2000/svg">
<path d="M24.4479 4.45064L20.5167 0.547908C20.3422 0.374232 20.1349 0.236436 19.9067 0.142416C19.6785 0.0483962 19.4339 0 19.1868 0C18.9397 0 18.6951 0.0483962 18.4669 0.142416C18.2387 0.236436 18.0314 0.374232 17.857 0.547908L1.86359 16.5178L0.568726 22.0882C0.513562 22.3582 0.519361 22.637 0.585708 22.9045C0.652054 23.172 0.777298 23.4217 0.952432 23.6354C1.12757 23.8491 1.34824 24.0217 1.59857 24.1406C1.8489 24.2595 2.12268 24.3219 2.40021 24.3233C2.54365 24.339 2.68839 24.339 2.83183 24.3233L8.48958 23.0841L24.4479 7.09106C24.6229 6.91785 24.7617 6.71209 24.8564 6.48554C24.9511 6.259 24.9999 6.01613 24.9999 5.77085C24.9999 5.52557 24.9511 5.2827 24.8564 5.05615C24.7617 4.8296 24.6229 4.62384 24.4479 4.45064ZM7.27637 20.9417L3.00681 21.8797L3.99837 17.6759L16.0371 5.64346L19.3268 8.90924L7.27637 20.9417ZM20.645 7.60061L17.3553 4.33483L19.1635 2.50506L22.4765 5.79401L20.645 7.60061Z" fill="white"/>
<path d="M24.4479 4.45064L20.5167 0.547908C20.3422 0.374232 20.1349 0.236436 19.9067 0.142416C19.6785 0.0483962 19.4339 0 19.1868 0C18.9397 0 18.6951 0.0483962 18.4669 0.142416C18.2387 0.236436 18.0314 0.374232 17.857 0.547908L1.86359 16.5178L0.568726 22.0882C0.513562 22.3582 0.519361 22.637 0.585708 22.9045C0.652054 23.172 0.777298 23.4217 0.952432 23.6354C1.12757 23.8491 1.34824 24.0217 1.59857 24.1406C1.8489 24.2595 2.12268 24.3219 2.40021 24.3233C2.54365 24.339 2.68839 24.339 2.83183 24.3233L8.48958 23.0841L24.4479 7.09106C24.6229 6.91785 24.7617 6.71209 24.8564 6.48554C24.9511 6.259 24.9999 6.01613 24.9999 5.77085C24.9999 5.52557 24.9511 5.2827 24.8564 5.05615C24.7617 4.8296 24.6229 4.62384 24.4479 4.45064ZM7.27637 20.9417L3.00681 21.8797L3.99837 17.6759L16.0371 5.64346L19.3268 8.90924L7.27637 20.9417ZM20.645 7.60061L17.3553 4.33483L19.1635 2.50506L22.4765 5.79401L20.645 7.60061Z" fill="#698996"/>
</svg>
